<?xml version="1.0" encoding="utf-8" standalone="no"?>
<!DOCTYPE svg PUBLIC "-//W3C//DTD SVG 1.1//EN"
  "http://www.w3.org/Graphics/SVG/1.1/DTD/svg11.dtd">
<!-- Created with matplotlib (https://matplotlib.org/) -->
<svg height="1440pt" version="1.1" viewBox="0 0 1440 1440" width="1440pt" xmlns="http://www.w3.org/2000/svg" xmlns:xlink="http://www.w3.org/1999/xlink">
 <metadata>
  <rdf:RDF xmlns:cc="http://creativecommons.org/ns#" xmlns:dc="http://purl.org/dc/elements/1.1/" xmlns:rdf="http://www.w3.org/1999/02/22-rdf-syntax-ns#">
   <cc:Work>
    <dc:type rdf:resource="http://purl.org/dc/dcmitype/StillImage"/>
    <dc:date>2020-08-19T17:24:09.680831</dc:date>
    <dc:format>image/svg+xml</dc:format>
    <dc:creator>
     <cc:Agent>
      <dc:title>Matplotlib v3.3.0, https://matplotlib.org/</dc:title>
     </cc:Agent>
    </dc:creator>
   </cc:Work>
  </rdf:RDF>
 </metadata>
 <defs>
  <style type="text/css">*{stroke-linecap:butt;stroke-linejoin:round;}</style>
 </defs>
 <g id="figure_1">
  <g id="patch_1">
   <path d="M 0 1440 
L 1440 1440 
L 1440 0 
L 0 0 
z
" style="fill:#ffffff;"/>
  </g>
  <g id="axes_1">
   <g id="patch_2">
    <path d="M 180 676.8 
L 1296 676.8 
L 1296 172.8 
L 180 172.8 
z
" style="fill:#ffffff;"/>
   </g>
   <g id="patch_3">
    <path clip-path="url(#pca35ef8d6e)" d="M 230.727273 676.8 
L 332.181818 676.8 
L 332.181818 547.27619 
L 230.727273 547.27619 
z
" style="fill:#0000ff;opacity:0.7;stroke:#ff0000;stroke-linejoin:miter;"/>
   </g>
   <g id="patch_4">
    <path clip-path="url(#pca35ef8d6e)" d="M 332.181818 676.8 
L 433.636364 676.8 
L 433.636364 318.704762 
L 332.181818 318.704762 
z
" style="fill:#0000ff;opacity:0.7;stroke:#ff0000;stroke-linejoin:miter;"/>
   </g>
   <g id="patch_5">
    <path clip-path="url(#pca35ef8d6e)" d="M 433.636364 676.8 
L 535.090909 676.8 
L 535.090909 303.466667 
L 433.636364 303.466667 
z
" style="fill:#0000ff;opacity:0.7;stroke:#ff0000;stroke-linejoin:miter;"/>
   </g>
   <g id="patch_6">
    <path clip-path="url(#pca35ef8d6e)" d="M 535.090909 676.8 
L 636.545455 676.8 
L 636.545455 196.8 
L 535.090909 196.8 
z
" style="fill:#0000ff;opacity:0.7;stroke:#ff0000;stroke-linejoin:miter;"/>
   </g>
   <g id="patch_7">
    <path clip-path="url(#pca35ef8d6e)" d="M 636.545455 676.8 
L 738 676.8 
L 738 554.895238 
L 636.545455 554.895238 
z
" style="fill:#0000ff;opacity:0.7;stroke:#ff0000;stroke-linejoin:miter;"/>
   </g>
   <g id="patch_8">
    <path clip-path="url(#pca35ef8d6e)" d="M 738 676.8 
L 839.454545 676.8 
L 839.454545 528.228571 
L 738 528.228571 
z
" style="fill:#0000ff;opacity:0.7;stroke:#ff0000;stroke-linejoin:miter;"/>
   </g>
   <g id="patch_9">
    <path clip-path="url(#pca35ef8d6e)" d="M 839.454545 676.8 
L 940.909091 676.8 
L 940.909091 627.27619 
L 839.454545 627.27619 
z
" style="fill:#0000ff;opacity:0.7;stroke:#ff0000;stroke-linejoin:miter;"/>
   </g>
   <g id="patch_10">
    <path clip-path="url(#pca35ef8d6e)" d="M 940.909091 676.8 
L 1042.363636 676.8 
L 1042.363636 672.990476 
L 940.909091 672.990476 
z
" style="fill:#0000ff;opacity:0.7;stroke:#ff0000;stroke-linejoin:miter;"/>
   </g>
   <g id="patch_11">
    <path clip-path="url(#pca35ef8d6e)" d="M 1042.363636 676.8 
L 1143.818182 676.8 
L 1143.818182 669.180952 
L 1042.363636 669.180952 
z
" style="fill:#0000ff;opacity:0.7;stroke:#ff0000;stroke-linejoin:miter;"/>
   </g>
   <g id="patch_12">
    <path clip-path="url(#pca35ef8d6e)" d="M 1143.818182 676.8 
L 1245.272727 676.8 
L 1245.272727 672.990476 
L 1143.818182 672.990476 
z
" style="fill:#0000ff;opacity:0.7;stroke:#ff0000;stroke-linejoin:miter;"/>
   </g>
   <g id="matplotlib.axis_1">
    <g id="xtick_1">
     <g id="line2d_1">
      <path clip-path="url(#pca35ef8d6e)" d="M 230.727273 676.8 
L 230.727273 172.8 
" style="fill:none;stroke:#b0b0b0;stroke-linecap:square;stroke-opacity:0.5;stroke-width:0.8;"/>
     </g>
     <g id="line2d_2">
      <defs>
       <path d="M 0 0 
L 0 3.5 
" id="m16982f07ce" style="stroke:#000000;stroke-width:0.8;"/>
      </defs>
      <g>
       <use style="stroke:#000000;stroke-width:0.8;" x="230.727273" xlink:href="#m16982f07ce" y="676.8"/>
      </g>
     </g>
     <g id="text_1">
      <!-- 3K -->
      <g transform="translate(220.727273 697.55)scale(0.2 -0.2)">
       <defs>
        <path d="M 3.90625 19.140625 
L 10.9375 20.3125 
Q 12.5 15.234375 16.015625 11.90625 
Q 19.53125 8.59375 24.796875 8.78125 
Q 30.078125 8.984375 33.203125 13.078125 
Q 36.328125 17.1875 35.9375 22.453125 
Q 35.546875 27.734375 31.828125 30.65625 
Q 28.125 33.59375 19.921875 34.765625 
L 19.921875 39.84375 
Q 28.125 40.625 31.828125 44.140625 
Q 35.546875 47.65625 35.15625 53.3125 
Q 34.765625 58.984375 30.078125 61.515625 
Q 25.390625 64.0625 20.109375 62.109375 
Q 14.84375 60.15625 11.71875 51.171875 
L 4.6875 52.34375 
Q 7.03125 59.375 11.125 64.0625 
Q 15.234375 68.75 22.265625 69.53125 
Q 29.296875 70.3125 34.5625 67.765625 
Q 39.84375 65.234375 41.984375 59.953125 
Q 44.140625 54.6875 42.578125 48.4375 
Q 41.015625 42.1875 33.59375 37.5 
Q 39.0625 35.15625 41.984375 30.46875 
Q 44.921875 25.78125 43.9375 18.15625 
Q 42.96875 10.546875 37.109375 5.859375 
Q 31.25 1.171875 23.828125 1.359375 
Q 16.40625 1.5625 10.9375 6.046875 
Q 5.46875 10.546875 3.90625 19.140625 
z
" id="SimHei-51"/>
        <path d="M 47.65625 1.953125 
L 37.5 1.953125 
L 19.53125 35.15625 
L 13.28125 26.953125 
L 13.28125 1.953125 
L 4.296875 1.953125 
L 4.296875 68.75 
L 13.28125 68.75 
L 13.28125 39.84375 
L 35.546875 68.75 
L 46.09375 68.75 
L 25.390625 42.578125 
z
" id="SimHei-75"/>
       </defs>
       <use xlink:href="#SimHei-51"/>
       <use x="50" xlink:href="#SimHei-75"/>
      </g>
     </g>
    </g>
    <g id="xtick_2">
     <g id="line2d_3">
      <path clip-path="url(#pca35ef8d6e)" d="M 261.471074 676.8 
L 261.471074 172.8 
" style="fill:none;stroke:#b0b0b0;stroke-linecap:square;stroke-opacity:0.5;stroke-width:0.8;"/>
     </g>
     <g id="line2d_4">
      <g>
       <use style="stroke:#000000;stroke-width:0.8;" x="261.471074" xlink:href="#m16982f07ce" y="676.8"/>
      </g>
     </g>
     <g id="text_2">
      <!-- 5K -->
      <g transform="translate(251.471074 697.55)scale(0.2 -0.2)">
       <defs>
        <path d="M 8.59375 20.703125 
Q 11.328125 10.15625 17.96875 8.984375 
Q 24.609375 7.8125 28.703125 10.34375 
Q 32.8125 12.890625 34.5625 16.984375 
Q 36.328125 21.09375 36.125 26.171875 
Q 35.9375 31.25 33.390625 34.765625 
Q 30.859375 38.28125 26.953125 39.453125 
Q 23.046875 40.625 18.15625 39.453125 
Q 13.28125 38.28125 10.15625 33.984375 
L 3.515625 34.765625 
Q 4.296875 37.109375 10.9375 68.359375 
L 41.796875 68.359375 
L 41.796875 61.328125 
L 16.796875 61.328125 
Q 14.84375 50.78125 12.890625 44.53125 
Q 18.75 47.265625 23.828125 47.0625 
Q 28.90625 46.875 33.59375 44.71875 
Q 38.28125 42.578125 40.421875 38.859375 
Q 42.578125 35.15625 43.546875 31.4375 
Q 44.53125 27.734375 44.328125 23.4375 
Q 44.140625 19.140625 42.578125 14.640625 
Q 41.015625 10.15625 37.890625 7.21875 
Q 34.765625 4.296875 30.265625 2.53125 
Q 25.78125 0.78125 19.921875 1.171875 
Q 14.0625 1.5625 8.78125 5.46875 
Q 3.515625 9.375 1.5625 18.75 
z
" id="SimHei-53"/>
       </defs>
       <use xlink:href="#SimHei-53"/>
       <use x="50" xlink:href="#SimHei-75"/>
      </g>
     </g>
    </g>
    <g id="xtick_3">
     <g id="line2d_5">
      <path clip-path="url(#pca35ef8d6e)" d="M 292.214876 676.8 
L 292.214876 172.8 
" style="fill:none;stroke:#b0b0b0;stroke-linecap:square;stroke-opacity:0.5;stroke-width:0.8;"/>
     </g>
     <g id="line2d_6">
      <g>
       <use style="stroke:#000000;stroke-width:0.8;" x="292.214876" xlink:href="#m16982f07ce" y="676.8"/>
      </g>
     </g>
     <g id="text_3">
      <!-- 7K -->
      <g transform="translate(282.214876 697.55)scale(0.2 -0.2)">
       <defs>
        <path d="M 13.28125 2.34375 
Q 20.3125 32.03125 37.890625 61.328125 
L 4.296875 61.328125 
L 4.296875 68.359375 
L 46.09375 68.359375 
L 46.09375 61.71875 
Q 27.734375 32.03125 21.875 2.34375 
L 13.28125 2.34375 
z
" id="SimHei-55"/>
       </defs>
       <use xlink:href="#SimHei-55"/>
       <use x="50" xlink:href="#SimHei-75"/>
      </g>
     </g>
    </g>
    <g id="xtick_4">
     <g id="line2d_7">
      <path clip-path="url(#pca35ef8d6e)" d="M 322.958678 676.8 
L 322.958678 172.8 
" style="fill:none;stroke:#b0b0b0;stroke-linecap:square;stroke-opacity:0.5;stroke-width:0.8;"/>
     </g>
     <g id="line2d_8">
      <g>
       <use style="stroke:#000000;stroke-width:0.8;" x="322.958678" xlink:href="#m16982f07ce" y="676.8"/>
      </g>
     </g>
     <g id="text_4">
      <!-- 9K -->
      <g transform="translate(312.958678 697.55)scale(0.2 -0.2)">
       <defs>
        <path d="M 12.5 1.171875 
Q 21.09375 15.625 26.5625 27.34375 
Q 16.796875 25.78125 10.34375 29.875 
Q 3.90625 33.984375 2.53125 41.015625 
Q 1.171875 48.046875 2.734375 53.703125 
Q 4.296875 59.375 7.609375 63.078125 
Q 10.9375 66.796875 15.625 68.359375 
Q 20.3125 69.921875 24.015625 69.921875 
Q 27.734375 69.921875 31.640625 68.359375 
Q 35.546875 66.796875 38.671875 63.671875 
Q 41.796875 60.546875 42.96875 57.21875 
Q 44.140625 53.90625 44.140625 48.625 
Q 44.140625 43.359375 40.234375 35.15625 
Q 36.328125 26.953125 21.09375 1.171875 
z
M 9.765625 50 
Q 10.9375 39.84375 14.640625 36.515625 
Q 18.359375 33.203125 22.65625 33.59375 
Q 26.953125 33.984375 29.484375 35.9375 
Q 32.03125 37.890625 34.375 42.578125 
Q 35.9375 48.4375 35.15625 52.53125 
Q 34.375 56.640625 31.046875 59.375 
Q 27.734375 62.109375 23.828125 62.109375 
Q 21.484375 62.5 17.765625 60.9375 
Q 14.0625 59.375 11.90625 54.6875 
Q 9.765625 50 10.9375 39.84375 
z
" id="SimHei-57"/>
       </defs>
       <use xlink:href="#SimHei-57"/>
       <use x="50" xlink:href="#SimHei-75"/>
      </g>
     </g>
    </g>
    <g id="xtick_5">
     <g id="line2d_9">
      <path clip-path="url(#pca35ef8d6e)" d="M 353.702479 676.8 
L 353.702479 172.8 
" style="fill:none;stroke:#b0b0b0;stroke-linecap:square;stroke-opacity:0.5;stroke-width:0.8;"/>
     </g>
     <g id="line2d_10">
      <g>
       <use style="stroke:#000000;stroke-width:0.8;" x="353.702479" xlink:href="#m16982f07ce" y="676.8"/>
      </g>
     </g>
     <g id="text_5">
      <!-- 11K -->
      <g transform="translate(338.702479 697.55)scale(0.2 -0.2)">
       <defs>
        <path d="M 21.875 56.25 
Q 16.796875 51.171875 8.984375 46.484375 
L 8.984375 53.90625 
Q 18.75 60.546875 25 69.53125 
L 29.6875 69.53125 
L 29.6875 2.34375 
L 21.875 2.34375 
z
" id="SimHei-49"/>
       </defs>
       <use xlink:href="#SimHei-49"/>
       <use x="50" xlink:href="#SimHei-49"/>
       <use x="100" xlink:href="#SimHei-75"/>
      </g>
     </g>
    </g>
    <g id="xtick_6">
     <g id="line2d_11">
      <path clip-path="url(#pca35ef8d6e)" d="M 384.446281 676.8 
L 384.446281 172.8 
" style="fill:none;stroke:#b0b0b0;stroke-linecap:square;stroke-opacity:0.5;stroke-width:0.8;"/>
     </g>
     <g id="line2d_12">
      <g>
       <use style="stroke:#000000;stroke-width:0.8;" x="384.446281" xlink:href="#m16982f07ce" y="676.8"/>
      </g>
     </g>
     <g id="text_6">
      <!-- 13K -->
      <g transform="translate(369.446281 697.55)scale(0.2 -0.2)">
       <use xlink:href="#SimHei-49"/>
       <use x="50" xlink:href="#SimHei-51"/>
       <use x="100" xlink:href="#SimHei-75"/>
      </g>
     </g>
    </g>
    <g id="xtick_7">
     <g id="line2d_13">
      <path clip-path="url(#pca35ef8d6e)" d="M 415.190083 676.8 
L 415.190083 172.8 
" style="fill:none;stroke:#b0b0b0;stroke-linecap:square;stroke-opacity:0.5;stroke-width:0.8;"/>
     </g>
     <g id="line2d_14">
      <g>
       <use style="stroke:#000000;stroke-width:0.8;" x="415.190083" xlink:href="#m16982f07ce" y="676.8"/>
      </g>
     </g>
     <g id="text_7">
      <!-- 15K -->
      <g transform="translate(400.190083 697.55)scale(0.2 -0.2)">
       <use xlink:href="#SimHei-49"/>
       <use x="50" xlink:href="#SimHei-53"/>
       <use x="100" xlink:href="#SimHei-75"/>
      </g>
     </g>
    </g>
    <g id="xtick_8">
     <g id="line2d_15">
      <path clip-path="url(#pca35ef8d6e)" d="M 445.933884 676.8 
L 445.933884 172.8 
" style="fill:none;stroke:#b0b0b0;stroke-linecap:square;stroke-opacity:0.5;stroke-width:0.8;"/>
     </g>
     <g id="line2d_16">
      <g>
       <use style="stroke:#000000;stroke-width:0.8;" x="445.933884" xlink:href="#m16982f07ce" y="676.8"/>
      </g>
     </g>
     <g id="text_8">
      <!-- 17K -->
      <g transform="translate(430.933884 697.55)scale(0.2 -0.2)">
       <use xlink:href="#SimHei-49"/>
       <use x="50" xlink:href="#SimHei-55"/>
       <use x="100" xlink:href="#SimHei-75"/>
      </g>
     </g>
    </g>
    <g id="xtick_9">
     <g id="line2d_17">
      <path clip-path="url(#pca35ef8d6e)" d="M 476.677686 676.8 
L 476.677686 172.8 
" style="fill:none;stroke:#b0b0b0;stroke-linecap:square;stroke-opacity:0.5;stroke-width:0.8;"/>
     </g>
     <g id="line2d_18">
      <g>
       <use style="stroke:#000000;stroke-width:0.8;" x="476.677686" xlink:href="#m16982f07ce" y="676.8"/>
      </g>
     </g>
     <g id="text_9">
      <!-- 19K -->
      <g transform="translate(461.677686 697.55)scale(0.2 -0.2)">
       <use xlink:href="#SimHei-49"/>
       <use x="50" xlink:href="#SimHei-57"/>
       <use x="100" xlink:href="#SimHei-75"/>
      </g>
     </g>
    </g>
    <g id="xtick_10">
     <g id="line2d_19">
      <path clip-path="url(#pca35ef8d6e)" d="M 507.421488 676.8 
L 507.421488 172.8 
" style="fill:none;stroke:#b0b0b0;stroke-linecap:square;stroke-opacity:0.5;stroke-width:0.8;"/>
     </g>
     <g id="line2d_20">
      <g>
       <use style="stroke:#000000;stroke-width:0.8;" x="507.421488" xlink:href="#m16982f07ce" y="676.8"/>
      </g>
     </g>
     <g id="text_10">
      <!-- 21K -->
      <g transform="translate(492.421488 697.55)scale(0.2 -0.2)">
       <defs>
        <path d="M 4.6875 3.90625 
Q 5.078125 9.765625 10.15625 14.453125 
Q 15.234375 19.140625 23.046875 29.09375 
Q 30.859375 39.0625 33.203125 44.53125 
Q 35.546875 50 34.953125 53.90625 
Q 34.375 57.8125 31.25 60.34375 
Q 28.125 62.890625 24.015625 62.5 
Q 19.921875 62.109375 16.203125 59.375 
Q 12.5 56.640625 10.546875 51.171875 
L 3.125 52.34375 
Q 6.25 61.328125 11.125 65.421875 
Q 16.015625 69.53125 22.65625 69.921875 
Q 26.5625 70.3125 29.6875 69.71875 
Q 32.8125 69.140625 36.125 66.984375 
Q 39.453125 64.84375 41.59375 60.546875 
Q 43.75 56.25 43.15625 50.1875 
Q 42.578125 44.140625 37.109375 35.734375 
Q 31.640625 27.34375 16.015625 9.375 
L 44.140625 9.375 
L 44.140625 2.34375 
L 4.6875 2.34375 
z
" id="SimHei-50"/>
       </defs>
       <use xlink:href="#SimHei-50"/>
       <use x="50" xlink:href="#SimHei-49"/>
       <use x="100" xlink:href="#SimHei-75"/>
      </g>
     </g>
    </g>
    <g id="xtick_11">
     <g id="line2d_21">
      <path clip-path="url(#pca35ef8d6e)" d="M 538.165289 676.8 
L 538.165289 172.8 
" style="fill:none;stroke:#b0b0b0;stroke-linecap:square;stroke-opacity:0.5;stroke-width:0.8;"/>
     </g>
     <g id="line2d_22">
      <g>
       <use style="stroke:#000000;stroke-width:0.8;" x="538.165289" xlink:href="#m16982f07ce" y="676.8"/>
      </g>
     </g>
     <g id="text_11">
      <!-- 23K -->
      <g transform="translate(523.165289 697.55)scale(0.2 -0.2)">
       <use xlink:href="#SimHei-50"/>
       <use x="50" xlink:href="#SimHei-51"/>
       <use x="100" xlink:href="#SimHei-75"/>
      </g>
     </g>
    </g>
    <g id="xtick_12">
     <g id="line2d_23">
      <path clip-path="url(#pca35ef8d6e)" d="M 568.909091 676.8 
L 568.909091 172.8 
" style="fill:none;stroke:#b0b0b0;stroke-linecap:square;stroke-opacity:0.5;stroke-width:0.8;"/>
     </g>
     <g id="line2d_24">
      <g>
       <use style="stroke:#000000;stroke-width:0.8;" x="568.909091" xlink:href="#m16982f07ce" y="676.8"/>
      </g>
     </g>
     <g id="text_12">
      <!-- 25K -->
      <g transform="translate(553.909091 697.55)scale(0.2 -0.2)">
       <use xlink:href="#SimHei-50"/>
       <use x="50" xlink:href="#SimHei-53"/>
       <use x="100" xlink:href="#SimHei-75"/>
      </g>
     </g>
    </g>
    <g id="xtick_13">
     <g id="line2d_25">
      <path clip-path="url(#pca35ef8d6e)" d="M 599.652893 676.8 
L 599.652893 172.8 
" style="fill:none;stroke:#b0b0b0;stroke-linecap:square;stroke-opacity:0.5;stroke-width:0.8;"/>
     </g>
     <g id="line2d_26">
      <g>
       <use style="stroke:#000000;stroke-width:0.8;" x="599.652893" xlink:href="#m16982f07ce" y="676.8"/>
      </g>
     </g>
     <g id="text_13">
      <!-- 27K -->
      <g transform="translate(584.652893 697.55)scale(0.2 -0.2)">
       <use xlink:href="#SimHei-50"/>
       <use x="50" xlink:href="#SimHei-55"/>
       <use x="100" xlink:href="#SimHei-75"/>
      </g>
     </g>
    </g>
    <g id="xtick_14">
     <g id="line2d_27">
      <path clip-path="url(#pca35ef8d6e)" d="M 630.396694 676.8 
L 630.396694 172.8 
" style="fill:none;stroke:#b0b0b0;stroke-linecap:square;stroke-opacity:0.5;stroke-width:0.8;"/>
     </g>
     <g id="line2d_28">
      <g>
       <use style="stroke:#000000;stroke-width:0.8;" x="630.396694" xlink:href="#m16982f07ce" y="676.8"/>
      </g>
     </g>
     <g id="text_14">
      <!-- 29K -->
      <g transform="translate(615.396694 697.55)scale(0.2 -0.2)">
       <use xlink:href="#SimHei-50"/>
       <use x="50" xlink:href="#SimHei-57"/>
       <use x="100" xlink:href="#SimHei-75"/>
      </g>
     </g>
    </g>
    <g id="xtick_15">
     <g id="line2d_29">
      <path clip-path="url(#pca35ef8d6e)" d="M 661.140496 676.8 
L 661.140496 172.8 
" style="fill:none;stroke:#b0b0b0;stroke-linecap:square;stroke-opacity:0.5;stroke-width:0.8;"/>
     </g>
     <g id="line2d_30">
      <g>
       <use style="stroke:#000000;stroke-width:0.8;" x="661.140496" xlink:href="#m16982f07ce" y="676.8"/>
      </g>
     </g>
     <g id="text_15">
      <!-- 31K -->
      <g transform="translate(646.140496 697.55)scale(0.2 -0.2)">
       <use xlink:href="#SimHei-51"/>
       <use x="50" xlink:href="#SimHei-49"/>
       <use x="100" xlink:href="#SimHei-75"/>
      </g>
     </g>
    </g>
    <g id="xtick_16">
     <g id="line2d_31">
      <path clip-path="url(#pca35ef8d6e)" d="M 691.884298 676.8 
L 691.884298 172.8 
" style="fill:none;stroke:#b0b0b0;stroke-linecap:square;stroke-opacity:0.5;stroke-width:0.8;"/>
     </g>
     <g id="line2d_32">
      <g>
       <use style="stroke:#000000;stroke-width:0.8;" x="691.884298" xlink:href="#m16982f07ce" y="676.8"/>
      </g>
     </g>
     <g id="text_16">
      <!-- 33K -->
      <g transform="translate(676.884298 697.55)scale(0.2 -0.2)">
       <use xlink:href="#SimHei-51"/>
       <use x="50" xlink:href="#SimHei-51"/>
       <use x="100" xlink:href="#SimHei-75"/>
      </g>
     </g>
    </g>
    <g id="xtick_17">
     <g id="line2d_33">
      <path clip-path="url(#pca35ef8d6e)" d="M 722.628099 676.8 
L 722.628099 172.8 
" style="fill:none;stroke:#b0b0b0;stroke-linecap:square;stroke-opacity:0.5;stroke-width:0.8;"/>
     </g>
     <g id="line2d_34">
      <g>
       <use style="stroke:#000000;stroke-width:0.8;" x="722.628099" xlink:href="#m16982f07ce" y="676.8"/>
      </g>
     </g>
     <g id="text_17">
      <!-- 35K -->
      <g transform="translate(707.628099 697.55)scale(0.2 -0.2)">
       <use xlink:href="#SimHei-51"/>
       <use x="50" xlink:href="#SimHei-53"/>
       <use x="100" xlink:href="#SimHei-75"/>
      </g>
     </g>
    </g>
    <g id="xtick_18">
     <g id="line2d_35">
      <path clip-path="url(#pca35ef8d6e)" d="M 753.371901 676.8 
L 753.371901 172.8 
" style="fill:none;stroke:#b0b0b0;stroke-linecap:square;stroke-opacity:0.5;stroke-width:0.8;"/>
     </g>
     <g id="line2d_36">
      <g>
       <use style="stroke:#000000;stroke-width:0.8;" x="753.371901" xlink:href="#m16982f07ce" y="676.8"/>
      </g>
     </g>
     <g id="text_18">
      <!-- 37K -->
      <g transform="translate(738.371901 697.55)scale(0.2 -0.2)">
       <use xlink:href="#SimHei-51"/>
       <use x="50" xlink:href="#SimHei-55"/>
       <use x="100" xlink:href="#SimHei-75"/>
      </g>
     </g>
    </g>
    <g id="xtick_19">
     <g id="line2d_37">
      <path clip-path="url(#pca35ef8d6e)" d="M 784.115702 676.8 
L 784.115702 172.8 
" style="fill:none;stroke:#b0b0b0;stroke-linecap:square;stroke-opacity:0.5;stroke-width:0.8;"/>
     </g>
     <g id="line2d_38">
      <g>
       <use style="stroke:#000000;stroke-width:0.8;" x="784.115702" xlink:href="#m16982f07ce" y="676.8"/>
      </g>
     </g>
     <g id="text_19">
      <!-- 39K -->
      <g transform="translate(769.115702 697.55)scale(0.2 -0.2)">
       <use xlink:href="#SimHei-51"/>
       <use x="50" xlink:href="#SimHei-57"/>
       <use x="100" xlink:href="#SimHei-75"/>
      </g>
     </g>
    </g>
    <g id="xtick_20">
     <g id="line2d_39">
      <path clip-path="url(#pca35ef8d6e)" d="M 814.859504 676.8 
L 814.859504 172.8 
" style="fill:none;stroke:#b0b0b0;stroke-linecap:square;stroke-opacity:0.5;stroke-width:0.8;"/>
     </g>
     <g id="line2d_40">
      <g>
       <use style="stroke:#000000;stroke-width:0.8;" x="814.859504" xlink:href="#m16982f07ce" y="676.8"/>
      </g>
     </g>
     <g id="text_20">
      <!-- 41K -->
      <g transform="translate(799.859504 697.55)scale(0.2 -0.2)">
       <defs>
        <path d="M 31.25 17.1875 
L 1.171875 17.1875 
L 1.171875 23.828125 
L 32.8125 69.53125 
L 38.671875 69.53125 
L 38.671875 23.828125 
L 48.046875 23.828125 
L 48.046875 17.1875 
L 38.671875 17.1875 
L 38.671875 2.34375 
L 31.25 2.34375 
z
M 31.25 23.828125 
L 31.25 54.6875 
L 9.375 23.828125 
z
" id="SimHei-52"/>
       </defs>
       <use xlink:href="#SimHei-52"/>
       <use x="50" xlink:href="#SimHei-49"/>
       <use x="100" xlink:href="#SimHei-75"/>
      </g>
     </g>
    </g>
    <g id="xtick_21">
     <g id="line2d_41">
      <path clip-path="url(#pca35ef8d6e)" d="M 845.603306 676.8 
L 845.603306 172.8 
" style="fill:none;stroke:#b0b0b0;stroke-linecap:square;stroke-opacity:0.5;stroke-width:0.8;"/>
     </g>
     <g id="line2d_42">
      <g>
       <use style="stroke:#000000;stroke-width:0.8;" x="845.603306" xlink:href="#m16982f07ce" y="676.8"/>
      </g>
     </g>
     <g id="text_21">
      <!-- 43K -->
      <g transform="translate(830.603306 697.55)scale(0.2 -0.2)">
       <use xlink:href="#SimHei-52"/>
       <use x="50" xlink:href="#SimHei-51"/>
       <use x="100" xlink:href="#SimHei-75"/>
      </g>
     </g>
    </g>
    <g id="text_22">
     <!-- 最高工资 -->
     <g transform="translate(698 719.909375)scale(0.2 -0.2)">
      <defs>
       <path d="M 7.421875 4.296875 
Q 10.546875 4.6875 17.1875 5.46875 
L 17.1875 38.28125 
Q 12.109375 38.28125 6.640625 37.890625 
L 6.640625 44.53125 
Q 12.109375 44.140625 17.578125 44.140625 
L 78.515625 44.140625 
Q 85.546875 44.140625 92.1875 44.53125 
L 92.1875 37.890625 
Q 85.546875 38.28125 78.515625 38.28125 
L 47.65625 38.28125 
L 47.65625 10.546875 
L 53.125 12.109375 
Q 53.125 8.59375 53.515625 6.25 
Q 50.390625 5.46875 47.65625 5.078125 
Q 47.65625 -1.953125 48.046875 -8.59375 
L 40.625 -8.59375 
Q 41.015625 -1.953125 41.015625 3.90625 
Q 36.71875 3.125 28.3125 1.359375 
Q 19.921875 -0.390625 10.15625 -2.734375 
Q 8.984375 1.5625 7.421875 4.296875 
z
M 79.6875 76.953125 
Q 79.296875 71.875 79.296875 67.578125 
L 79.296875 60.546875 
Q 79.296875 56.25 79.6875 50.78125 
L 19.921875 50.78125 
Q 20.3125 56.25 20.3125 60.546875 
L 20.3125 67.578125 
Q 20.3125 71.875 19.921875 76.953125 
L 79.6875 76.953125 
z
M 51.5625 32.03125 
Q 58.59375 31.640625 64.453125 31.640625 
L 83.984375 31.640625 
Q 79.6875 15.234375 73.828125 6.25 
Q 83.59375 0 92.578125 -1.5625 
Q 89.0625 -4.296875 88.28125 -7.8125 
Q 78.515625 -4.6875 69.921875 2.34375 
Q 64.84375 -3.125 56.25 -8.984375 
Q 54.6875 -6.640625 50.78125 -4.296875 
Q 58.984375 -1.5625 64.84375 5.46875 
Q 58.203125 12.109375 54.6875 26.171875 
L 51.5625 26.171875 
z
M 71.875 66.40625 
L 71.875 71.875 
L 27.34375 71.875 
L 27.34375 66.40625 
z
M 71.875 55.859375 
L 71.875 60.9375 
L 27.34375 60.9375 
L 27.34375 55.859375 
z
M 60.9375 26.171875 
Q 62.5 16.796875 68.75 9.765625 
Q 73.4375 16.40625 75.78125 26.171875 
L 60.9375 26.171875 
z
M 41.015625 19.53125 
L 41.015625 26.171875 
L 23.828125 26.171875 
L 23.828125 19.53125 
z
M 41.015625 8.984375 
L 41.015625 14.453125 
L 23.828125 14.453125 
L 23.828125 6.640625 
z
M 41.015625 31.640625 
L 41.015625 38.28125 
L 23.828125 38.28125 
L 23.828125 31.640625 
z
" id="SimHei-26368"/>
       <path d="M 91.015625 -0.390625 
Q 91.40625 -6.25 86.71875 -7.8125 
Q 82.03125 -9.375 77.734375 -9.765625 
Q 76.171875 -5.078125 73.828125 -1.5625 
Q 77.734375 -1.5625 80.859375 -1.359375 
Q 83.984375 -1.171875 83.59375 3.90625 
L 83.59375 28.515625 
L 17.1875 28.515625 
L 17.1875 -8.984375 
L 9.375 -8.984375 
Q 9.765625 -3.515625 9.765625 13.28125 
Q 9.765625 30.46875 9.375 34.375 
L 91.40625 34.375 
Q 91.015625 28.90625 91.015625 22.265625 
z
M 76.953125 59.375 
Q 76.5625 54.296875 76.5625 49.609375 
Q 76.5625 45.3125 76.953125 40.625 
L 21.875 40.625 
Q 22.265625 44.140625 22.265625 49.609375 
Q 22.265625 55.078125 21.875 59.375 
L 76.953125 59.375 
z
M 70.3125 21.875 
Q 69.921875 17.578125 69.921875 12.5 
Q 69.921875 7.8125 70.3125 3.125 
L 30.46875 3.125 
Q 31.25 7.8125 31.25 12.5 
Q 31.25 17.578125 30.46875 21.875 
L 70.3125 21.875 
z
M 6.640625 71.875 
Q 11.71875 71.484375 17.578125 71.484375 
L 45.703125 71.484375 
Q 44.53125 76.171875 42.96875 79.6875 
Q 47.65625 80.078125 52.34375 81.25 
Q 53.125 77.34375 55.078125 71.484375 
L 82.03125 71.484375 
Q 87.5 71.484375 93.359375 71.875 
L 93.359375 64.84375 
Q 87.5 65.234375 78.90625 65.234375 
L 17.96875 65.234375 
Q 11.71875 65.234375 6.640625 64.84375 
z
M 69.53125 46.484375 
L 69.53125 53.515625 
L 29.6875 53.515625 
L 29.6875 46.484375 
z
M 62.890625 8.59375 
L 62.890625 16.40625 
L 37.5 16.40625 
L 37.5 8.59375 
z
" id="SimHei-39640"/>
       <path d="M 69.921875 73.046875 
Q 79.296875 73.046875 87.109375 73.4375 
L 87.109375 65.625 
Q 79.296875 66.015625 69.921875 66.015625 
L 53.90625 66.015625 
L 53.90625 4.296875 
L 79.296875 4.296875 
Q 88.28125 4.296875 95.703125 4.6875 
L 95.703125 -3.125 
Q 88.28125 -2.734375 79.6875 -2.734375 
L 19.140625 -2.734375 
Q 10.546875 -2.734375 4.296875 -3.125 
L 4.296875 4.6875 
Q 10.9375 4.296875 19.53125 4.296875 
L 45.3125 4.296875 
L 45.3125 66.015625 
L 29.6875 66.015625 
Q 19.53125 66.015625 12.109375 65.625 
L 12.109375 73.4375 
Q 19.53125 73.046875 29.6875 73.046875 
z
" id="SimHei-24037"/>
       <path d="M 82.8125 33.59375 
Q 82.421875 28.515625 82.421875 22.65625 
Q 82.421875 16.796875 82.8125 8.984375 
L 75 8.984375 
L 75 26.953125 
L 26.5625 26.953125 
L 26.5625 6.640625 
L 18.75 6.640625 
Q 19.140625 15.625 19.140625 21.484375 
Q 19.140625 27.734375 18.75 33.59375 
L 82.8125 33.59375 
z
M 66.015625 63.671875 
Q 63.28125 58.984375 65.625 55.65625 
Q 67.96875 52.34375 72.0625 49.40625 
Q 76.171875 46.484375 82.21875 44.53125 
Q 88.28125 42.578125 95.703125 42.1875 
Q 92.578125 37.890625 91.015625 33.984375 
Q 81.25 35.9375 73.625 39.84375 
Q 66.015625 43.75 60.9375 52.34375 
Q 57.421875 43.359375 50.78125 39.84375 
Q 44.140625 36.328125 36.328125 33.984375 
Q 33.203125 37.5 30.078125 40.234375 
Q 46.484375 43.359375 51.5625 49.609375 
Q 56.640625 55.859375 57.03125 64.84375 
L 66.015625 63.671875 
z
M 48.828125 66.40625 
Q 44.140625 60.15625 39.84375 57.03125 
Q 37.109375 59.765625 33.984375 61.71875 
Q 38.671875 64.84375 42.765625 70.109375 
Q 46.875 75.390625 49.21875 81.25 
Q 52.734375 79.6875 57.8125 78.90625 
Q 55.859375 75.390625 53.125 72.65625 
L 89.84375 72.65625 
Q 88.671875 70.3125 82.8125 57.421875 
Q 78.125 58.59375 75 58.984375 
Q 76.953125 63.28125 78.515625 66.40625 
L 48.828125 66.40625 
z
M 55.078125 21.484375 
Q 53.125 17.1875 52.140625 12.890625 
Q 51.171875 8.59375 47.0625 4.09375 
Q 42.96875 -0.390625 35.15625 -4.296875 
Q 27.34375 -8.203125 12.5 -10.546875 
Q 11.328125 -6.640625 7.8125 -3.125 
Q 19.140625 -2.734375 26.75 -0.1875 
Q 34.375 2.34375 38.28125 5.46875 
Q 42.1875 8.59375 43.9375 13.078125 
Q 45.703125 17.578125 45.703125 22.65625 
Q 50.390625 21.875 55.078125 21.484375 
z
M 59.765625 10.9375 
Q 67.1875 8.203125 74.21875 5.46875 
Q 81.25 2.734375 91.015625 -1.5625 
Q 88.671875 -4.6875 86.71875 -9.375 
Q 79.296875 -5.078125 72.0625 -1.953125 
Q 64.84375 1.171875 56.640625 3.90625 
Q 58.59375 7.03125 59.765625 10.9375 
z
M 32.421875 51.953125 
Q 22.65625 42.96875 13.671875 32.03125 
Q 9.765625 36.328125 7.421875 37.890625 
Q 19.921875 47.65625 26.953125 56.640625 
Q 28.90625 54.6875 32.421875 51.953125 
z
M 26.5625 62.109375 
Q 20.3125 66.796875 9.765625 73.046875 
Q 12.5 75.78125 14.453125 78.515625 
Q 17.96875 76.171875 31.25 67.96875 
Q 28.90625 65.625 26.5625 62.109375 
z
" id="SimHei-36164"/>
      </defs>
      <use xlink:href="#SimHei-26368"/>
      <use x="100" xlink:href="#SimHei-39640"/>
      <use x="200" xlink:href="#SimHei-24037"/>
      <use x="300" xlink:href="#SimHei-36164"/>
     </g>
    </g>
   </g>
   <g id="matplotlib.axis_2">
    <g id="ytick_1">
     <g id="line2d_43">
      <path clip-path="url(#pca35ef8d6e)" d="M 180 676.8 
L 1296 676.8 
" style="fill:none;stroke:#b0b0b0;stroke-linecap:square;stroke-opacity:0.5;stroke-width:0.8;"/>
     </g>
     <g id="line2d_44">
      <defs>
       <path d="M 0 0 
L -3.5 0 
" id="m3344208535" style="stroke:#000000;stroke-width:0.8;"/>
      </defs>
      <g>
       <use style="stroke:#000000;stroke-width:0.8;" x="180" xlink:href="#m3344208535" y="676.8"/>
      </g>
     </g>
     <g id="text_23">
      <!-- 0 -->
      <g transform="translate(163 683.675)scale(0.2 -0.2)">
       <defs>
        <path d="M 3.125 29.296875 
Q 3.90625 50 6.4375 56.046875 
Q 8.984375 62.109375 13.671875 66.015625 
Q 18.359375 69.921875 25.1875 69.921875 
Q 32.03125 69.921875 37.109375 64.25 
Q 42.1875 58.59375 43.75 50 
Q 45.3125 41.40625 44.71875 30.265625 
Q 44.140625 19.140625 40.8125 12.109375 
Q 37.5 5.078125 30.859375 2.34375 
Q 24.21875 -0.390625 17.578125 2.921875 
Q 10.9375 6.25 8.203125 11.71875 
Q 5.46875 17.1875 4.296875 23.234375 
Q 3.125 29.296875 3.90625 50 
z
M 12.890625 52.734375 
Q 10.546875 31.25 12.5 22.84375 
Q 14.453125 14.453125 18.9375 10.9375 
Q 23.4375 7.421875 28.125 9.5625 
Q 32.8125 11.71875 34.953125 18.15625 
Q 37.109375 24.609375 37.109375 32.21875 
Q 37.109375 39.84375 36.515625 46.09375 
Q 35.9375 52.34375 33 57.421875 
Q 30.078125 62.5 25.1875 62.6875 
Q 20.3125 62.890625 16.59375 57.8125 
Q 12.890625 52.734375 10.546875 31.25 
z
" id="SimHei-48"/>
       </defs>
       <use xlink:href="#SimHei-48"/>
      </g>
     </g>
    </g>
    <g id="ytick_2">
     <g id="line2d_45">
      <path clip-path="url(#pca35ef8d6e)" d="M 180 600.609524 
L 1296 600.609524 
" style="fill:none;stroke:#b0b0b0;stroke-linecap:square;stroke-opacity:0.5;stroke-width:0.8;"/>
     </g>
     <g id="line2d_46">
      <g>
       <use style="stroke:#000000;stroke-width:0.8;" x="180" xlink:href="#m3344208535" y="600.609524"/>
      </g>
     </g>
     <g id="text_24">
      <!-- 20 -->
      <g transform="translate(153 607.484524)scale(0.2 -0.2)">
       <use xlink:href="#SimHei-50"/>
       <use x="50" xlink:href="#SimHei-48"/>
      </g>
     </g>
    </g>
    <g id="ytick_3">
     <g id="line2d_47">
      <path clip-path="url(#pca35ef8d6e)" d="M 180 524.419048 
L 1296 524.419048 
" style="fill:none;stroke:#b0b0b0;stroke-linecap:square;stroke-opacity:0.5;stroke-width:0.8;"/>
     </g>
     <g id="line2d_48">
      <g>
       <use style="stroke:#000000;stroke-width:0.8;" x="180" xlink:href="#m3344208535" y="524.419048"/>
      </g>
     </g>
     <g id="text_25">
      <!-- 40 -->
      <g transform="translate(153 531.294048)scale(0.2 -0.2)">
       <use xlink:href="#SimHei-52"/>
       <use x="50" xlink:href="#SimHei-48"/>
      </g>
     </g>
    </g>
    <g id="ytick_4">
     <g id="line2d_49">
      <path clip-path="url(#pca35ef8d6e)" d="M 180 448.228571 
L 1296 448.228571 
" style="fill:none;stroke:#b0b0b0;stroke-linecap:square;stroke-opacity:0.5;stroke-width:0.8;"/>
     </g>
     <g id="line2d_50">
      <g>
       <use style="stroke:#000000;stroke-width:0.8;" x="180" xlink:href="#m3344208535" y="448.228571"/>
      </g>
     </g>
     <g id="text_26">
      <!-- 60 -->
      <g transform="translate(153 455.103571)scale(0.2 -0.2)">
       <defs>
        <path d="M 3.515625 19.53125 
Q 4.296875 30.859375 6.046875 34.765625 
Q 7.8125 38.671875 11.328125 44.53125 
L 27.34375 69.53125 
L 36.328125 69.53125 
L 19.921875 43.75 
Q 30.46875 46.484375 36.71875 42.96875 
Q 42.96875 39.453125 45.109375 34.953125 
Q 47.265625 30.46875 47.453125 25.1875 
Q 47.65625 19.921875 45.890625 14.84375 
Q 44.140625 9.765625 39.640625 5.65625 
Q 35.15625 1.5625 27.140625 1.171875 
Q 19.140625 0.78125 13.46875 4.09375 
Q 7.8125 7.421875 5.65625 13.46875 
Q 3.515625 19.53125 4.296875 30.859375 
z
M 12.5 16.015625 
Q 19.53125 8.59375 25.390625 8.203125 
Q 31.25 7.8125 35.15625 12.109375 
Q 39.0625 16.40625 39.0625 24.609375 
Q 39.0625 32.8125 34.171875 35.9375 
Q 29.296875 39.0625 23.234375 38.28125 
Q 17.1875 37.5 14.453125 32.421875 
Q 11.71875 27.34375 12.109375 21.671875 
Q 12.5 16.015625 19.53125 8.59375 
z
" id="SimHei-54"/>
       </defs>
       <use xlink:href="#SimHei-54"/>
       <use x="50" xlink:href="#SimHei-48"/>
      </g>
     </g>
    </g>
    <g id="ytick_5">
     <g id="line2d_51">
      <path clip-path="url(#pca35ef8d6e)" d="M 180 372.038095 
L 1296 372.038095 
" style="fill:none;stroke:#b0b0b0;stroke-linecap:square;stroke-opacity:0.5;stroke-width:0.8;"/>
     </g>
     <g id="line2d_52">
      <g>
       <use style="stroke:#000000;stroke-width:0.8;" x="180" xlink:href="#m3344208535" y="372.038095"/>
      </g>
     </g>
     <g id="text_27">
      <!-- 80 -->
      <g transform="translate(153 378.913095)scale(0.2 -0.2)">
       <defs>
        <path d="M 2.734375 16.796875 
Q 2.734375 26.171875 5.078125 30.65625 
Q 7.421875 35.15625 12.890625 37.890625 
Q 8.203125 40.625 6.640625 43.9375 
Q 5.078125 47.265625 4.875 51.5625 
Q 4.6875 55.859375 6.046875 58.984375 
Q 7.421875 62.109375 10.15625 64.84375 
Q 12.890625 67.578125 16.203125 68.546875 
Q 19.53125 69.53125 23.4375 69.53125 
Q 27.34375 69.53125 30.46875 68.75 
Q 33.59375 67.96875 37.109375 65.421875 
Q 40.625 62.890625 42.1875 58.203125 
Q 43.75 53.515625 41.984375 47.265625 
Q 40.234375 41.015625 32.8125 37.5 
Q 39.453125 35.546875 42.1875 31.4375 
Q 44.921875 27.34375 44.921875 21.484375 
Q 44.921875 15.625 43.15625 12.109375 
Q 41.40625 8.59375 39.25 6.25 
Q 37.109375 3.90625 33.390625 2.53125 
Q 29.6875 1.171875 24.015625 1.171875 
Q 18.359375 1.171875 14.25 2.53125 
Q 10.15625 3.90625 7.421875 6.640625 
Q 4.6875 9.375 3.703125 13.078125 
Q 2.734375 16.796875 2.734375 26.171875 
z
M 10.9375 26.5625 
Q 10.546875 17.1875 12.296875 13.671875 
Q 14.0625 10.15625 18.75 9.171875 
Q 23.4375 8.203125 28.515625 9.375 
Q 33.59375 10.546875 35.546875 14.84375 
Q 37.5 19.140625 36.90625 23.4375 
Q 36.328125 27.734375 32.03125 30.65625 
Q 27.734375 33.59375 22.65625 33.203125 
Q 17.578125 32.8125 14.25 29.6875 
Q 10.9375 26.5625 10.546875 17.1875 
z
M 12.109375 56.25 
Q 12.109375 48.4375 14.84375 44.921875 
Q 17.578125 41.40625 23.4375 41.40625 
Q 29.296875 41.40625 32.21875 44.921875 
Q 35.15625 48.4375 34.953125 53.3125 
Q 34.765625 58.203125 31.4375 60.546875 
Q 28.125 62.890625 22.453125 62.5 
Q 16.796875 62.109375 14.453125 59.171875 
Q 12.109375 56.25 12.109375 48.4375 
z
" id="SimHei-56"/>
       </defs>
       <use xlink:href="#SimHei-56"/>
       <use x="50" xlink:href="#SimHei-48"/>
      </g>
     </g>
    </g>
    <g id="ytick_6">
     <g id="line2d_53">
      <path clip-path="url(#pca35ef8d6e)" d="M 180 295.847619 
L 1296 295.847619 
" style="fill:none;stroke:#b0b0b0;stroke-linecap:square;stroke-opacity:0.5;stroke-width:0.8;"/>
     </g>
     <g id="line2d_54">
      <g>
       <use style="stroke:#000000;stroke-width:0.8;" x="180" xlink:href="#m3344208535" y="295.847619"/>
      </g>
     </g>
     <g id="text_28">
      <!-- 100 -->
      <g transform="translate(143 302.722619)scale(0.2 -0.2)">
       <use xlink:href="#SimHei-49"/>
       <use x="50" xlink:href="#SimHei-48"/>
       <use x="100" xlink:href="#SimHei-48"/>
      </g>
     </g>
    </g>
    <g id="ytick_7">
     <g id="line2d_55">
      <path clip-path="url(#pca35ef8d6e)" d="M 180 219.657143 
L 1296 219.657143 
" style="fill:none;stroke:#b0b0b0;stroke-linecap:square;stroke-opacity:0.5;stroke-width:0.8;"/>
     </g>
     <g id="line2d_56">
      <g>
       <use style="stroke:#000000;stroke-width:0.8;" x="180" xlink:href="#m3344208535" y="219.657143"/>
      </g>
     </g>
     <g id="text_29">
      <!-- 120 -->
      <g transform="translate(143 226.532143)scale(0.2 -0.2)">
       <use xlink:href="#SimHei-49"/>
       <use x="50" xlink:href="#SimHei-50"/>
       <use x="100" xlink:href="#SimHei-48"/>
      </g>
     </g>
    </g>
    <g id="text_30">
     <!-- 公司数量 -->
     <g transform="translate(136.5 464.8)rotate(-90)scale(0.2 -0.2)">
      <defs>
       <path d="M 69.53125 8.59375 
Q 66.40625 14.0625 60.9375 21.09375 
Q 64.84375 23.4375 67.578125 25.78125 
Q 73.4375 17.1875 78.515625 8.78125 
Q 83.59375 0.390625 86.328125 -4.6875 
Q 82.03125 -7.03125 78.90625 -8.984375 
Q 76.5625 -4.296875 72.65625 2.34375 
Q 46.484375 -1.171875 35.734375 -2.734375 
Q 25 -4.296875 20.3125 -6.25 
Q 19.140625 -2.34375 16.015625 2.34375 
Q 19.921875 3.90625 23.4375 7.8125 
Q 26.953125 11.71875 33.78125 24.21875 
Q 40.625 36.71875 43.359375 46.09375 
Q 49.21875 42.578125 52.34375 41.796875 
Q 48.046875 35.15625 40.8125 21.875 
Q 33.59375 8.59375 30.46875 4.6875 
Q 48.4375 6.25 69.53125 8.59375 
z
M 62.890625 81.25 
Q 70.3125 61.328125 78.703125 51.171875 
Q 87.109375 41.015625 95.703125 36.328125 
Q 90.234375 33.59375 88.28125 29.6875 
Q 76.5625 39.453125 68.359375 52.34375 
Q 60.15625 65.234375 55.078125 78.515625 
Q 59.375 79.296875 62.890625 81.25 
z
M 42.578125 74.609375 
Q 35.15625 58.984375 27.34375 47.265625 
Q 19.53125 35.546875 11.328125 27.734375 
Q 8.203125 32.03125 4.6875 33.984375 
Q 12.890625 40.234375 21.875 53.125 
Q 30.859375 66.015625 34.765625 78.125 
Q 37.5 76.171875 42.578125 74.609375 
z
" id="SimHei-20844"/>
       <path d="M 64.84375 39.453125 
Q 64.453125 33.984375 64.453125 27.734375 
L 64.453125 19.140625 
Q 64.453125 12.890625 64.84375 6.25 
L 56.25 6.25 
L 56.25 11.328125 
L 24.21875 11.328125 
L 24.21875 0.78125 
L 15.625 0.78125 
Q 16.40625 7.8125 16.40625 13.28125 
L 16.40625 27.734375 
Q 16.40625 32.8125 15.625 39.453125 
L 64.84375 39.453125 
z
M 89.84375 76.5625 
Q 89.453125 67.96875 89.453125 61.328125 
L 89.453125 0.390625 
Q 89.0625 -4.6875 84.171875 -6.4375 
Q 79.296875 -8.203125 69.921875 -9.375 
Q 69.921875 -5.859375 66.015625 0 
Q 76.171875 0 78.515625 0.78125 
Q 80.859375 1.5625 80.859375 6.640625 
L 80.859375 69.921875 
L 26.953125 69.921875 
Q 19.921875 69.921875 11.71875 69.53125 
L 11.71875 76.953125 
Q 19.921875 76.5625 26.5625 76.5625 
z
M 56.25 17.578125 
L 56.25 33.203125 
L 24.21875 33.203125 
L 24.21875 17.578125 
z
M 57.8125 57.8125 
Q 62.890625 57.8125 71.484375 58.203125 
L 71.484375 50.390625 
Q 63.28125 50.78125 58.203125 50.78125 
L 21.875 50.78125 
Q 14.453125 50.78125 6.640625 50.390625 
L 6.640625 58.203125 
Q 14.453125 57.8125 21.875 57.8125 
z
" id="SimHei-21496"/>
       <path d="M 70.703125 76.953125 
Q 69.921875 75 68.75 71.671875 
Q 67.578125 68.359375 65.234375 59.765625 
L 83.203125 59.765625 
Q 87.109375 59.765625 92.578125 60.15625 
L 92.578125 53.125 
Q 88.28125 53.515625 85.9375 53.515625 
Q 85.9375 47.265625 83.78125 33.78125 
Q 81.640625 20.3125 76.171875 10.546875 
Q 80.078125 5.859375 84.953125 2.140625 
Q 89.84375 -1.5625 94.140625 -3.125 
Q 89.453125 -6.640625 87.890625 -9.765625 
Q 83.203125 -7.03125 79.296875 -3.515625 
Q 75.390625 0 71.484375 5.078125 
Q 67.1875 0.390625 62.296875 -2.921875 
Q 57.421875 -6.25 50 -10.15625 
Q 48.046875 -6.640625 44.53125 -4.6875 
Q 50.390625 -2.34375 57.03125 1.953125 
Q 63.671875 6.25 67.1875 10.546875 
Q 64.453125 16.015625 61.90625 22.265625 
Q 59.375 28.515625 57.421875 38.671875 
Q 56.25 35.546875 53.515625 30.46875 
Q 50.78125 32.03125 46.875 33.59375 
Q 53.125 44.53125 57.03125 57.421875 
Q 60.9375 70.3125 62.109375 79.6875 
Q 66.796875 77.734375 70.703125 76.953125 
z
M 32.8125 35.15625 
Q 31.25 33.59375 29.296875 30.078125 
L 50.78125 30.078125 
Q 48.4375 20.3125 42.578125 10.546875 
Q 48.828125 8.203125 52.34375 6.25 
Q 50.390625 3.515625 48.828125 0.390625 
Q 45.3125 2.734375 38.28125 5.078125 
Q 30.46875 -3.515625 11.328125 -10.15625 
Q 9.375 -5.859375 6.25 -4.296875 
Q 24.609375 0 31.25 7.421875 
Q 20.3125 10.15625 13.28125 12.109375 
Q 15.625 15.625 19.53125 23.828125 
Q 15.625 23.828125 6.640625 23.4375 
L 6.640625 30.46875 
Q 14.0625 30.078125 21.875 30.078125 
Q 23.4375 33.59375 24.21875 37.890625 
Q 28.515625 36.328125 32.8125 35.15625 
z
M 27.734375 61.71875 
Q 27.734375 71.09375 27.34375 79.6875 
L 35.15625 79.6875 
Q 34.765625 71.484375 34.765625 61.71875 
Q 48.046875 61.71875 53.515625 62.109375 
L 53.515625 55.078125 
Q 48.046875 55.46875 34.765625 55.46875 
Q 34.765625 44.140625 35.15625 37.890625 
L 27.34375 37.890625 
Q 27.734375 43.359375 27.734375 51.5625 
Q 25.78125 48.4375 20.3125 43.546875 
Q 14.84375 38.671875 10.15625 35.9375 
Q 8.203125 39.453125 4.296875 41.015625 
Q 7.8125 42.1875 13.671875 46.484375 
Q 19.53125 50.78125 22.65625 55.46875 
Q 14.84375 55.46875 7.8125 55.078125 
L 7.8125 62.109375 
Q 14.453125 61.71875 27.734375 61.71875 
z
M 62.109375 49.609375 
Q 65.625 26.5625 71.875 17.578125 
Q 75.78125 26.5625 77.140625 35.734375 
Q 78.515625 44.921875 78.90625 53.515625 
L 63.671875 53.515625 
L 62.109375 49.609375 
z
M 22.65625 15.625 
Q 27.34375 14.453125 35.546875 12.5 
Q 38.671875 16.40625 41.40625 23.828125 
L 26.953125 23.828125 
Q 25 19.921875 22.65625 15.625 
z
M 51.953125 75.390625 
Q 50 72.265625 48.828125 69.53125 
Q 47.65625 66.796875 45.703125 62.890625 
Q 42.578125 64.453125 39.453125 65.234375 
Q 42.578125 70.3125 45.3125 78.125 
Q 49.21875 76.171875 51.953125 75.390625 
z
M 40.234375 52.734375 
Q 45.3125 47.65625 50 42.578125 
Q 47.65625 40.625 44.921875 37.890625 
Q 39.453125 44.53125 35.9375 48.4375 
Q 38.28125 50.390625 40.234375 52.734375 
z
M 14.453125 78.125 
Q 19.921875 72.65625 23.4375 67.1875 
L 17.578125 63.671875 
Q 14.84375 69.140625 9.375 73.828125 
Q 12.890625 76.171875 14.453125 78.125 
z
" id="SimHei-25968"/>
       <path d="M 82.03125 39.0625 
Q 81.640625 34.375 81.640625 26.5625 
Q 81.640625 19.140625 82.03125 14.84375 
L 53.515625 14.84375 
L 53.515625 9.765625 
L 71.484375 9.765625 
Q 78.125 9.765625 83.984375 10.15625 
L 83.984375 4.296875 
Q 78.515625 4.6875 71.484375 4.6875 
L 53.515625 4.6875 
L 53.515625 -1.171875 
L 80.078125 -1.171875 
Q 86.328125 -1.171875 92.578125 -0.78125 
L 92.578125 -6.640625 
Q 86.328125 -6.25 80.078125 -6.25 
L 19.921875 -6.25 
Q 14.0625 -6.25 7.421875 -6.640625 
L 7.421875 -0.78125 
Q 14.453125 -0.78125 19.921875 -1.171875 
L 46.484375 -1.171875 
L 46.484375 4.6875 
L 26.953125 4.6875 
Q 21.09375 4.6875 15.234375 3.90625 
L 15.234375 10.15625 
Q 21.484375 9.765625 26.953125 9.765625 
L 46.484375 9.765625 
L 46.484375 14.84375 
L 17.96875 14.84375 
Q 18.359375 21.484375 18.359375 27.734375 
Q 18.359375 33.984375 17.96875 39.0625 
L 82.03125 39.0625 
z
M 81.25 77.34375 
Q 80.859375 71.484375 80.859375 66.40625 
Q 80.859375 61.328125 81.25 53.125 
L 18.75 53.125 
Q 19.140625 61.328125 19.140625 66.40625 
Q 19.140625 71.484375 18.75 77.34375 
L 81.25 77.34375 
z
M 76.5625 48.4375 
Q 85.9375 48.828125 93.75 49.21875 
L 93.75 42.96875 
Q 85.9375 43.359375 76.953125 43.359375 
L 25.78125 43.359375 
Q 15.234375 43.359375 5.078125 42.96875 
L 5.078125 49.21875 
Q 15.234375 48.828125 25.78125 48.4375 
z
M 73.828125 57.8125 
L 73.828125 62.890625 
L 26.171875 62.890625 
L 26.171875 57.8125 
z
M 73.828125 67.96875 
L 73.828125 72.65625 
L 26.171875 72.65625 
L 26.171875 67.96875 
z
M 74.21875 29.296875 
L 74.21875 33.984375 
L 53.515625 33.984375 
L 53.515625 29.296875 
z
M 46.484375 29.296875 
L 46.484375 33.984375 
L 25.78125 33.984375 
L 25.78125 29.296875 
z
M 46.484375 19.921875 
L 46.484375 24.21875 
L 25.78125 24.21875 
L 25.78125 19.921875 
z
M 74.21875 19.921875 
L 74.21875 24.21875 
L 53.515625 24.21875 
L 53.515625 19.921875 
z
" id="SimHei-37327"/>
      </defs>
      <use xlink:href="#SimHei-20844"/>
      <use x="100" xlink:href="#SimHei-21496"/>
      <use x="200" xlink:href="#SimHei-25968"/>
      <use x="300" xlink:href="#SimHei-37327"/>
     </g>
    </g>
   </g>
   <g id="patch_13">
    <path d="M 180 676.8 
L 180 172.8 
" style="fill:none;stroke:#000000;stroke-linecap:square;stroke-linejoin:miter;stroke-width:0.8;"/>
   </g>
   <g id="patch_14">
    <path d="M 1296 676.8 
L 1296 172.8 
" style="fill:none;stroke:#000000;stroke-linecap:square;stroke-linejoin:miter;stroke-width:0.8;"/>
   </g>
   <g id="patch_15">
    <path d="M 180 676.8 
L 1296 676.8 
" style="fill:none;stroke:#000000;stroke-linecap:square;stroke-linejoin:miter;stroke-width:0.8;"/>
   </g>
   <g id="patch_16">
    <path d="M 180 172.8 
L 1296 172.8 
" style="fill:none;stroke:#000000;stroke-linecap:square;stroke-linejoin:miter;stroke-width:0.8;"/>
   </g>
   <g id="text_31">
    <!-- 公司给出的最高工资 -->
    <g transform="translate(648 166.8)scale(0.2 -0.2)">
     <defs>
      <path d="M 78.125 -8.203125 
L 78.125 -1.171875 
L 55.078125 -1.171875 
L 55.078125 -9.765625 
L 46.875 -9.765625 
Q 47.265625 -5.078125 47.265625 8.984375 
Q 47.265625 23.046875 46.875 29.296875 
L 85.9375 29.296875 
Q 85.546875 24.21875 85.546875 11.328125 
Q 85.546875 -1.5625 85.9375 -8.203125 
z
M 71.09375 79.6875 
Q 69.53125 77.734375 68.359375 75 
Q 73.4375 64.0625 80.46875 56.640625 
Q 87.5 49.21875 96.875 44.921875 
Q 93.359375 41.796875 91.015625 37.890625 
Q 84.765625 41.40625 80.859375 45.3125 
L 80.859375 38.671875 
Q 76.5625 39.0625 73.046875 39.0625 
L 60.546875 39.0625 
Q 55.859375 39.0625 51.171875 38.671875 
L 51.171875 44.140625 
Q 48.4375 39.84375 42.96875 34.375 
Q 40.234375 38.28125 35.546875 41.015625 
Q 40.625 44.140625 44.921875 49.40625 
Q 49.21875 54.6875 52.140625 59.765625 
Q 55.078125 64.84375 57.21875 70.5 
Q 59.375 76.171875 60.9375 82.421875 
Q 66.015625 80.859375 71.09375 79.6875 
z
M 29.6875 77.34375 
Q 27.34375 75.390625 23.4375 65.421875 
Q 19.53125 55.46875 15.625 48.828125 
L 26.953125 49.21875 
Q 30.078125 54.296875 32.421875 62.5 
Q 36.71875 60.546875 41.40625 59.375 
Q 39.0625 57.03125 36.71875 52.921875 
Q 34.375 48.828125 29.484375 39.0625 
Q 24.609375 29.296875 21.875 25.390625 
Q 31.25 26.5625 38.671875 27.734375 
Q 37.109375 23.046875 36.71875 19.53125 
Q 32.03125 19.53125 25.578125 18.546875 
Q 19.140625 17.578125 12.5 16.015625 
Q 10.9375 20.703125 9.375 25 
Q 13.28125 25 16.796875 29.875 
Q 20.3125 34.765625 24.21875 42.578125 
Q 20.3125 42.578125 16.015625 41.984375 
Q 11.71875 41.40625 8.203125 40.234375 
Q 7.03125 43.75 5.078125 48.046875 
Q 8.203125 49.609375 12.296875 56.4375 
Q 16.40625 63.28125 20.703125 80.859375 
Q 25.390625 78.90625 29.6875 77.34375 
z
M 78.125 5.078125 
L 78.125 22.265625 
L 55.078125 22.265625 
L 55.078125 5.078125 
z
M 80.46875 45.703125 
Q 73.828125 51.5625 70.5 57.03125 
Q 67.1875 62.5 64.84375 67.96875 
Q 61.71875 62.109375 58.984375 56.640625 
Q 56.25 51.171875 52.34375 45.703125 
Q 55.859375 45.3125 60.546875 45.3125 
L 72.265625 45.3125 
Q 76.171875 45.703125 80.46875 45.703125 
z
M 7.421875 4.296875 
Q 14.0625 4.6875 22.265625 6.4375 
Q 30.46875 8.203125 39.0625 10.546875 
Q 38.28125 6.640625 38.671875 3.125 
Q 33.59375 1.953125 24.609375 -0.578125 
Q 15.625 -3.125 10.15625 -5.46875 
Q 8.984375 0 7.421875 4.296875 
z
" id="SimHei-32473"/>
      <path d="M 23.046875 71.09375 
Q 22.65625 66.015625 22.65625 61.71875 
L 22.65625 46.09375 
L 45.703125 46.09375 
L 45.703125 69.140625 
Q 45.703125 74.609375 45.3125 80.078125 
L 53.515625 80.078125 
Q 53.125 75.390625 53.125 69.140625 
L 53.125 46.09375 
L 76.5625 46.09375 
L 76.5625 60.546875 
Q 76.5625 66.796875 76.171875 70.703125 
L 84.375 70.703125 
Q 83.984375 66.796875 83.984375 60.15625 
L 83.984375 49.609375 
Q 83.984375 43.359375 84.375 39.453125 
L 53.125 39.453125 
L 53.125 3.515625 
L 80.078125 3.515625 
L 80.078125 19.921875 
Q 80.078125 25.78125 79.6875 30.078125 
L 87.890625 30.078125 
Q 87.5 25.78125 87.5 20.3125 
L 87.5 2.734375 
Q 87.5 -5.078125 87.890625 -10.15625 
L 80.078125 -10.15625 
L 80.078125 -3.125 
L 10.546875 -3.125 
Q 10.9375 1.5625 10.9375 8.203125 
L 10.9375 19.921875 
Q 10.9375 26.5625 10.546875 30.46875 
L 18.75 30.46875 
Q 18.359375 26.5625 18.359375 19.921875 
L 18.359375 3.515625 
L 45.703125 3.515625 
L 45.703125 39.453125 
L 14.84375 39.453125 
Q 15.234375 43.359375 15.234375 49.21875 
L 15.234375 61.328125 
Q 15.234375 66.40625 14.84375 71.09375 
L 23.046875 71.09375 
z
" id="SimHei-20986"/>
      <path d="M 32.8125 77.734375 
Q 30.859375 74.21875 27.34375 61.71875 
L 44.921875 61.71875 
Q 44.53125 55.078125 44.53125 44.921875 
L 44.53125 10.546875 
Q 44.53125 4.6875 44.921875 -6.25 
L 37.109375 -6.25 
L 37.109375 1.5625 
L 17.1875 1.5625 
L 17.1875 -7.03125 
L 9.375 -7.03125 
Q 9.765625 5.46875 9.765625 8.59375 
L 9.765625 44.53125 
Q 9.765625 55.078125 9.375 61.71875 
L 20.703125 61.71875 
Q 22.65625 70.703125 23.828125 80.46875 
Q 29.296875 78.515625 32.8125 77.734375 
z
M 91.015625 48.046875 
Q 90.625 24.21875 89.0625 2.734375 
Q 88.28125 -4.296875 81.640625 -6.640625 
Q 75 -8.984375 66.796875 -9.765625 
Q 66.40625 -5.46875 63.28125 -0.78125 
Q 71.09375 -1.171875 75.578125 -0.390625 
Q 80.078125 0.390625 81.25 3.125 
Q 82.421875 5.859375 83 19.140625 
Q 83.59375 32.421875 83.984375 56.25 
L 61.328125 56.25 
Q 58.203125 48.828125 52.34375 38.671875 
Q 49.609375 41.40625 45.703125 42.96875 
Q 49.21875 47.65625 52.34375 54.296875 
Q 55.46875 60.9375 57.8125 68.75 
Q 60.15625 76.5625 60.546875 80.859375 
Q 66.015625 78.515625 69.921875 77.34375 
Q 67.96875 74.21875 66.59375 70.5 
Q 65.234375 66.796875 63.671875 63.28125 
L 91.40625 63.28125 
Q 91.015625 55.078125 91.015625 48.046875 
z
M 37.109375 8.203125 
L 37.109375 28.90625 
L 17.1875 28.90625 
L 17.1875 8.203125 
z
M 37.109375 35.546875 
L 37.109375 55.078125 
L 17.1875 55.078125 
L 17.1875 35.546875 
z
M 67.96875 32.03125 
Q 70.3125 27.34375 73.4375 19.921875 
Q 70.703125 18.75 66.015625 16.015625 
Q 63.28125 23.4375 60.9375 28.703125 
Q 58.59375 33.984375 56.25 37.5 
Q 58.984375 39.0625 63.28125 41.40625 
z
" id="SimHei-30340"/>
     </defs>
     <use xlink:href="#SimHei-20844"/>
     <use x="100" xlink:href="#SimHei-21496"/>
     <use x="200" xlink:href="#SimHei-32473"/>
     <use x="300" xlink:href="#SimHei-20986"/>
     <use x="400" xlink:href="#SimHei-30340"/>
     <use x="500" xlink:href="#SimHei-26368"/>
     <use x="600" xlink:href="#SimHei-39640"/>
     <use x="700" xlink:href="#SimHei-24037"/>
     <use x="800" xlink:href="#SimHei-36164"/>
    </g>
   </g>
   <g id="legend_1">
    <g id="patch_17">
     <path d="M 759 240.39375 
L 1275 240.39375 
Q 1281 240.39375 1281 234.39375 
L 1281 193.8 
Q 1281 187.8 1275 187.8 
L 759 187.8 
Q 753 187.8 753 193.8 
L 753 234.39375 
Q 753 240.39375 759 240.39375 
z
" style="fill:#ffffff;opacity:0.8;stroke:#cccccc;stroke-linejoin:miter;"/>
    </g>
    <g id="patch_18">
     <path d="M 765 224.64375 
L 825 224.64375 
L 825 203.64375 
L 765 203.64375 
z
" style="fill:#0000ff;opacity:0.7;stroke:#ff0000;stroke-linejoin:miter;"/>
    </g>
    <g id="text_32">
     <!-- python公司给出的最高工资分布 -->
     <g transform="translate(849 224.64375)scale(0.3 -0.3)">
      <defs>
       <path d="M 44.140625 23.828125 
Q 44.140625 12.5 38.671875 6.640625 
Q 33.203125 0.78125 25.390625 0.78125 
Q 21.09375 0.78125 17.96875 2.53125 
Q 14.84375 4.296875 12.5 7.8125 
L 12.5 -12.5 
L 4.6875 -12.5 
L 4.6875 45.703125 
L 12.5 45.703125 
L 12.5 39.84375 
Q 14.84375 43.359375 17.96875 44.921875 
Q 21.09375 46.484375 25.390625 46.484375 
Q 33.203125 46.484375 38.671875 40.8125 
Q 44.140625 35.15625 44.140625 23.828125 
z
M 35.546875 23.828125 
Q 35.546875 31.25 32.609375 35.34375 
Q 29.6875 39.453125 23.828125 39.453125 
Q 19.140625 39.453125 15.8125 35.34375 
Q 12.5 31.25 12.5 23.828125 
Q 12.5 16.40625 15.8125 12.109375 
Q 19.140625 7.8125 23.828125 7.8125 
Q 29.6875 7.8125 32.609375 12.109375 
Q 35.546875 16.40625 35.546875 23.828125 
z
" id="SimHei-112"/>
       <path d="M 45.3125 45.703125 
L 27.34375 -1.5625 
Q 25.78125 -7.03125 22.65625 -9.765625 
Q 19.53125 -12.5 14.84375 -12.5 
Q 12.890625 -12.5 11.125 -12.296875 
Q 9.375 -12.109375 7.8125 -11.328125 
L 7.8125 -3.515625 
Q 9.375 -4.296875 10.9375 -4.6875 
Q 12.5 -5.078125 13.671875 -5.078125 
Q 16.796875 -5.078125 17.96875 -4.09375 
Q 19.140625 -3.125 20.3125 0.390625 
L 3.125 45.703125 
L 11.71875 45.703125 
L 24.21875 11.328125 
L 24.609375 11.328125 
L 36.71875 45.703125 
z
" id="SimHei-121"/>
       <path d="M 42.96875 3.125 
Q 41.015625 2.34375 38.46875 1.75 
Q 35.9375 1.171875 31.640625 1.171875 
Q 24.609375 1.171875 20.3125 5.078125 
Q 16.015625 8.984375 16.015625 16.015625 
L 16.015625 39.453125 
L 2.734375 39.453125 
L 2.734375 45.703125 
L 16.015625 45.703125 
L 16.015625 60.9375 
L 23.828125 60.9375 
L 23.828125 45.703125 
L 39.84375 45.703125 
L 39.84375 39.453125 
L 23.828125 39.453125 
L 23.828125 15.625 
Q 23.828125 12.5 25.390625 10.34375 
Q 26.953125 8.203125 31.25 8.203125 
Q 35.546875 8.203125 38.28125 8.984375 
Q 41.015625 9.765625 42.96875 10.9375 
z
" id="SimHei-116"/>
       <path d="M 43.75 1.953125 
L 35.9375 1.953125 
L 35.9375 30.078125 
Q 35.9375 34.765625 33.59375 37.5 
Q 31.25 40.234375 27.34375 40.234375 
Q 22.265625 40.234375 17.765625 34.953125 
Q 13.28125 29.6875 13.28125 21.875 
L 13.28125 1.953125 
L 5.46875 1.953125 
L 5.46875 68.75 
L 13.28125 68.75 
L 13.28125 37.5 
Q 16.40625 41.796875 20.109375 44.140625 
Q 23.828125 46.484375 29.6875 46.484375 
Q 36.71875 46.484375 40.234375 42.578125 
Q 43.75 38.671875 43.75 32.8125 
z
" id="SimHei-104"/>
       <path d="M 45.703125 23.828125 
Q 45.703125 13.671875 39.453125 7.421875 
Q 33.203125 1.171875 24.609375 1.171875 
Q 16.015625 1.171875 9.765625 7.421875 
Q 3.515625 13.671875 3.515625 23.828125 
Q 3.515625 33.984375 9.765625 40.234375 
Q 16.015625 46.484375 24.609375 46.484375 
Q 33.203125 46.484375 39.453125 40.234375 
Q 45.703125 33.984375 45.703125 23.828125 
z
M 37.109375 23.828125 
Q 37.109375 31.640625 33.203125 35.546875 
Q 29.296875 39.453125 24.609375 39.453125 
Q 19.921875 39.453125 16.015625 35.546875 
Q 12.109375 31.640625 12.109375 23.828125 
Q 12.109375 16.015625 16.015625 12.109375 
Q 19.921875 8.203125 24.609375 8.203125 
Q 29.296875 8.203125 33.203125 12.109375 
Q 37.109375 16.015625 37.109375 23.828125 
z
" id="SimHei-111"/>
       <path d="M 43.75 1.953125 
L 35.9375 1.953125 
L 35.9375 30.078125 
Q 35.9375 34.765625 33.59375 37.5 
Q 31.25 40.234375 27.34375 40.234375 
Q 22.265625 40.234375 17.765625 34.953125 
Q 13.28125 29.6875 13.28125 21.875 
L 13.28125 1.953125 
L 5.46875 1.953125 
L 5.46875 45.703125 
L 13.28125 45.703125 
L 13.28125 37.5 
Q 16.40625 41.796875 20.109375 44.140625 
Q 23.828125 46.484375 29.6875 46.484375 
Q 36.71875 46.484375 40.234375 42.578125 
Q 43.75 38.671875 43.75 32.8125 
z
" id="SimHei-110"/>
       <path d="M 15.625 -10.15625 
Q 12.890625 -5.859375 8.984375 -3.515625 
Q 15.234375 -1.171875 20.3125 2.140625 
Q 25.390625 5.46875 29.296875 10.34375 
Q 33.203125 15.234375 35.15625 21.09375 
Q 37.109375 26.953125 37.890625 35.546875 
Q 28.90625 35.546875 23.4375 35.15625 
L 23.4375 43.359375 
Q 29.6875 42.96875 39.453125 42.96875 
L 78.515625 42.96875 
Q 77.734375 37.109375 77.34375 32.8125 
L 74.21875 3.90625 
Q 73.4375 -3.125 67.96875 -5.46875 
Q 62.5 -7.8125 55.859375 -8.203125 
Q 55.46875 -4.296875 51.953125 0.78125 
Q 60.15625 0.390625 63.078125 1.359375 
Q 66.015625 2.34375 66.796875 8.203125 
L 69.53125 35.546875 
L 46.09375 35.546875 
Q 44.921875 25.390625 42.765625 18.546875 
Q 40.625 11.71875 36.71875 6.640625 
Q 32.8125 1.5625 27.34375 -2.734375 
Q 21.875 -7.03125 15.625 -10.15625 
z
M 61.71875 80.859375 
Q 64.453125 72.65625 72.84375 62.109375 
Q 81.25 51.5625 96.484375 43.75 
Q 93.359375 41.015625 90.234375 35.546875 
Q 83.203125 40.625 77.921875 45.109375 
Q 72.65625 49.609375 69.140625 53.515625 
Q 65.625 57.421875 61.328125 64.640625 
Q 57.03125 71.875 54.296875 78.125 
Q 58.59375 79.296875 61.71875 80.859375 
z
M 42.1875 75.390625 
Q 38.671875 69.140625 36.328125 64.453125 
Q 33.984375 59.765625 31.640625 56.046875 
Q 29.296875 52.34375 24.609375 46.09375 
Q 19.921875 39.84375 13.28125 33.203125 
Q 9.765625 36.71875 6.25 38.671875 
Q 14.0625 45.703125 18.546875 51.5625 
Q 23.046875 57.421875 27.140625 64.25 
Q 31.25 71.09375 34.375 79.296875 
Q 37.5 76.953125 42.1875 75.390625 
z
" id="SimHei-20998"/>
       <path d="M 37.109375 66.015625 
Q 41.40625 74.609375 43.359375 82.8125 
Q 48.828125 80.859375 53.125 79.296875 
Q 51.171875 77.734375 46.09375 66.015625 
L 75 66.015625 
Q 86.71875 66.015625 94.140625 66.40625 
L 94.140625 59.375 
L 42.578125 59.375 
Q 36.328125 48.4375 30.859375 41.796875 
L 51.171875 41.796875 
Q 51.171875 50.390625 50.78125 55.859375 
L 58.984375 55.859375 
Q 58.59375 50.390625 58.59375 41.796875 
L 85.9375 41.796875 
Q 85.546875 34.765625 85.546875 27.734375 
L 85.546875 11.71875 
Q 85.546875 4.296875 81.4375 2.34375 
Q 77.34375 0.390625 69.53125 -0.390625 
Q 68.75 5.078125 66.015625 8.59375 
Q 75 8.59375 76.75 9.765625 
Q 78.515625 10.9375 78.125 16.015625 
L 78.125 35.15625 
L 58.59375 35.15625 
L 58.59375 8.59375 
Q 58.59375 0.390625 58.984375 -9.375 
L 50.78125 -9.375 
Q 51.171875 0.390625 51.171875 8.59375 
L 51.171875 35.15625 
L 32.8125 35.15625 
L 32.8125 0 
L 25 0 
Q 25.390625 8.203125 25.390625 16.015625 
L 25.390625 34.765625 
Q 20.3125 28.90625 10.15625 19.921875 
Q 7.421875 23.046875 3.125 25.78125 
Q 11.71875 31.640625 19.71875 40.03125 
Q 27.734375 48.4375 33.59375 59.375 
L 24.21875 59.375 
Q 14.453125 59.375 6.25 58.984375 
L 6.25 66.40625 
Q 14.453125 66.015625 24.21875 66.015625 
z
" id="SimHei-24067"/>
      </defs>
      <use xlink:href="#SimHei-112"/>
      <use x="50" xlink:href="#SimHei-121"/>
      <use x="100" xlink:href="#SimHei-116"/>
      <use x="150" xlink:href="#SimHei-104"/>
      <use x="200" xlink:href="#SimHei-111"/>
      <use x="250" xlink:href="#SimHei-110"/>
      <use x="300" xlink:href="#SimHei-20844"/>
      <use x="400" xlink:href="#SimHei-21496"/>
      <use x="500" xlink:href="#SimHei-32473"/>
      <use x="600" xlink:href="#SimHei-20986"/>
      <use x="700" xlink:href="#SimHei-30340"/>
      <use x="800" xlink:href="#SimHei-26368"/>
      <use x="900" xlink:href="#SimHei-39640"/>
      <use x="1000" xlink:href="#SimHei-24037"/>
      <use x="1100" xlink:href="#SimHei-36164"/>
      <use x="1200" xlink:href="#SimHei-20998"/>
      <use x="1300" xlink:href="#SimHei-24067"/>
     </g>
    </g>
   </g>
  </g>
  <g id="axes_2">
   <g id="patch_19">
    <path d="M 180 1281.6 
L 1296 1281.6 
L 1296 777.6 
L 180 777.6 
z
" style="fill:#ffffff;"/>
   </g>
   <g id="patch_20">
    <path clip-path="url(#pfe9f5427d4)" d="M 230.727273 1281.6 
L 332.181818 1281.6 
L 332.181818 1268.742857 
L 230.727273 1268.742857 
z
" style="fill:#0000ff;opacity:0.7;stroke:#ff0000;stroke-linejoin:miter;"/>
   </g>
   <g id="patch_21">
    <path clip-path="url(#pfe9f5427d4)" d="M 332.181818 1281.6 
L 433.636364 1281.6 
L 433.636364 1123.028571 
L 332.181818 1123.028571 
z
" style="fill:#0000ff;opacity:0.7;stroke:#ff0000;stroke-linejoin:miter;"/>
   </g>
   <g id="patch_22">
    <path clip-path="url(#pfe9f5427d4)" d="M 433.636364 1281.6 
L 535.090909 1281.6 
L 535.090909 861.6 
L 433.636364 861.6 
z
" style="fill:#0000ff;opacity:0.7;stroke:#ff0000;stroke-linejoin:miter;"/>
   </g>
   <g id="patch_23">
    <path clip-path="url(#pfe9f5427d4)" d="M 535.090909 1281.6 
L 636.545455 1281.6 
L 636.545455 801.6 
L 535.090909 801.6 
z
" style="fill:#0000ff;opacity:0.7;stroke:#ff0000;stroke-linejoin:miter;"/>
   </g>
   <g id="patch_24">
    <path clip-path="url(#pfe9f5427d4)" d="M 636.545455 1281.6 
L 738 1281.6 
L 738 1028.742857 
L 636.545455 1028.742857 
z
" style="fill:#0000ff;opacity:0.7;stroke:#ff0000;stroke-linejoin:miter;"/>
   </g>
   <g id="patch_25">
    <path clip-path="url(#pfe9f5427d4)" d="M 738 1281.6 
L 839.454545 1281.6 
L 839.454545 1191.6 
L 738 1191.6 
z
" style="fill:#0000ff;opacity:0.7;stroke:#ff0000;stroke-linejoin:miter;"/>
   </g>
   <g id="patch_26">
    <path clip-path="url(#pfe9f5427d4)" d="M 839.454545 1281.6 
L 940.909091 1281.6 
L 940.909091 1174.457143 
L 839.454545 1174.457143 
z
" style="fill:#0000ff;opacity:0.7;stroke:#ff0000;stroke-linejoin:miter;"/>
   </g>
   <g id="patch_27">
    <path clip-path="url(#pfe9f5427d4)" d="M 940.909091 1281.6 
L 1042.363636 1281.6 
L 1042.363636 1255.885714 
L 940.909091 1255.885714 
z
" style="fill:#0000ff;opacity:0.7;stroke:#ff0000;stroke-linejoin:miter;"/>
   </g>
   <g id="patch_28">
    <path clip-path="url(#pfe9f5427d4)" d="M 1042.363636 1281.6 
L 1143.818182 1281.6 
L 1143.818182 1238.742857 
L 1042.363636 1238.742857 
z
" style="fill:#0000ff;opacity:0.7;stroke:#ff0000;stroke-linejoin:miter;"/>
   </g>
   <g id="patch_29">
    <path clip-path="url(#pfe9f5427d4)" d="M 1143.818182 1281.6 
L 1245.272727 1281.6 
L 1245.272727 1273.028571 
L 1143.818182 1273.028571 
z
" style="fill:#0000ff;opacity:0.7;stroke:#ff0000;stroke-linejoin:miter;"/>
   </g>
   <g id="matplotlib.axis_3">
    <g id="xtick_22">
     <g id="line2d_57">
      <path clip-path="url(#pfe9f5427d4)" d="M 230.727273 1281.6 
L 230.727273 777.6 
" style="fill:none;stroke:#b0b0b0;stroke-linecap:square;stroke-opacity:0.5;stroke-width:0.8;"/>
     </g>
     <g id="line2d_58">
      <g>
       <use style="stroke:#000000;stroke-width:0.8;" x="230.727273" xlink:href="#m16982f07ce" y="1281.6"/>
      </g>
     </g>
     <g id="text_33">
      <!-- 1K -->
      <g transform="translate(220.727273 1302.35)scale(0.2 -0.2)">
       <use xlink:href="#SimHei-49"/>
       <use x="50" xlink:href="#SimHei-75"/>
      </g>
     </g>
    </g>
    <g id="xtick_23">
     <g id="line2d_59">
      <path clip-path="url(#pfe9f5427d4)" d="M 265.711599 1281.6 
L 265.711599 777.6 
" style="fill:none;stroke:#b0b0b0;stroke-linecap:square;stroke-opacity:0.5;stroke-width:0.8;"/>
     </g>
     <g id="line2d_60">
      <g>
       <use style="stroke:#000000;stroke-width:0.8;" x="265.711599" xlink:href="#m16982f07ce" y="1281.6"/>
      </g>
     </g>
     <g id="text_34">
      <!-- 3K -->
      <g transform="translate(255.711599 1302.35)scale(0.2 -0.2)">
       <use xlink:href="#SimHei-51"/>
       <use x="50" xlink:href="#SimHei-75"/>
      </g>
     </g>
    </g>
    <g id="xtick_24">
     <g id="line2d_61">
      <path clip-path="url(#pfe9f5427d4)" d="M 300.695925 1281.6 
L 300.695925 777.6 
" style="fill:none;stroke:#b0b0b0;stroke-linecap:square;stroke-opacity:0.5;stroke-width:0.8;"/>
     </g>
     <g id="line2d_62">
      <g>
       <use style="stroke:#000000;stroke-width:0.8;" x="300.695925" xlink:href="#m16982f07ce" y="1281.6"/>
      </g>
     </g>
     <g id="text_35">
      <!-- 5K -->
      <g transform="translate(290.695925 1302.35)scale(0.2 -0.2)">
       <use xlink:href="#SimHei-53"/>
       <use x="50" xlink:href="#SimHei-75"/>
      </g>
     </g>
    </g>
    <g id="xtick_25">
     <g id="line2d_63">
      <path clip-path="url(#pfe9f5427d4)" d="M 335.680251 1281.6 
L 335.680251 777.6 
" style="fill:none;stroke:#b0b0b0;stroke-linecap:square;stroke-opacity:0.5;stroke-width:0.8;"/>
     </g>
     <g id="line2d_64">
      <g>
       <use style="stroke:#000000;stroke-width:0.8;" x="335.680251" xlink:href="#m16982f07ce" y="1281.6"/>
      </g>
     </g>
     <g id="text_36">
      <!-- 7K -->
      <g transform="translate(325.680251 1302.35)scale(0.2 -0.2)">
       <use xlink:href="#SimHei-55"/>
       <use x="50" xlink:href="#SimHei-75"/>
      </g>
     </g>
    </g>
    <g id="xtick_26">
     <g id="line2d_65">
      <path clip-path="url(#pfe9f5427d4)" d="M 370.664577 1281.6 
L 370.664577 777.6 
" style="fill:none;stroke:#b0b0b0;stroke-linecap:square;stroke-opacity:0.5;stroke-width:0.8;"/>
     </g>
     <g id="line2d_66">
      <g>
       <use style="stroke:#000000;stroke-width:0.8;" x="370.664577" xlink:href="#m16982f07ce" y="1281.6"/>
      </g>
     </g>
     <g id="text_37">
      <!-- 9K -->
      <g transform="translate(360.664577 1302.35)scale(0.2 -0.2)">
       <use xlink:href="#SimHei-57"/>
       <use x="50" xlink:href="#SimHei-75"/>
      </g>
     </g>
    </g>
    <g id="xtick_27">
     <g id="line2d_67">
      <path clip-path="url(#pfe9f5427d4)" d="M 405.648903 1281.6 
L 405.648903 777.6 
" style="fill:none;stroke:#b0b0b0;stroke-linecap:square;stroke-opacity:0.5;stroke-width:0.8;"/>
     </g>
     <g id="line2d_68">
      <g>
       <use style="stroke:#000000;stroke-width:0.8;" x="405.648903" xlink:href="#m16982f07ce" y="1281.6"/>
      </g>
     </g>
     <g id="text_38">
      <!-- 11K -->
      <g transform="translate(390.648903 1302.35)scale(0.2 -0.2)">
       <use xlink:href="#SimHei-49"/>
       <use x="50" xlink:href="#SimHei-49"/>
       <use x="100" xlink:href="#SimHei-75"/>
      </g>
     </g>
    </g>
    <g id="xtick_28">
     <g id="line2d_69">
      <path clip-path="url(#pfe9f5427d4)" d="M 440.633229 1281.6 
L 440.633229 777.6 
" style="fill:none;stroke:#b0b0b0;stroke-linecap:square;stroke-opacity:0.5;stroke-width:0.8;"/>
     </g>
     <g id="line2d_70">
      <g>
       <use style="stroke:#000000;stroke-width:0.8;" x="440.633229" xlink:href="#m16982f07ce" y="1281.6"/>
      </g>
     </g>
     <g id="text_39">
      <!-- 13K -->
      <g transform="translate(425.633229 1302.35)scale(0.2 -0.2)">
       <use xlink:href="#SimHei-49"/>
       <use x="50" xlink:href="#SimHei-51"/>
       <use x="100" xlink:href="#SimHei-75"/>
      </g>
     </g>
    </g>
    <g id="xtick_29">
     <g id="line2d_71">
      <path clip-path="url(#pfe9f5427d4)" d="M 475.617555 1281.6 
L 475.617555 777.6 
" style="fill:none;stroke:#b0b0b0;stroke-linecap:square;stroke-opacity:0.5;stroke-width:0.8;"/>
     </g>
     <g id="line2d_72">
      <g>
       <use style="stroke:#000000;stroke-width:0.8;" x="475.617555" xlink:href="#m16982f07ce" y="1281.6"/>
      </g>
     </g>
     <g id="text_40">
      <!-- 15K -->
      <g transform="translate(460.617555 1302.35)scale(0.2 -0.2)">
       <use xlink:href="#SimHei-49"/>
       <use x="50" xlink:href="#SimHei-53"/>
       <use x="100" xlink:href="#SimHei-75"/>
      </g>
     </g>
    </g>
    <g id="xtick_30">
     <g id="line2d_73">
      <path clip-path="url(#pfe9f5427d4)" d="M 510.601881 1281.6 
L 510.601881 777.6 
" style="fill:none;stroke:#b0b0b0;stroke-linecap:square;stroke-opacity:0.5;stroke-width:0.8;"/>
     </g>
     <g id="line2d_74">
      <g>
       <use style="stroke:#000000;stroke-width:0.8;" x="510.601881" xlink:href="#m16982f07ce" y="1281.6"/>
      </g>
     </g>
     <g id="text_41">
      <!-- 17K -->
      <g transform="translate(495.601881 1302.35)scale(0.2 -0.2)">
       <use xlink:href="#SimHei-49"/>
       <use x="50" xlink:href="#SimHei-55"/>
       <use x="100" xlink:href="#SimHei-75"/>
      </g>
     </g>
    </g>
    <g id="xtick_31">
     <g id="line2d_75">
      <path clip-path="url(#pfe9f5427d4)" d="M 545.586207 1281.6 
L 545.586207 777.6 
" style="fill:none;stroke:#b0b0b0;stroke-linecap:square;stroke-opacity:0.5;stroke-width:0.8;"/>
     </g>
     <g id="line2d_76">
      <g>
       <use style="stroke:#000000;stroke-width:0.8;" x="545.586207" xlink:href="#m16982f07ce" y="1281.6"/>
      </g>
     </g>
     <g id="text_42">
      <!-- 19K -->
      <g transform="translate(530.586207 1302.35)scale(0.2 -0.2)">
       <use xlink:href="#SimHei-49"/>
       <use x="50" xlink:href="#SimHei-57"/>
       <use x="100" xlink:href="#SimHei-75"/>
      </g>
     </g>
    </g>
    <g id="xtick_32">
     <g id="line2d_77">
      <path clip-path="url(#pfe9f5427d4)" d="M 580.570533 1281.6 
L 580.570533 777.6 
" style="fill:none;stroke:#b0b0b0;stroke-linecap:square;stroke-opacity:0.5;stroke-width:0.8;"/>
     </g>
     <g id="line2d_78">
      <g>
       <use style="stroke:#000000;stroke-width:0.8;" x="580.570533" xlink:href="#m16982f07ce" y="1281.6"/>
      </g>
     </g>
     <g id="text_43">
      <!-- 21K -->
      <g transform="translate(565.570533 1302.35)scale(0.2 -0.2)">
       <use xlink:href="#SimHei-50"/>
       <use x="50" xlink:href="#SimHei-49"/>
       <use x="100" xlink:href="#SimHei-75"/>
      </g>
     </g>
    </g>
    <g id="xtick_33">
     <g id="line2d_79">
      <path clip-path="url(#pfe9f5427d4)" d="M 615.554859 1281.6 
L 615.554859 777.6 
" style="fill:none;stroke:#b0b0b0;stroke-linecap:square;stroke-opacity:0.5;stroke-width:0.8;"/>
     </g>
     <g id="line2d_80">
      <g>
       <use style="stroke:#000000;stroke-width:0.8;" x="615.554859" xlink:href="#m16982f07ce" y="1281.6"/>
      </g>
     </g>
     <g id="text_44">
      <!-- 23K -->
      <g transform="translate(600.554859 1302.35)scale(0.2 -0.2)">
       <use xlink:href="#SimHei-50"/>
       <use x="50" xlink:href="#SimHei-51"/>
       <use x="100" xlink:href="#SimHei-75"/>
      </g>
     </g>
    </g>
    <g id="xtick_34">
     <g id="line2d_81">
      <path clip-path="url(#pfe9f5427d4)" d="M 650.539185 1281.6 
L 650.539185 777.6 
" style="fill:none;stroke:#b0b0b0;stroke-linecap:square;stroke-opacity:0.5;stroke-width:0.8;"/>
     </g>
     <g id="line2d_82">
      <g>
       <use style="stroke:#000000;stroke-width:0.8;" x="650.539185" xlink:href="#m16982f07ce" y="1281.6"/>
      </g>
     </g>
     <g id="text_45">
      <!-- 25K -->
      <g transform="translate(635.539185 1302.35)scale(0.2 -0.2)">
       <use xlink:href="#SimHei-50"/>
       <use x="50" xlink:href="#SimHei-53"/>
       <use x="100" xlink:href="#SimHei-75"/>
      </g>
     </g>
    </g>
    <g id="xtick_35">
     <g id="line2d_83">
      <path clip-path="url(#pfe9f5427d4)" d="M 685.523511 1281.6 
L 685.523511 777.6 
" style="fill:none;stroke:#b0b0b0;stroke-linecap:square;stroke-opacity:0.5;stroke-width:0.8;"/>
     </g>
     <g id="line2d_84">
      <g>
       <use style="stroke:#000000;stroke-width:0.8;" x="685.523511" xlink:href="#m16982f07ce" y="1281.6"/>
      </g>
     </g>
     <g id="text_46">
      <!-- 27K -->
      <g transform="translate(670.523511 1302.35)scale(0.2 -0.2)">
       <use xlink:href="#SimHei-50"/>
       <use x="50" xlink:href="#SimHei-55"/>
       <use x="100" xlink:href="#SimHei-75"/>
      </g>
     </g>
    </g>
    <g id="xtick_36">
     <g id="line2d_85">
      <path clip-path="url(#pfe9f5427d4)" d="M 720.507837 1281.6 
L 720.507837 777.6 
" style="fill:none;stroke:#b0b0b0;stroke-linecap:square;stroke-opacity:0.5;stroke-width:0.8;"/>
     </g>
     <g id="line2d_86">
      <g>
       <use style="stroke:#000000;stroke-width:0.8;" x="720.507837" xlink:href="#m16982f07ce" y="1281.6"/>
      </g>
     </g>
     <g id="text_47">
      <!-- 29K -->
      <g transform="translate(705.507837 1302.35)scale(0.2 -0.2)">
       <use xlink:href="#SimHei-50"/>
       <use x="50" xlink:href="#SimHei-57"/>
       <use x="100" xlink:href="#SimHei-75"/>
      </g>
     </g>
    </g>
    <g id="xtick_37">
     <g id="line2d_87">
      <path clip-path="url(#pfe9f5427d4)" d="M 755.492163 1281.6 
L 755.492163 777.6 
" style="fill:none;stroke:#b0b0b0;stroke-linecap:square;stroke-opacity:0.5;stroke-width:0.8;"/>
     </g>
     <g id="line2d_88">
      <g>
       <use style="stroke:#000000;stroke-width:0.8;" x="755.492163" xlink:href="#m16982f07ce" y="1281.6"/>
      </g>
     </g>
     <g id="text_48">
      <!-- 31K -->
      <g transform="translate(740.492163 1302.35)scale(0.2 -0.2)">
       <use xlink:href="#SimHei-51"/>
       <use x="50" xlink:href="#SimHei-49"/>
       <use x="100" xlink:href="#SimHei-75"/>
      </g>
     </g>
    </g>
    <g id="xtick_38">
     <g id="line2d_89">
      <path clip-path="url(#pfe9f5427d4)" d="M 790.476489 1281.6 
L 790.476489 777.6 
" style="fill:none;stroke:#b0b0b0;stroke-linecap:square;stroke-opacity:0.5;stroke-width:0.8;"/>
     </g>
     <g id="line2d_90">
      <g>
       <use style="stroke:#000000;stroke-width:0.8;" x="790.476489" xlink:href="#m16982f07ce" y="1281.6"/>
      </g>
     </g>
     <g id="text_49">
      <!-- 33K -->
      <g transform="translate(775.476489 1302.35)scale(0.2 -0.2)">
       <use xlink:href="#SimHei-51"/>
       <use x="50" xlink:href="#SimHei-51"/>
       <use x="100" xlink:href="#SimHei-75"/>
      </g>
     </g>
    </g>
    <g id="xtick_39">
     <g id="line2d_91">
      <path clip-path="url(#pfe9f5427d4)" d="M 825.460815 1281.6 
L 825.460815 777.6 
" style="fill:none;stroke:#b0b0b0;stroke-linecap:square;stroke-opacity:0.5;stroke-width:0.8;"/>
     </g>
     <g id="line2d_92">
      <g>
       <use style="stroke:#000000;stroke-width:0.8;" x="825.460815" xlink:href="#m16982f07ce" y="1281.6"/>
      </g>
     </g>
     <g id="text_50">
      <!-- 35K -->
      <g transform="translate(810.460815 1302.35)scale(0.2 -0.2)">
       <use xlink:href="#SimHei-51"/>
       <use x="50" xlink:href="#SimHei-53"/>
       <use x="100" xlink:href="#SimHei-75"/>
      </g>
     </g>
    </g>
    <g id="xtick_40">
     <g id="line2d_93">
      <path clip-path="url(#pfe9f5427d4)" d="M 860.445141 1281.6 
L 860.445141 777.6 
" style="fill:none;stroke:#b0b0b0;stroke-linecap:square;stroke-opacity:0.5;stroke-width:0.8;"/>
     </g>
     <g id="line2d_94">
      <g>
       <use style="stroke:#000000;stroke-width:0.8;" x="860.445141" xlink:href="#m16982f07ce" y="1281.6"/>
      </g>
     </g>
     <g id="text_51">
      <!-- 37K -->
      <g transform="translate(845.445141 1302.35)scale(0.2 -0.2)">
       <use xlink:href="#SimHei-51"/>
       <use x="50" xlink:href="#SimHei-55"/>
       <use x="100" xlink:href="#SimHei-75"/>
      </g>
     </g>
    </g>
    <g id="xtick_41">
     <g id="line2d_95">
      <path clip-path="url(#pfe9f5427d4)" d="M 895.429467 1281.6 
L 895.429467 777.6 
" style="fill:none;stroke:#b0b0b0;stroke-linecap:square;stroke-opacity:0.5;stroke-width:0.8;"/>
     </g>
     <g id="line2d_96">
      <g>
       <use style="stroke:#000000;stroke-width:0.8;" x="895.429467" xlink:href="#m16982f07ce" y="1281.6"/>
      </g>
     </g>
     <g id="text_52">
      <!-- 39K -->
      <g transform="translate(880.429467 1302.35)scale(0.2 -0.2)">
       <use xlink:href="#SimHei-51"/>
       <use x="50" xlink:href="#SimHei-57"/>
       <use x="100" xlink:href="#SimHei-75"/>
      </g>
     </g>
    </g>
    <g id="xtick_42">
     <g id="line2d_97">
      <path clip-path="url(#pfe9f5427d4)" d="M 930.413793 1281.6 
L 930.413793 777.6 
" style="fill:none;stroke:#b0b0b0;stroke-linecap:square;stroke-opacity:0.5;stroke-width:0.8;"/>
     </g>
     <g id="line2d_98">
      <g>
       <use style="stroke:#000000;stroke-width:0.8;" x="930.413793" xlink:href="#m16982f07ce" y="1281.6"/>
      </g>
     </g>
     <g id="text_53">
      <!-- 41K -->
      <g transform="translate(915.413793 1302.35)scale(0.2 -0.2)">
       <use xlink:href="#SimHei-52"/>
       <use x="50" xlink:href="#SimHei-49"/>
       <use x="100" xlink:href="#SimHei-75"/>
      </g>
     </g>
    </g>
    <g id="xtick_43">
     <g id="line2d_99">
      <path clip-path="url(#pfe9f5427d4)" d="M 965.398119 1281.6 
L 965.398119 777.6 
" style="fill:none;stroke:#b0b0b0;stroke-linecap:square;stroke-opacity:0.5;stroke-width:0.8;"/>
     </g>
     <g id="line2d_100">
      <g>
       <use style="stroke:#000000;stroke-width:0.8;" x="965.398119" xlink:href="#m16982f07ce" y="1281.6"/>
      </g>
     </g>
     <g id="text_54">
      <!-- 43K -->
      <g transform="translate(950.398119 1302.35)scale(0.2 -0.2)">
       <use xlink:href="#SimHei-52"/>
       <use x="50" xlink:href="#SimHei-51"/>
       <use x="100" xlink:href="#SimHei-75"/>
      </g>
     </g>
    </g>
    <g id="text_55">
     <!-- 最高工资 -->
     <g transform="translate(698 1324.709375)scale(0.2 -0.2)">
      <use xlink:href="#SimHei-26368"/>
      <use x="100" xlink:href="#SimHei-39640"/>
      <use x="200" xlink:href="#SimHei-24037"/>
      <use x="300" xlink:href="#SimHei-36164"/>
     </g>
    </g>
   </g>
   <g id="matplotlib.axis_4">
    <g id="ytick_8">
     <g id="line2d_101">
      <path clip-path="url(#pfe9f5427d4)" d="M 180 1281.6 
L 1296 1281.6 
" style="fill:none;stroke:#b0b0b0;stroke-linecap:square;stroke-opacity:0.5;stroke-width:0.8;"/>
     </g>
     <g id="line2d_102">
      <g>
       <use style="stroke:#000000;stroke-width:0.8;" x="180" xlink:href="#m3344208535" y="1281.6"/>
      </g>
     </g>
     <g id="text_56">
      <!-- 0 -->
      <g transform="translate(163 1288.475)scale(0.2 -0.2)">
       <use xlink:href="#SimHei-48"/>
      </g>
     </g>
    </g>
    <g id="ytick_9">
     <g id="line2d_103">
      <path clip-path="url(#pfe9f5427d4)" d="M 180 1195.885714 
L 1296 1195.885714 
" style="fill:none;stroke:#b0b0b0;stroke-linecap:square;stroke-opacity:0.5;stroke-width:0.8;"/>
     </g>
     <g id="line2d_104">
      <g>
       <use style="stroke:#000000;stroke-width:0.8;" x="180" xlink:href="#m3344208535" y="1195.885714"/>
      </g>
     </g>
     <g id="text_57">
      <!-- 20 -->
      <g transform="translate(153 1202.760714)scale(0.2 -0.2)">
       <use xlink:href="#SimHei-50"/>
       <use x="50" xlink:href="#SimHei-48"/>
      </g>
     </g>
    </g>
    <g id="ytick_10">
     <g id="line2d_105">
      <path clip-path="url(#pfe9f5427d4)" d="M 180 1110.171429 
L 1296 1110.171429 
" style="fill:none;stroke:#b0b0b0;stroke-linecap:square;stroke-opacity:0.5;stroke-width:0.8;"/>
     </g>
     <g id="line2d_106">
      <g>
       <use style="stroke:#000000;stroke-width:0.8;" x="180" xlink:href="#m3344208535" y="1110.171429"/>
      </g>
     </g>
     <g id="text_58">
      <!-- 40 -->
      <g transform="translate(153 1117.046429)scale(0.2 -0.2)">
       <use xlink:href="#SimHei-52"/>
       <use x="50" xlink:href="#SimHei-48"/>
      </g>
     </g>
    </g>
    <g id="ytick_11">
     <g id="line2d_107">
      <path clip-path="url(#pfe9f5427d4)" d="M 180 1024.457143 
L 1296 1024.457143 
" style="fill:none;stroke:#b0b0b0;stroke-linecap:square;stroke-opacity:0.5;stroke-width:0.8;"/>
     </g>
     <g id="line2d_108">
      <g>
       <use style="stroke:#000000;stroke-width:0.8;" x="180" xlink:href="#m3344208535" y="1024.457143"/>
      </g>
     </g>
     <g id="text_59">
      <!-- 60 -->
      <g transform="translate(153 1031.332143)scale(0.2 -0.2)">
       <use xlink:href="#SimHei-54"/>
       <use x="50" xlink:href="#SimHei-48"/>
      </g>
     </g>
    </g>
    <g id="ytick_12">
     <g id="line2d_109">
      <path clip-path="url(#pfe9f5427d4)" d="M 180 938.742857 
L 1296 938.742857 
" style="fill:none;stroke:#b0b0b0;stroke-linecap:square;stroke-opacity:0.5;stroke-width:0.8;"/>
     </g>
     <g id="line2d_110">
      <g>
       <use style="stroke:#000000;stroke-width:0.8;" x="180" xlink:href="#m3344208535" y="938.742857"/>
      </g>
     </g>
     <g id="text_60">
      <!-- 80 -->
      <g transform="translate(153 945.617857)scale(0.2 -0.2)">
       <use xlink:href="#SimHei-56"/>
       <use x="50" xlink:href="#SimHei-48"/>
      </g>
     </g>
    </g>
    <g id="ytick_13">
     <g id="line2d_111">
      <path clip-path="url(#pfe9f5427d4)" d="M 180 853.028571 
L 1296 853.028571 
" style="fill:none;stroke:#b0b0b0;stroke-linecap:square;stroke-opacity:0.5;stroke-width:0.8;"/>
     </g>
     <g id="line2d_112">
      <g>
       <use style="stroke:#000000;stroke-width:0.8;" x="180" xlink:href="#m3344208535" y="853.028571"/>
      </g>
     </g>
     <g id="text_61">
      <!-- 100 -->
      <g transform="translate(143 859.903571)scale(0.2 -0.2)">
       <use xlink:href="#SimHei-49"/>
       <use x="50" xlink:href="#SimHei-48"/>
       <use x="100" xlink:href="#SimHei-48"/>
      </g>
     </g>
    </g>
    <g id="text_62">
     <!-- 公司数量 -->
     <g transform="translate(136.5 1069.6)rotate(-90)scale(0.2 -0.2)">
      <use xlink:href="#SimHei-20844"/>
      <use x="100" xlink:href="#SimHei-21496"/>
      <use x="200" xlink:href="#SimHei-25968"/>
      <use x="300" xlink:href="#SimHei-37327"/>
     </g>
    </g>
   </g>
   <g id="patch_30">
    <path d="M 180 1281.6 
L 180 777.6 
" style="fill:none;stroke:#000000;stroke-linecap:square;stroke-linejoin:miter;stroke-width:0.8;"/>
   </g>
   <g id="patch_31">
    <path d="M 1296 1281.6 
L 1296 777.6 
" style="fill:none;stroke:#000000;stroke-linecap:square;stroke-linejoin:miter;stroke-width:0.8;"/>
   </g>
   <g id="patch_32">
    <path d="M 180 1281.6 
L 1296 1281.6 
" style="fill:none;stroke:#000000;stroke-linecap:square;stroke-linejoin:miter;stroke-width:0.8;"/>
   </g>
   <g id="patch_33">
    <path d="M 180 777.6 
L 1296 777.6 
" style="fill:none;stroke:#000000;stroke-linecap:square;stroke-linejoin:miter;stroke-width:0.8;"/>
   </g>
   <g id="text_63">
    <!-- 公司给出的最高工资 -->
    <g transform="translate(648 771.6)scale(0.2 -0.2)">
     <use xlink:href="#SimHei-20844"/>
     <use x="100" xlink:href="#SimHei-21496"/>
     <use x="200" xlink:href="#SimHei-32473"/>
     <use x="300" xlink:href="#SimHei-20986"/>
     <use x="400" xlink:href="#SimHei-30340"/>
     <use x="500" xlink:href="#SimHei-26368"/>
     <use x="600" xlink:href="#SimHei-39640"/>
     <use x="700" xlink:href="#SimHei-24037"/>
     <use x="800" xlink:href="#SimHei-36164"/>
    </g>
   </g>
   <g id="legend_2">
    <g id="patch_34">
     <path d="M 789 845.19375 
L 1275 845.19375 
Q 1281 845.19375 1281 839.19375 
L 1281 798.6 
Q 1281 792.6 1275 792.6 
L 789 792.6 
Q 783 792.6 783 798.6 
L 783 839.19375 
Q 783 845.19375 789 845.19375 
z
" style="fill:#ffffff;opacity:0.8;stroke:#cccccc;stroke-linejoin:miter;"/>
    </g>
    <g id="patch_35">
     <path d="M 795 829.44375 
L 855 829.44375 
L 855 808.44375 
L 795 808.44375 
z
" style="fill:#0000ff;opacity:0.7;stroke:#ff0000;stroke-linejoin:miter;"/>
    </g>
    <g id="text_64">
     <!-- java公司给出的最高工资分布 -->
     <g transform="translate(879 829.44375)scale(0.3 -0.3)">
      <defs>
       <path d="M 35.9375 58.203125 
L 28.125 58.203125 
L 28.125 68.359375 
L 35.9375 68.359375 
z
M 35.9375 2.34375 
Q 35.9375 -4.6875 31.640625 -8.59375 
Q 27.34375 -12.5 20.3125 -12.5 
Q 16.015625 -12.5 13.46875 -11.90625 
Q 10.9375 -11.328125 8.984375 -10.546875 
L 8.984375 -2.734375 
Q 10.9375 -3.90625 13.671875 -4.6875 
Q 16.40625 -5.46875 20.703125 -5.46875 
Q 25 -5.46875 26.5625 -3.3125 
Q 28.125 -1.171875 28.125 1.953125 
L 28.125 45.703125 
L 35.9375 45.703125 
z
" id="SimHei-106"/>
       <path d="M 44.921875 1.953125 
L 35.546875 1.953125 
Q 34.765625 2.734375 34.375 4.09375 
Q 33.984375 5.46875 33.984375 7.421875 
Q 31.25 4.296875 27.34375 2.734375 
Q 23.4375 1.171875 19.140625 1.171875 
Q 12.890625 1.171875 8.59375 4.296875 
Q 4.296875 7.421875 4.296875 13.28125 
Q 4.296875 19.140625 8.203125 22.65625 
Q 12.109375 26.171875 20.3125 27.34375 
Q 25.78125 28.125 29.875 29.296875 
Q 33.984375 30.46875 33.984375 32.421875 
Q 33.984375 34.765625 32.21875 37.109375 
Q 30.46875 39.453125 24.609375 39.453125 
Q 19.921875 39.453125 17.765625 37.6875 
Q 15.625 35.9375 14.84375 32.8125 
L 6.25 32.8125 
Q 7.03125 39.0625 11.90625 42.765625 
Q 16.796875 46.484375 24.609375 46.484375 
Q 33.203125 46.484375 37.5 42.578125 
Q 41.796875 38.671875 41.796875 31.640625 
L 41.796875 10.15625 
Q 41.796875 7.8125 42.578125 5.859375 
Q 43.359375 3.90625 44.921875 1.953125 
z
M 33.984375 16.40625 
L 33.984375 24.21875 
Q 31.640625 23.4375 29.484375 22.84375 
Q 27.34375 22.265625 22.265625 21.484375 
Q 16.40625 20.703125 14.640625 18.75 
Q 12.890625 16.796875 12.890625 14.0625 
Q 12.890625 11.71875 14.640625 9.953125 
Q 16.40625 8.203125 19.921875 8.203125 
Q 23.4375 8.203125 27.53125 10.15625 
Q 31.640625 12.109375 33.984375 16.40625 
z
" id="SimHei-97"/>
       <path d="M 44.921875 45.703125 
L 28.515625 1.171875 
L 19.921875 1.171875 
L 3.515625 45.703125 
L 11.71875 45.703125 
L 23.828125 11.71875 
L 24.609375 11.71875 
L 36.71875 45.703125 
z
" id="SimHei-118"/>
      </defs>
      <use xlink:href="#SimHei-106"/>
      <use x="50" xlink:href="#SimHei-97"/>
      <use x="100" xlink:href="#SimHei-118"/>
      <use x="150" xlink:href="#SimHei-97"/>
      <use x="200" xlink:href="#SimHei-20844"/>
      <use x="300" xlink:href="#SimHei-21496"/>
      <use x="400" xlink:href="#SimHei-32473"/>
      <use x="500" xlink:href="#SimHei-20986"/>
      <use x="600" xlink:href="#SimHei-30340"/>
      <use x="700" xlink:href="#SimHei-26368"/>
      <use x="800" xlink:href="#SimHei-39640"/>
      <use x="900" xlink:href="#SimHei-24037"/>
      <use x="1000" xlink:href="#SimHei-36164"/>
      <use x="1100" xlink:href="#SimHei-20998"/>
      <use x="1200" xlink:href="#SimHei-24067"/>
     </g>
    </g>
   </g>
  </g>
 </g>
 <defs>
  <clipPath id="pca35ef8d6e">
   <rect height="504" width="1116" x="180" y="172.8"/>
  </clipPath>
  <clipPath id="pfe9f5427d4">
   <rect height="504" width="1116" x="180" y="777.6"/>
  </clipPath>
 </defs>
</svg>
