<?xml version="1.0" encoding="utf-8" standalone="no"?>
<!DOCTYPE svg PUBLIC "-//W3C//DTD SVG 1.1//EN"
  "http://www.w3.org/Graphics/SVG/1.1/DTD/svg11.dtd">
<!-- Created with matplotlib (https://matplotlib.org/) -->
<svg height="1440pt" version="1.1" viewBox="0 0 1440 1440" width="1440pt" xmlns="http://www.w3.org/2000/svg" xmlns:xlink="http://www.w3.org/1999/xlink">
 <metadata>
  <rdf:RDF xmlns:cc="http://creativecommons.org/ns#" xmlns:dc="http://purl.org/dc/elements/1.1/" xmlns:rdf="http://www.w3.org/1999/02/22-rdf-syntax-ns#">
   <cc:Work>
    <dc:type rdf:resource="http://purl.org/dc/dcmitype/StillImage"/>
    <dc:date>2020-08-20T13:44:17.458681</dc:date>
    <dc:format>image/svg+xml</dc:format>
    <dc:creator>
     <cc:Agent>
      <dc:title>Matplotlib v3.3.0, https://matplotlib.org/</dc:title>
     </cc:Agent>
    </dc:creator>
   </cc:Work>
  </rdf:RDF>
 </metadata>
 <defs>
  <style type="text/css">*{stroke-linecap:butt;stroke-linejoin:round;}</style>
 </defs>
 <g id="figure_1">
  <g id="patch_1">
   <path d="M 0 1440 
L 1440 1440 
L 1440 0 
L 0 0 
z
" style="fill:#ffffff;"/>
  </g>
  <g id="axes_1">
   <g id="patch_2">
    <path d="M 180 676.8 
L 1296 676.8 
L 1296 172.8 
L 180 172.8 
z
" style="fill:#ffffff;"/>
   </g>
   <g id="matplotlib.axis_1">
    <g id="xtick_1">
     <g id="line2d_1">
      <path clip-path="url(#p3b5e9bfb2a)" d="M 230.727273 676.8 
L 230.727273 172.8 
" style="fill:none;stroke:#b0b0b0;stroke-linecap:square;stroke-opacity:0.5;stroke-width:0.8;"/>
     </g>
     <g id="line2d_2">
      <defs>
       <path d="M 0 0 
L 0 3.5 
" id="mb5b8c133a4" style="stroke:#000000;stroke-width:0.8;"/>
      </defs>
      <g>
       <use style="stroke:#000000;stroke-width:0.8;" x="230.727273" xlink:href="#mb5b8c133a4" y="676.8"/>
      </g>
     </g>
     <g id="text_1">
      <!-- 少于15人 -->
      <g transform="translate(190.727273 699.26875)scale(0.2 -0.2)">
       <defs>
        <path d="M 83.984375 29.296875 
Q 74.609375 19.140625 66.40625 12.109375 
Q 58.203125 5.078125 45.890625 -0.1875 
Q 33.59375 -5.46875 12.890625 -8.59375 
Q 11.71875 -3.515625 7.8125 -0.78125 
Q 19.140625 -0.390625 34.765625 4.09375 
Q 50.390625 8.59375 60.9375 17.765625 
Q 71.484375 26.953125 75.78125 34.765625 
Q 78.90625 31.25 83.984375 29.296875 
z
M 53.515625 80.078125 
Q 53.125 74.21875 53.125 64.84375 
L 53.125 37.5 
Q 53.125 30.46875 53.515625 21.09375 
L 44.921875 21.09375 
Q 45.3125 30.46875 45.3125 37.5 
L 45.3125 64.84375 
Q 45.3125 73.828125 44.53125 80.078125 
L 53.515625 80.078125 
z
M 35.546875 60.546875 
Q 32.8125 57.03125 26.75 48.625 
Q 20.703125 40.234375 12.109375 28.515625 
Q 9.375 31.640625 5.078125 33.59375 
Q 14.453125 43.359375 19.921875 51.75 
Q 25.390625 60.15625 27.34375 65.234375 
Q 31.640625 62.109375 35.546875 60.546875 
z
M 68.75 66.015625 
Q 85.9375 52.34375 94.140625 43.75 
Q 90.234375 41.40625 87.5 37.890625 
Q 81.25 46.09375 63.28125 60.15625 
Q 67.1875 62.890625 68.75 66.015625 
z
" id="SimHei-23569"/>
        <path d="M 45.3125 37.890625 
L 17.96875 37.890625 
Q 10.15625 37.890625 4.296875 37.5 
L 4.296875 45.3125 
Q 10.15625 44.921875 17.96875 44.921875 
L 45.3125 44.921875 
L 45.3125 69.53125 
L 26.171875 69.53125 
Q 19.140625 69.53125 14.0625 69.140625 
L 14.0625 76.953125 
Q 19.140625 76.5625 26.171875 76.5625 
L 70.703125 76.5625 
Q 77.34375 76.5625 83.984375 76.953125 
L 83.984375 69.140625 
Q 77.34375 69.53125 70.703125 69.53125 
L 53.515625 69.53125 
L 53.515625 44.921875 
L 78.90625 44.921875 
Q 87.5 44.921875 94.53125 45.3125 
L 94.53125 37.5 
Q 88.28125 37.890625 78.90625 37.890625 
L 53.515625 37.890625 
L 53.515625 1.953125 
Q 53.515625 -5.078125 48.828125 -6.4375 
Q 44.140625 -7.8125 35.15625 -8.203125 
Q 34.765625 -3.125 32.03125 2.34375 
Q 38.28125 1.5625 41.796875 1.75 
Q 45.3125 1.953125 45.3125 5.078125 
z
" id="SimHei-20110"/>
        <path d="M 21.875 56.25 
Q 16.796875 51.171875 8.984375 46.484375 
L 8.984375 53.90625 
Q 18.75 60.546875 25 69.53125 
L 29.6875 69.53125 
L 29.6875 2.34375 
L 21.875 2.34375 
z
" id="SimHei-49"/>
        <path d="M 8.59375 20.703125 
Q 11.328125 10.15625 17.96875 8.984375 
Q 24.609375 7.8125 28.703125 10.34375 
Q 32.8125 12.890625 34.5625 16.984375 
Q 36.328125 21.09375 36.125 26.171875 
Q 35.9375 31.25 33.390625 34.765625 
Q 30.859375 38.28125 26.953125 39.453125 
Q 23.046875 40.625 18.15625 39.453125 
Q 13.28125 38.28125 10.15625 33.984375 
L 3.515625 34.765625 
Q 4.296875 37.109375 10.9375 68.359375 
L 41.796875 68.359375 
L 41.796875 61.328125 
L 16.796875 61.328125 
Q 14.84375 50.78125 12.890625 44.53125 
Q 18.75 47.265625 23.828125 47.0625 
Q 28.90625 46.875 33.59375 44.71875 
Q 38.28125 42.578125 40.421875 38.859375 
Q 42.578125 35.15625 43.546875 31.4375 
Q 44.53125 27.734375 44.328125 23.4375 
Q 44.140625 19.140625 42.578125 14.640625 
Q 41.015625 10.15625 37.890625 7.21875 
Q 34.765625 4.296875 30.265625 2.53125 
Q 25.78125 0.78125 19.921875 1.171875 
Q 14.0625 1.5625 8.78125 5.46875 
Q 3.515625 9.375 1.5625 18.75 
z
" id="SimHei-53"/>
        <path d="M 5.46875 -2.34375 
Q 20.703125 5.078125 29.296875 16.015625 
Q 37.890625 26.953125 41.203125 38.46875 
Q 44.53125 50 44.921875 59.953125 
Q 45.3125 69.921875 44.53125 80.859375 
Q 48.828125 80.46875 54.296875 80.078125 
Q 53.125 73.828125 53.125 67.1875 
Q 53.125 60.546875 53.90625 51.953125 
Q 54.6875 43.359375 65.03125 25.96875 
Q 75.390625 8.59375 95.3125 0 
Q 90.625 -4.6875 89.0625 -7.8125 
Q 61.71875 5.46875 50 40.234375 
Q 42.1875 9.375 12.109375 -8.984375 
Q 9.765625 -5.859375 5.46875 -2.34375 
z
" id="SimHei-20154"/>
       </defs>
       <use xlink:href="#SimHei-23569"/>
       <use x="100" xlink:href="#SimHei-20110"/>
       <use x="200" xlink:href="#SimHei-49"/>
       <use x="250" xlink:href="#SimHei-53"/>
       <use x="300" xlink:href="#SimHei-20154"/>
      </g>
     </g>
    </g>
    <g id="xtick_2">
     <g id="line2d_3">
      <path clip-path="url(#p3b5e9bfb2a)" d="M 433.636364 676.8 
L 433.636364 172.8 
" style="fill:none;stroke:#b0b0b0;stroke-linecap:square;stroke-opacity:0.5;stroke-width:0.8;"/>
     </g>
     <g id="line2d_4">
      <g>
       <use style="stroke:#000000;stroke-width:0.8;" x="433.636364" xlink:href="#mb5b8c133a4" y="676.8"/>
      </g>
     </g>
     <g id="text_2">
      <!-- 50-150人 -->
      <g transform="translate(393.636364 699.26875)scale(0.2 -0.2)">
       <defs>
        <path d="M 3.125 29.296875 
Q 3.90625 50 6.4375 56.046875 
Q 8.984375 62.109375 13.671875 66.015625 
Q 18.359375 69.921875 25.1875 69.921875 
Q 32.03125 69.921875 37.109375 64.25 
Q 42.1875 58.59375 43.75 50 
Q 45.3125 41.40625 44.71875 30.265625 
Q 44.140625 19.140625 40.8125 12.109375 
Q 37.5 5.078125 30.859375 2.34375 
Q 24.21875 -0.390625 17.578125 2.921875 
Q 10.9375 6.25 8.203125 11.71875 
Q 5.46875 17.1875 4.296875 23.234375 
Q 3.125 29.296875 3.90625 50 
z
M 12.890625 52.734375 
Q 10.546875 31.25 12.5 22.84375 
Q 14.453125 14.453125 18.9375 10.9375 
Q 23.4375 7.421875 28.125 9.5625 
Q 32.8125 11.71875 34.953125 18.15625 
Q 37.109375 24.609375 37.109375 32.21875 
Q 37.109375 39.84375 36.515625 46.09375 
Q 35.9375 52.34375 33 57.421875 
Q 30.078125 62.5 25.1875 62.6875 
Q 20.3125 62.890625 16.59375 57.8125 
Q 12.890625 52.734375 10.546875 31.25 
z
" id="SimHei-48"/>
        <path d="M 46.484375 33.203125 
L 1.953125 33.203125 
L 1.953125 39.453125 
L 46.484375 39.453125 
z
" id="SimHei-45"/>
       </defs>
       <use xlink:href="#SimHei-53"/>
       <use x="50" xlink:href="#SimHei-48"/>
       <use x="100" xlink:href="#SimHei-45"/>
       <use x="150" xlink:href="#SimHei-49"/>
       <use x="200" xlink:href="#SimHei-53"/>
       <use x="250" xlink:href="#SimHei-48"/>
       <use x="300" xlink:href="#SimHei-20154"/>
      </g>
     </g>
    </g>
    <g id="xtick_3">
     <g id="line2d_5">
      <path clip-path="url(#p3b5e9bfb2a)" d="M 636.545455 676.8 
L 636.545455 172.8 
" style="fill:none;stroke:#b0b0b0;stroke-linecap:square;stroke-opacity:0.5;stroke-width:0.8;"/>
     </g>
     <g id="line2d_6">
      <g>
       <use style="stroke:#000000;stroke-width:0.8;" x="636.545455" xlink:href="#mb5b8c133a4" y="676.8"/>
      </g>
     </g>
     <g id="text_3">
      <!-- 150-500人 -->
      <g transform="translate(591.545455 699.26875)scale(0.2 -0.2)">
       <use xlink:href="#SimHei-49"/>
       <use x="50" xlink:href="#SimHei-53"/>
       <use x="100" xlink:href="#SimHei-48"/>
       <use x="150" xlink:href="#SimHei-45"/>
       <use x="200" xlink:href="#SimHei-53"/>
       <use x="250" xlink:href="#SimHei-48"/>
       <use x="300" xlink:href="#SimHei-48"/>
       <use x="350" xlink:href="#SimHei-20154"/>
      </g>
     </g>
    </g>
    <g id="xtick_4">
     <g id="line2d_7">
      <path clip-path="url(#p3b5e9bfb2a)" d="M 839.454545 676.8 
L 839.454545 172.8 
" style="fill:none;stroke:#b0b0b0;stroke-linecap:square;stroke-opacity:0.5;stroke-width:0.8;"/>
     </g>
     <g id="line2d_8">
      <g>
       <use style="stroke:#000000;stroke-width:0.8;" x="839.454545" xlink:href="#mb5b8c133a4" y="676.8"/>
      </g>
     </g>
     <g id="text_4">
      <!-- 15-50人 -->
      <g transform="translate(804.454545 699.26875)scale(0.2 -0.2)">
       <use xlink:href="#SimHei-49"/>
       <use x="50" xlink:href="#SimHei-53"/>
       <use x="100" xlink:href="#SimHei-45"/>
       <use x="150" xlink:href="#SimHei-53"/>
       <use x="200" xlink:href="#SimHei-48"/>
       <use x="250" xlink:href="#SimHei-20154"/>
      </g>
     </g>
    </g>
    <g id="xtick_5">
     <g id="line2d_9">
      <path clip-path="url(#p3b5e9bfb2a)" d="M 1042.363636 676.8 
L 1042.363636 172.8 
" style="fill:none;stroke:#b0b0b0;stroke-linecap:square;stroke-opacity:0.5;stroke-width:0.8;"/>
     </g>
     <g id="line2d_10">
      <g>
       <use style="stroke:#000000;stroke-width:0.8;" x="1042.363636" xlink:href="#mb5b8c133a4" y="676.8"/>
      </g>
     </g>
     <g id="text_5">
      <!-- 500-2000人 -->
      <g transform="translate(992.363636 699.26875)scale(0.2 -0.2)">
       <defs>
        <path d="M 4.6875 3.90625 
Q 5.078125 9.765625 10.15625 14.453125 
Q 15.234375 19.140625 23.046875 29.09375 
Q 30.859375 39.0625 33.203125 44.53125 
Q 35.546875 50 34.953125 53.90625 
Q 34.375 57.8125 31.25 60.34375 
Q 28.125 62.890625 24.015625 62.5 
Q 19.921875 62.109375 16.203125 59.375 
Q 12.5 56.640625 10.546875 51.171875 
L 3.125 52.34375 
Q 6.25 61.328125 11.125 65.421875 
Q 16.015625 69.53125 22.65625 69.921875 
Q 26.5625 70.3125 29.6875 69.71875 
Q 32.8125 69.140625 36.125 66.984375 
Q 39.453125 64.84375 41.59375 60.546875 
Q 43.75 56.25 43.15625 50.1875 
Q 42.578125 44.140625 37.109375 35.734375 
Q 31.640625 27.34375 16.015625 9.375 
L 44.140625 9.375 
L 44.140625 2.34375 
L 4.6875 2.34375 
z
" id="SimHei-50"/>
       </defs>
       <use xlink:href="#SimHei-53"/>
       <use x="50" xlink:href="#SimHei-48"/>
       <use x="100" xlink:href="#SimHei-48"/>
       <use x="150" xlink:href="#SimHei-45"/>
       <use x="200" xlink:href="#SimHei-50"/>
       <use x="250" xlink:href="#SimHei-48"/>
       <use x="300" xlink:href="#SimHei-48"/>
       <use x="350" xlink:href="#SimHei-48"/>
       <use x="400" xlink:href="#SimHei-20154"/>
      </g>
     </g>
    </g>
    <g id="xtick_6">
     <g id="line2d_11">
      <path clip-path="url(#p3b5e9bfb2a)" d="M 1245.272727 676.8 
L 1245.272727 172.8 
" style="fill:none;stroke:#b0b0b0;stroke-linecap:square;stroke-opacity:0.5;stroke-width:0.8;"/>
     </g>
     <g id="line2d_12">
      <g>
       <use style="stroke:#000000;stroke-width:0.8;" x="1245.272727" xlink:href="#mb5b8c133a4" y="676.8"/>
      </g>
     </g>
     <g id="text_6">
      <!-- 2000人以上 -->
      <g transform="translate(1195.272727 699.659375)scale(0.2 -0.2)">
       <defs>
        <path d="M 84.375 74.609375 
Q 82.421875 69.53125 80.65625 51.171875 
Q 78.90625 32.8125 73.046875 21.09375 
Q 89.0625 5.46875 94.921875 -2.34375 
Q 91.40625 -4.6875 87.890625 -7.8125 
Q 80.859375 2.34375 68.359375 14.0625 
Q 53.125 -2.734375 34.375 -10.9375 
Q 30.46875 -5.078125 28.125 -3.125 
Q 44.921875 1.953125 56.640625 13.28125 
Q 68.359375 24.609375 71.09375 43.9375 
Q 73.828125 63.28125 73.4375 76.953125 
Q 80.078125 75.390625 84.375 74.609375 
z
M 41.40625 33.59375 
Q 44.140625 29.296875 47.265625 26.171875 
Q 34.375 16.40625 16.015625 -2.734375 
Q 12.5 1.171875 10.15625 3.125 
Q 13.28125 7.03125 13.28125 11.71875 
L 13.28125 55.078125 
Q 13.28125 60.9375 12.890625 67.96875 
L 21.875 67.96875 
Q 21.484375 65.234375 21.484375 58.984375 
L 21.484375 13.671875 
Q 32.8125 23.828125 41.40625 33.59375 
z
M 38.28125 78.515625 
Q 42.578125 73.828125 47.265625 68.15625 
Q 51.953125 62.5 57.8125 54.296875 
Q 54.296875 51.953125 50.78125 48.828125 
Q 45.703125 57.8125 32.03125 73.4375 
Q 35.15625 75.390625 38.28125 78.515625 
z
" id="SimHei-20197"/>
        <path d="M 50.78125 79.296875 
Q 50.390625 72.65625 50.390625 66.796875 
L 50.390625 50.390625 
L 72.65625 50.390625 
Q 80.46875 50.390625 87.5 50.78125 
L 87.5 42.1875 
Q 79.6875 42.578125 71.875 42.578125 
L 50.390625 42.578125 
L 50.390625 3.125 
L 81.25 3.125 
Q 87.109375 3.125 94.921875 3.515625 
L 94.921875 -4.6875 
Q 87.5 -4.296875 81.25 -4.296875 
L 19.53125 -4.296875 
Q 13.28125 -4.296875 5.46875 -4.6875 
L 5.46875 3.515625 
Q 12.890625 3.125 19.53125 3.125 
L 42.1875 3.125 
L 42.1875 66.40625 
Q 42.1875 72.265625 41.796875 79.296875 
L 50.78125 79.296875 
z
" id="SimHei-19978"/>
       </defs>
       <use xlink:href="#SimHei-50"/>
       <use x="50" xlink:href="#SimHei-48"/>
       <use x="100" xlink:href="#SimHei-48"/>
       <use x="150" xlink:href="#SimHei-48"/>
       <use x="200" xlink:href="#SimHei-20154"/>
       <use x="300" xlink:href="#SimHei-20197"/>
       <use x="400" xlink:href="#SimHei-19978"/>
      </g>
     </g>
    </g>
    <g id="text_7">
     <!-- 公司规模 -->
     <g transform="translate(698 722.175)scale(0.2 -0.2)">
      <defs>
       <path d="M 69.53125 8.59375 
Q 66.40625 14.0625 60.9375 21.09375 
Q 64.84375 23.4375 67.578125 25.78125 
Q 73.4375 17.1875 78.515625 8.78125 
Q 83.59375 0.390625 86.328125 -4.6875 
Q 82.03125 -7.03125 78.90625 -8.984375 
Q 76.5625 -4.296875 72.65625 2.34375 
Q 46.484375 -1.171875 35.734375 -2.734375 
Q 25 -4.296875 20.3125 -6.25 
Q 19.140625 -2.34375 16.015625 2.34375 
Q 19.921875 3.90625 23.4375 7.8125 
Q 26.953125 11.71875 33.78125 24.21875 
Q 40.625 36.71875 43.359375 46.09375 
Q 49.21875 42.578125 52.34375 41.796875 
Q 48.046875 35.15625 40.8125 21.875 
Q 33.59375 8.59375 30.46875 4.6875 
Q 48.4375 6.25 69.53125 8.59375 
z
M 62.890625 81.25 
Q 70.3125 61.328125 78.703125 51.171875 
Q 87.109375 41.015625 95.703125 36.328125 
Q 90.234375 33.59375 88.28125 29.6875 
Q 76.5625 39.453125 68.359375 52.34375 
Q 60.15625 65.234375 55.078125 78.515625 
Q 59.375 79.296875 62.890625 81.25 
z
M 42.578125 74.609375 
Q 35.15625 58.984375 27.34375 47.265625 
Q 19.53125 35.546875 11.328125 27.734375 
Q 8.203125 32.03125 4.6875 33.984375 
Q 12.890625 40.234375 21.875 53.125 
Q 30.859375 66.015625 34.765625 78.125 
Q 37.5 76.171875 42.578125 74.609375 
z
" id="SimHei-20844"/>
       <path d="M 64.84375 39.453125 
Q 64.453125 33.984375 64.453125 27.734375 
L 64.453125 19.140625 
Q 64.453125 12.890625 64.84375 6.25 
L 56.25 6.25 
L 56.25 11.328125 
L 24.21875 11.328125 
L 24.21875 0.78125 
L 15.625 0.78125 
Q 16.40625 7.8125 16.40625 13.28125 
L 16.40625 27.734375 
Q 16.40625 32.8125 15.625 39.453125 
L 64.84375 39.453125 
z
M 89.84375 76.5625 
Q 89.453125 67.96875 89.453125 61.328125 
L 89.453125 0.390625 
Q 89.0625 -4.6875 84.171875 -6.4375 
Q 79.296875 -8.203125 69.921875 -9.375 
Q 69.921875 -5.859375 66.015625 0 
Q 76.171875 0 78.515625 0.78125 
Q 80.859375 1.5625 80.859375 6.640625 
L 80.859375 69.921875 
L 26.953125 69.921875 
Q 19.921875 69.921875 11.71875 69.53125 
L 11.71875 76.953125 
Q 19.921875 76.5625 26.5625 76.5625 
z
M 56.25 17.578125 
L 56.25 33.203125 
L 24.21875 33.203125 
L 24.21875 17.578125 
z
M 57.8125 57.8125 
Q 62.890625 57.8125 71.484375 58.203125 
L 71.484375 50.390625 
Q 63.28125 50.78125 58.203125 50.78125 
L 21.875 50.78125 
Q 14.453125 50.78125 6.640625 50.390625 
L 6.640625 58.203125 
Q 14.453125 57.8125 21.875 57.8125 
z
" id="SimHei-21496"/>
       <path d="M 29.296875 26.953125 
Q 38.671875 19.921875 46.875 12.890625 
Q 43.75 9.375 41.015625 5.859375 
Q 35.546875 13.28125 27.34375 19.53125 
Q 24.609375 13.28125 20.5 6.046875 
Q 16.40625 -1.171875 10.9375 -8.203125 
Q 7.8125 -4.296875 3.125 -2.34375 
Q 8.203125 1.171875 12.296875 7.03125 
Q 16.40625 12.890625 19.328125 20.109375 
Q 22.265625 27.34375 22.65625 35.15625 
L 19.140625 35.15625 
Q 13.28125 35.15625 6.25 34.765625 
L 6.25 41.796875 
Q 13.28125 41.40625 19.53125 41.40625 
L 23.046875 41.40625 
L 23.046875 58.203125 
Q 15.234375 58.203125 10.15625 57.8125 
L 10.15625 64.84375 
Q 15.625 64.453125 23.046875 64.453125 
Q 23.046875 77.734375 22.65625 82.8125 
Q 26.953125 82.421875 32.03125 81.640625 
Q 30.46875 79.296875 30.265625 74.015625 
Q 30.078125 68.75 30.078125 64.453125 
Q 38.671875 64.453125 42.1875 64.84375 
L 42.1875 57.8125 
Q 37.5 58.203125 30.078125 58.203125 
L 30.078125 41.40625 
Q 40.625 41.40625 44.140625 41.796875 
L 44.140625 34.765625 
Q 40.625 35.15625 29.6875 35.15625 
Q 29.6875 32.03125 29.296875 26.953125 
z
M 73.046875 57.8125 
Q 71.875 53.125 71.09375 43.359375 
Q 70.3125 33.59375 69.140625 26.171875 
L 75.78125 26.171875 
Q 75.390625 22.265625 75.390625 15.625 
L 75.390625 4.6875 
Q 75.390625 -0.390625 77.921875 -1.171875 
Q 80.46875 -1.953125 83.203125 -1.75 
Q 85.9375 -1.5625 86.90625 0.390625 
Q 87.890625 2.34375 89.0625 10.546875 
Q 92.1875 7.8125 96.875 6.25 
Q 93.75 -4.296875 91.59375 -6.4375 
Q 89.453125 -8.59375 84.375 -8.59375 
L 76.953125 -8.59375 
Q 68.359375 -8.59375 68.359375 0.390625 
L 68.359375 24.21875 
Q 66.796875 18.359375 64.25 13.671875 
Q 61.71875 8.984375 55.65625 3.125 
Q 49.609375 -2.734375 37.109375 -9.765625 
Q 34.765625 -6.25 30.46875 -3.515625 
Q 42.578125 1.5625 49.796875 8.203125 
Q 57.03125 14.84375 59.953125 21.484375 
Q 62.890625 28.125 63.671875 38.46875 
Q 64.453125 48.828125 64.453125 59.375 
Q 69.53125 58.203125 73.046875 57.8125 
z
M 89.0625 76.171875 
Q 88.671875 69.921875 88.671875 51.171875 
Q 88.671875 32.421875 89.0625 24.609375 
L 81.640625 24.609375 
L 81.640625 69.53125 
L 53.90625 69.53125 
L 53.90625 24.21875 
L 46.875 24.21875 
Q 47.265625 33.203125 47.265625 51.171875 
Q 47.265625 69.140625 46.875 76.171875 
L 89.0625 76.171875 
z
" id="SimHei-35268"/>
       <path d="M 89.0625 57.421875 
Q 88.671875 53.125 88.671875 42.578125 
Q 88.671875 32.03125 89.0625 26.953125 
L 68.359375 26.953125 
Q 67.96875 22.65625 67.578125 18.75 
L 81.640625 18.75 
Q 89.84375 18.75 94.140625 19.140625 
L 94.140625 12.890625 
Q 89.453125 13.28125 81.640625 13.28125 
L 73.4375 13.28125 
Q 79.296875 5.859375 84.953125 2.140625 
Q 90.625 -1.5625 96.875 -3.125 
Q 93.359375 -5.859375 91.40625 -9.765625 
Q 82.421875 -6.25 75.96875 0.390625 
Q 69.53125 7.03125 67.1875 12.109375 
L 66.015625 12.109375 
Q 62.5 4.296875 55.265625 -0.96875 
Q 48.046875 -6.25 38.671875 -9.765625 
Q 36.71875 -5.859375 33.203125 -3.125 
Q 43.359375 -1.171875 50 3.125 
Q 56.640625 7.421875 58.984375 13.28125 
L 51.953125 13.28125 
Q 43.75 13.28125 37.5 12.890625 
L 37.5 19.140625 
Q 43.75 18.75 52.34375 18.75 
L 60.546875 18.75 
Q 61.328125 23.046875 61.328125 26.953125 
L 42.96875 26.953125 
Q 43.359375 32.421875 43.359375 42.1875 
Q 43.359375 52.34375 42.96875 57.421875 
L 89.0625 57.421875 
z
M 33.984375 25.78125 
Q 31.640625 30.859375 26.171875 39.453125 
L 26.171875 4.6875 
Q 26.171875 -4.6875 26.5625 -8.59375 
L 18.359375 -8.59375 
Q 18.75 -4.296875 18.75 3.90625 
L 18.75 34.765625 
Q 17.578125 31.25 15.03125 26.75 
Q 12.5 22.265625 9.375 16.40625 
Q 7.03125 19.921875 3.125 22.265625 
Q 9.375 28.515625 13.28125 37.890625 
Q 17.1875 47.265625 18.359375 53.515625 
L 14.84375 53.515625 
Q 10.9375 53.515625 6.25 53.125 
L 6.25 59.765625 
Q 10.546875 59.375 12.890625 59.375 
L 18.75 59.375 
L 18.75 67.96875 
Q 18.75 74.609375 18.359375 80.46875 
L 26.5625 80.46875 
Q 26.171875 75.390625 26.171875 69.140625 
L 26.171875 59.375 
Q 32.421875 59.375 37.109375 59.765625 
L 37.109375 53.125 
Q 32.03125 53.515625 26.171875 53.515625 
L 26.171875 40.234375 
Q 28.90625 41.796875 31.25 43.359375 
Q 33.59375 39.453125 35.734375 36.328125 
Q 37.890625 33.203125 39.84375 30.078125 
Q 36.328125 27.734375 33.984375 25.78125 
z
M 52.734375 67.1875 
L 49.609375 67.1875 
Q 42.1875 67.1875 37.890625 66.796875 
L 37.890625 73.046875 
Q 42.1875 72.65625 49.21875 72.65625 
L 52.734375 72.65625 
Q 52.734375 78.125 52.34375 81.640625 
L 59.765625 81.640625 
Q 59.375 78.125 59.375 72.65625 
L 71.09375 72.65625 
Q 71.09375 77.734375 70.703125 81.25 
L 78.515625 81.25 
Q 78.125 76.953125 78.125 72.65625 
L 83.984375 72.65625 
Q 88.28125 72.65625 92.96875 73.046875 
L 92.96875 66.796875 
Q 88.28125 67.1875 83.984375 67.1875 
L 78.125 67.1875 
L 78.125 60.15625 
L 71.09375 60.15625 
L 71.09375 67.1875 
L 59.375 67.1875 
L 59.375 60.546875 
L 52.734375 60.546875 
z
M 82.421875 32.421875 
L 82.421875 39.453125 
L 50 39.453125 
L 50 32.421875 
z
M 82.421875 44.921875 
L 82.421875 51.953125 
L 50 51.953125 
L 50 44.921875 
z
" id="SimHei-27169"/>
      </defs>
      <use xlink:href="#SimHei-20844"/>
      <use x="100" xlink:href="#SimHei-21496"/>
      <use x="200" xlink:href="#SimHei-35268"/>
      <use x="300" xlink:href="#SimHei-27169"/>
     </g>
    </g>
   </g>
   <g id="matplotlib.axis_2">
    <g id="ytick_1">
     <g id="line2d_13">
      <path clip-path="url(#p3b5e9bfb2a)" d="M 180 647.724543 
L 1296 647.724543 
" style="fill:none;stroke:#b0b0b0;stroke-linecap:square;stroke-opacity:0.5;stroke-width:0.8;"/>
     </g>
     <g id="line2d_14">
      <defs>
       <path d="M 0 0 
L -3.5 0 
" id="m3770bcf78d" style="stroke:#000000;stroke-width:0.8;"/>
      </defs>
      <g>
       <use style="stroke:#000000;stroke-width:0.8;" x="180" xlink:href="#m3770bcf78d" y="647.724543"/>
      </g>
     </g>
     <g id="text_8">
      <!-- 13 -->
      <g transform="translate(153 654.599543)scale(0.2 -0.2)">
       <defs>
        <path d="M 3.90625 19.140625 
L 10.9375 20.3125 
Q 12.5 15.234375 16.015625 11.90625 
Q 19.53125 8.59375 24.796875 8.78125 
Q 30.078125 8.984375 33.203125 13.078125 
Q 36.328125 17.1875 35.9375 22.453125 
Q 35.546875 27.734375 31.828125 30.65625 
Q 28.125 33.59375 19.921875 34.765625 
L 19.921875 39.84375 
Q 28.125 40.625 31.828125 44.140625 
Q 35.546875 47.65625 35.15625 53.3125 
Q 34.765625 58.984375 30.078125 61.515625 
Q 25.390625 64.0625 20.109375 62.109375 
Q 14.84375 60.15625 11.71875 51.171875 
L 4.6875 52.34375 
Q 7.03125 59.375 11.125 64.0625 
Q 15.234375 68.75 22.265625 69.53125 
Q 29.296875 70.3125 34.5625 67.765625 
Q 39.84375 65.234375 41.984375 59.953125 
Q 44.140625 54.6875 42.578125 48.4375 
Q 41.015625 42.1875 33.59375 37.5 
Q 39.0625 35.15625 41.984375 30.46875 
Q 44.921875 25.78125 43.9375 18.15625 
Q 42.96875 10.546875 37.109375 5.859375 
Q 31.25 1.171875 23.828125 1.359375 
Q 16.40625 1.5625 10.9375 6.046875 
Q 5.46875 10.546875 3.90625 19.140625 
z
" id="SimHei-51"/>
       </defs>
       <use xlink:href="#SimHei-49"/>
       <use x="50" xlink:href="#SimHei-51"/>
      </g>
     </g>
    </g>
    <g id="ytick_2">
     <g id="line2d_15">
      <path clip-path="url(#p3b5e9bfb2a)" d="M 180 598.39361 
L 1296 598.39361 
" style="fill:none;stroke:#b0b0b0;stroke-linecap:square;stroke-opacity:0.5;stroke-width:0.8;"/>
     </g>
     <g id="line2d_16">
      <g>
       <use style="stroke:#000000;stroke-width:0.8;" x="180" xlink:href="#m3770bcf78d" y="598.39361"/>
      </g>
     </g>
     <g id="text_9">
      <!-- 14 -->
      <g transform="translate(153 605.26861)scale(0.2 -0.2)">
       <defs>
        <path d="M 31.25 17.1875 
L 1.171875 17.1875 
L 1.171875 23.828125 
L 32.8125 69.53125 
L 38.671875 69.53125 
L 38.671875 23.828125 
L 48.046875 23.828125 
L 48.046875 17.1875 
L 38.671875 17.1875 
L 38.671875 2.34375 
L 31.25 2.34375 
z
M 31.25 23.828125 
L 31.25 54.6875 
L 9.375 23.828125 
z
" id="SimHei-52"/>
       </defs>
       <use xlink:href="#SimHei-49"/>
       <use x="50" xlink:href="#SimHei-52"/>
      </g>
     </g>
    </g>
    <g id="ytick_3">
     <g id="line2d_17">
      <path clip-path="url(#p3b5e9bfb2a)" d="M 180 549.062678 
L 1296 549.062678 
" style="fill:none;stroke:#b0b0b0;stroke-linecap:square;stroke-opacity:0.5;stroke-width:0.8;"/>
     </g>
     <g id="line2d_18">
      <g>
       <use style="stroke:#000000;stroke-width:0.8;" x="180" xlink:href="#m3770bcf78d" y="549.062678"/>
      </g>
     </g>
     <g id="text_10">
      <!-- 15 -->
      <g transform="translate(153 555.937678)scale(0.2 -0.2)">
       <use xlink:href="#SimHei-49"/>
       <use x="50" xlink:href="#SimHei-53"/>
      </g>
     </g>
    </g>
    <g id="ytick_4">
     <g id="line2d_19">
      <path clip-path="url(#p3b5e9bfb2a)" d="M 180 499.731746 
L 1296 499.731746 
" style="fill:none;stroke:#b0b0b0;stroke-linecap:square;stroke-opacity:0.5;stroke-width:0.8;"/>
     </g>
     <g id="line2d_20">
      <g>
       <use style="stroke:#000000;stroke-width:0.8;" x="180" xlink:href="#m3770bcf78d" y="499.731746"/>
      </g>
     </g>
     <g id="text_11">
      <!-- 16 -->
      <g transform="translate(153 506.606746)scale(0.2 -0.2)">
       <defs>
        <path d="M 3.515625 19.53125 
Q 4.296875 30.859375 6.046875 34.765625 
Q 7.8125 38.671875 11.328125 44.53125 
L 27.34375 69.53125 
L 36.328125 69.53125 
L 19.921875 43.75 
Q 30.46875 46.484375 36.71875 42.96875 
Q 42.96875 39.453125 45.109375 34.953125 
Q 47.265625 30.46875 47.453125 25.1875 
Q 47.65625 19.921875 45.890625 14.84375 
Q 44.140625 9.765625 39.640625 5.65625 
Q 35.15625 1.5625 27.140625 1.171875 
Q 19.140625 0.78125 13.46875 4.09375 
Q 7.8125 7.421875 5.65625 13.46875 
Q 3.515625 19.53125 4.296875 30.859375 
z
M 12.5 16.015625 
Q 19.53125 8.59375 25.390625 8.203125 
Q 31.25 7.8125 35.15625 12.109375 
Q 39.0625 16.40625 39.0625 24.609375 
Q 39.0625 32.8125 34.171875 35.9375 
Q 29.296875 39.0625 23.234375 38.28125 
Q 17.1875 37.5 14.453125 32.421875 
Q 11.71875 27.34375 12.109375 21.671875 
Q 12.5 16.015625 19.53125 8.59375 
z
" id="SimHei-54"/>
       </defs>
       <use xlink:href="#SimHei-49"/>
       <use x="50" xlink:href="#SimHei-54"/>
      </g>
     </g>
    </g>
    <g id="ytick_5">
     <g id="line2d_21">
      <path clip-path="url(#p3b5e9bfb2a)" d="M 180 450.400814 
L 1296 450.400814 
" style="fill:none;stroke:#b0b0b0;stroke-linecap:square;stroke-opacity:0.5;stroke-width:0.8;"/>
     </g>
     <g id="line2d_22">
      <g>
       <use style="stroke:#000000;stroke-width:0.8;" x="180" xlink:href="#m3770bcf78d" y="450.400814"/>
      </g>
     </g>
     <g id="text_12">
      <!-- 17 -->
      <g transform="translate(153 457.275814)scale(0.2 -0.2)">
       <defs>
        <path d="M 13.28125 2.34375 
Q 20.3125 32.03125 37.890625 61.328125 
L 4.296875 61.328125 
L 4.296875 68.359375 
L 46.09375 68.359375 
L 46.09375 61.71875 
Q 27.734375 32.03125 21.875 2.34375 
L 13.28125 2.34375 
z
" id="SimHei-55"/>
       </defs>
       <use xlink:href="#SimHei-49"/>
       <use x="50" xlink:href="#SimHei-55"/>
      </g>
     </g>
    </g>
    <g id="ytick_6">
     <g id="line2d_23">
      <path clip-path="url(#p3b5e9bfb2a)" d="M 180 401.069882 
L 1296 401.069882 
" style="fill:none;stroke:#b0b0b0;stroke-linecap:square;stroke-opacity:0.5;stroke-width:0.8;"/>
     </g>
     <g id="line2d_24">
      <g>
       <use style="stroke:#000000;stroke-width:0.8;" x="180" xlink:href="#m3770bcf78d" y="401.069882"/>
      </g>
     </g>
     <g id="text_13">
      <!-- 18 -->
      <g transform="translate(153 407.944882)scale(0.2 -0.2)">
       <defs>
        <path d="M 2.734375 16.796875 
Q 2.734375 26.171875 5.078125 30.65625 
Q 7.421875 35.15625 12.890625 37.890625 
Q 8.203125 40.625 6.640625 43.9375 
Q 5.078125 47.265625 4.875 51.5625 
Q 4.6875 55.859375 6.046875 58.984375 
Q 7.421875 62.109375 10.15625 64.84375 
Q 12.890625 67.578125 16.203125 68.546875 
Q 19.53125 69.53125 23.4375 69.53125 
Q 27.34375 69.53125 30.46875 68.75 
Q 33.59375 67.96875 37.109375 65.421875 
Q 40.625 62.890625 42.1875 58.203125 
Q 43.75 53.515625 41.984375 47.265625 
Q 40.234375 41.015625 32.8125 37.5 
Q 39.453125 35.546875 42.1875 31.4375 
Q 44.921875 27.34375 44.921875 21.484375 
Q 44.921875 15.625 43.15625 12.109375 
Q 41.40625 8.59375 39.25 6.25 
Q 37.109375 3.90625 33.390625 2.53125 
Q 29.6875 1.171875 24.015625 1.171875 
Q 18.359375 1.171875 14.25 2.53125 
Q 10.15625 3.90625 7.421875 6.640625 
Q 4.6875 9.375 3.703125 13.078125 
Q 2.734375 16.796875 2.734375 26.171875 
z
M 10.9375 26.5625 
Q 10.546875 17.1875 12.296875 13.671875 
Q 14.0625 10.15625 18.75 9.171875 
Q 23.4375 8.203125 28.515625 9.375 
Q 33.59375 10.546875 35.546875 14.84375 
Q 37.5 19.140625 36.90625 23.4375 
Q 36.328125 27.734375 32.03125 30.65625 
Q 27.734375 33.59375 22.65625 33.203125 
Q 17.578125 32.8125 14.25 29.6875 
Q 10.9375 26.5625 10.546875 17.1875 
z
M 12.109375 56.25 
Q 12.109375 48.4375 14.84375 44.921875 
Q 17.578125 41.40625 23.4375 41.40625 
Q 29.296875 41.40625 32.21875 44.921875 
Q 35.15625 48.4375 34.953125 53.3125 
Q 34.765625 58.203125 31.4375 60.546875 
Q 28.125 62.890625 22.453125 62.5 
Q 16.796875 62.109375 14.453125 59.171875 
Q 12.109375 56.25 12.109375 48.4375 
z
" id="SimHei-56"/>
       </defs>
       <use xlink:href="#SimHei-49"/>
       <use x="50" xlink:href="#SimHei-56"/>
      </g>
     </g>
    </g>
    <g id="ytick_7">
     <g id="line2d_25">
      <path clip-path="url(#p3b5e9bfb2a)" d="M 180 351.738949 
L 1296 351.738949 
" style="fill:none;stroke:#b0b0b0;stroke-linecap:square;stroke-opacity:0.5;stroke-width:0.8;"/>
     </g>
     <g id="line2d_26">
      <g>
       <use style="stroke:#000000;stroke-width:0.8;" x="180" xlink:href="#m3770bcf78d" y="351.738949"/>
      </g>
     </g>
     <g id="text_14">
      <!-- 19 -->
      <g transform="translate(153 358.613949)scale(0.2 -0.2)">
       <defs>
        <path d="M 12.5 1.171875 
Q 21.09375 15.625 26.5625 27.34375 
Q 16.796875 25.78125 10.34375 29.875 
Q 3.90625 33.984375 2.53125 41.015625 
Q 1.171875 48.046875 2.734375 53.703125 
Q 4.296875 59.375 7.609375 63.078125 
Q 10.9375 66.796875 15.625 68.359375 
Q 20.3125 69.921875 24.015625 69.921875 
Q 27.734375 69.921875 31.640625 68.359375 
Q 35.546875 66.796875 38.671875 63.671875 
Q 41.796875 60.546875 42.96875 57.21875 
Q 44.140625 53.90625 44.140625 48.625 
Q 44.140625 43.359375 40.234375 35.15625 
Q 36.328125 26.953125 21.09375 1.171875 
z
M 9.765625 50 
Q 10.9375 39.84375 14.640625 36.515625 
Q 18.359375 33.203125 22.65625 33.59375 
Q 26.953125 33.984375 29.484375 35.9375 
Q 32.03125 37.890625 34.375 42.578125 
Q 35.9375 48.4375 35.15625 52.53125 
Q 34.375 56.640625 31.046875 59.375 
Q 27.734375 62.109375 23.828125 62.109375 
Q 21.484375 62.5 17.765625 60.9375 
Q 14.0625 59.375 11.90625 54.6875 
Q 9.765625 50 10.9375 39.84375 
z
" id="SimHei-57"/>
       </defs>
       <use xlink:href="#SimHei-49"/>
       <use x="50" xlink:href="#SimHei-57"/>
      </g>
     </g>
    </g>
    <g id="ytick_8">
     <g id="line2d_27">
      <path clip-path="url(#p3b5e9bfb2a)" d="M 180 302.408017 
L 1296 302.408017 
" style="fill:none;stroke:#b0b0b0;stroke-linecap:square;stroke-opacity:0.5;stroke-width:0.8;"/>
     </g>
     <g id="line2d_28">
      <g>
       <use style="stroke:#000000;stroke-width:0.8;" x="180" xlink:href="#m3770bcf78d" y="302.408017"/>
      </g>
     </g>
     <g id="text_15">
      <!-- 20 -->
      <g transform="translate(153 309.283017)scale(0.2 -0.2)">
       <use xlink:href="#SimHei-50"/>
       <use x="50" xlink:href="#SimHei-48"/>
      </g>
     </g>
    </g>
    <g id="ytick_9">
     <g id="line2d_29">
      <path clip-path="url(#p3b5e9bfb2a)" d="M 180 253.077085 
L 1296 253.077085 
" style="fill:none;stroke:#b0b0b0;stroke-linecap:square;stroke-opacity:0.5;stroke-width:0.8;"/>
     </g>
     <g id="line2d_30">
      <g>
       <use style="stroke:#000000;stroke-width:0.8;" x="180" xlink:href="#m3770bcf78d" y="253.077085"/>
      </g>
     </g>
     <g id="text_16">
      <!-- 21 -->
      <g transform="translate(153 259.952085)scale(0.2 -0.2)">
       <use xlink:href="#SimHei-50"/>
       <use x="50" xlink:href="#SimHei-49"/>
      </g>
     </g>
    </g>
    <g id="ytick_10">
     <g id="line2d_31">
      <path clip-path="url(#p3b5e9bfb2a)" d="M 180 203.746153 
L 1296 203.746153 
" style="fill:none;stroke:#b0b0b0;stroke-linecap:square;stroke-opacity:0.5;stroke-width:0.8;"/>
     </g>
     <g id="line2d_32">
      <g>
       <use style="stroke:#000000;stroke-width:0.8;" x="180" xlink:href="#m3770bcf78d" y="203.746153"/>
      </g>
     </g>
     <g id="text_17">
      <!-- 22 -->
      <g transform="translate(153 210.621153)scale(0.2 -0.2)">
       <use xlink:href="#SimHei-50"/>
       <use x="50" xlink:href="#SimHei-50"/>
      </g>
     </g>
    </g>
    <g id="text_18">
     <!-- 工资（K） -->
     <g transform="translate(146.5 469.8)rotate(-90)scale(0.2 -0.2)">
      <defs>
       <path d="M 69.921875 73.046875 
Q 79.296875 73.046875 87.109375 73.4375 
L 87.109375 65.625 
Q 79.296875 66.015625 69.921875 66.015625 
L 53.90625 66.015625 
L 53.90625 4.296875 
L 79.296875 4.296875 
Q 88.28125 4.296875 95.703125 4.6875 
L 95.703125 -3.125 
Q 88.28125 -2.734375 79.6875 -2.734375 
L 19.140625 -2.734375 
Q 10.546875 -2.734375 4.296875 -3.125 
L 4.296875 4.6875 
Q 10.9375 4.296875 19.53125 4.296875 
L 45.3125 4.296875 
L 45.3125 66.015625 
L 29.6875 66.015625 
Q 19.53125 66.015625 12.109375 65.625 
L 12.109375 73.4375 
Q 19.53125 73.046875 29.6875 73.046875 
z
" id="SimHei-24037"/>
       <path d="M 82.8125 33.59375 
Q 82.421875 28.515625 82.421875 22.65625 
Q 82.421875 16.796875 82.8125 8.984375 
L 75 8.984375 
L 75 26.953125 
L 26.5625 26.953125 
L 26.5625 6.640625 
L 18.75 6.640625 
Q 19.140625 15.625 19.140625 21.484375 
Q 19.140625 27.734375 18.75 33.59375 
L 82.8125 33.59375 
z
M 66.015625 63.671875 
Q 63.28125 58.984375 65.625 55.65625 
Q 67.96875 52.34375 72.0625 49.40625 
Q 76.171875 46.484375 82.21875 44.53125 
Q 88.28125 42.578125 95.703125 42.1875 
Q 92.578125 37.890625 91.015625 33.984375 
Q 81.25 35.9375 73.625 39.84375 
Q 66.015625 43.75 60.9375 52.34375 
Q 57.421875 43.359375 50.78125 39.84375 
Q 44.140625 36.328125 36.328125 33.984375 
Q 33.203125 37.5 30.078125 40.234375 
Q 46.484375 43.359375 51.5625 49.609375 
Q 56.640625 55.859375 57.03125 64.84375 
L 66.015625 63.671875 
z
M 48.828125 66.40625 
Q 44.140625 60.15625 39.84375 57.03125 
Q 37.109375 59.765625 33.984375 61.71875 
Q 38.671875 64.84375 42.765625 70.109375 
Q 46.875 75.390625 49.21875 81.25 
Q 52.734375 79.6875 57.8125 78.90625 
Q 55.859375 75.390625 53.125 72.65625 
L 89.84375 72.65625 
Q 88.671875 70.3125 82.8125 57.421875 
Q 78.125 58.59375 75 58.984375 
Q 76.953125 63.28125 78.515625 66.40625 
L 48.828125 66.40625 
z
M 55.078125 21.484375 
Q 53.125 17.1875 52.140625 12.890625 
Q 51.171875 8.59375 47.0625 4.09375 
Q 42.96875 -0.390625 35.15625 -4.296875 
Q 27.34375 -8.203125 12.5 -10.546875 
Q 11.328125 -6.640625 7.8125 -3.125 
Q 19.140625 -2.734375 26.75 -0.1875 
Q 34.375 2.34375 38.28125 5.46875 
Q 42.1875 8.59375 43.9375 13.078125 
Q 45.703125 17.578125 45.703125 22.65625 
Q 50.390625 21.875 55.078125 21.484375 
z
M 59.765625 10.9375 
Q 67.1875 8.203125 74.21875 5.46875 
Q 81.25 2.734375 91.015625 -1.5625 
Q 88.671875 -4.6875 86.71875 -9.375 
Q 79.296875 -5.078125 72.0625 -1.953125 
Q 64.84375 1.171875 56.640625 3.90625 
Q 58.59375 7.03125 59.765625 10.9375 
z
M 32.421875 51.953125 
Q 22.65625 42.96875 13.671875 32.03125 
Q 9.765625 36.328125 7.421875 37.890625 
Q 19.921875 47.65625 26.953125 56.640625 
Q 28.90625 54.6875 32.421875 51.953125 
z
M 26.5625 62.109375 
Q 20.3125 66.796875 9.765625 73.046875 
Q 12.5 75.78125 14.453125 78.515625 
Q 17.96875 76.171875 31.25 67.96875 
Q 28.90625 65.625 26.5625 62.109375 
z
" id="SimHei-36164"/>
       <path d="M 84.765625 79.6875 
L 89.0625 74.609375 
Q 66.796875 58.203125 67.578125 36.71875 
Q 67.96875 16.015625 88.671875 0.78125 
L 84.375 -4.296875 
Q 60.546875 12.890625 61.328125 39.0625 
Q 61.328125 60.546875 84.765625 79.6875 
z
" id="SimHei-65288"/>
       <path d="M 47.65625 1.953125 
L 37.5 1.953125 
L 19.53125 35.15625 
L 13.28125 26.953125 
L 13.28125 1.953125 
L 4.296875 1.953125 
L 4.296875 68.75 
L 13.28125 68.75 
L 13.28125 39.84375 
L 35.546875 68.75 
L 46.09375 68.75 
L 25.390625 42.578125 
z
" id="SimHei-75"/>
       <path d="M 15.625 79.6875 
Q 39.0625 60.546875 39.0625 39.0625 
Q 39.84375 12.890625 16.015625 -4.296875 
L 11.71875 0.78125 
Q 32.421875 16.015625 32.8125 36.71875 
Q 33.59375 58.203125 11.328125 74.609375 
L 15.625 79.6875 
z
" id="SimHei-65289"/>
      </defs>
      <use xlink:href="#SimHei-24037"/>
      <use x="100" xlink:href="#SimHei-36164"/>
      <use x="200" xlink:href="#SimHei-65288"/>
      <use x="300" xlink:href="#SimHei-75"/>
      <use x="350" xlink:href="#SimHei-65289"/>
     </g>
    </g>
   </g>
   <g id="line2d_33">
    <path clip-path="url(#p3b5e9bfb2a)" d="M 230.727273 653.890909 
L 433.636364 422.808936 
L 636.545455 405.533156 
L 839.454545 331.254071 
L 1042.363636 319.10464 
L 1245.272727 195.709091 
" style="fill:none;stroke:#ff0000;stroke-linecap:square;stroke-opacity:0.5;stroke-width:20;"/>
    <defs>
     <path d="M 0 -3 
L -0.673542 -0.927051 
L -2.85317 -0.927051 
L -1.089814 0.354102 
L -1.763356 2.427051 
L -0 1.145898 
L 1.763356 2.427051 
L 1.089814 0.354102 
L 2.85317 -0.927051 
L 0.673542 -0.927051 
z
" id="ma5e450a7d1" style="stroke:#ff0000;stroke-linejoin:bevel;stroke-opacity:0.5;"/>
    </defs>
    <g clip-path="url(#p3b5e9bfb2a)">
     <use style="fill:#ff0000;fill-opacity:0.5;stroke:#ff0000;stroke-linejoin:bevel;stroke-opacity:0.5;" x="230.727273" xlink:href="#ma5e450a7d1" y="653.890909"/>
     <use style="fill:#ff0000;fill-opacity:0.5;stroke:#ff0000;stroke-linejoin:bevel;stroke-opacity:0.5;" x="433.636364" xlink:href="#ma5e450a7d1" y="422.808936"/>
     <use style="fill:#ff0000;fill-opacity:0.5;stroke:#ff0000;stroke-linejoin:bevel;stroke-opacity:0.5;" x="636.545455" xlink:href="#ma5e450a7d1" y="405.533156"/>
     <use style="fill:#ff0000;fill-opacity:0.5;stroke:#ff0000;stroke-linejoin:bevel;stroke-opacity:0.5;" x="839.454545" xlink:href="#ma5e450a7d1" y="331.254071"/>
     <use style="fill:#ff0000;fill-opacity:0.5;stroke:#ff0000;stroke-linejoin:bevel;stroke-opacity:0.5;" x="1042.363636" xlink:href="#ma5e450a7d1" y="319.10464"/>
     <use style="fill:#ff0000;fill-opacity:0.5;stroke:#ff0000;stroke-linejoin:bevel;stroke-opacity:0.5;" x="1245.272727" xlink:href="#ma5e450a7d1" y="195.709091"/>
    </g>
   </g>
   <g id="patch_3">
    <path d="M 180 676.8 
L 180 172.8 
" style="fill:none;stroke:#000000;stroke-linecap:square;stroke-linejoin:miter;stroke-width:0.8;"/>
   </g>
   <g id="patch_4">
    <path d="M 1296 676.8 
L 1296 172.8 
" style="fill:none;stroke:#000000;stroke-linecap:square;stroke-linejoin:miter;stroke-width:0.8;"/>
   </g>
   <g id="patch_5">
    <path d="M 180 676.8 
L 1296 676.8 
" style="fill:none;stroke:#000000;stroke-linecap:square;stroke-linejoin:miter;stroke-width:0.8;"/>
   </g>
   <g id="patch_6">
    <path d="M 180 172.8 
L 1296 172.8 
" style="fill:none;stroke:#000000;stroke-linecap:square;stroke-linejoin:miter;stroke-width:0.8;"/>
   </g>
   <g id="legend_1">
    <g id="patch_7">
     <path d="M 211.5 274.190625 
L 1030.5 274.190625 
Q 1039.5 274.190625 1039.5 265.190625 
L 1039.5 204.3 
Q 1039.5 195.3 1030.5 195.3 
L 211.5 195.3 
Q 202.5 195.3 202.5 204.3 
L 202.5 265.190625 
Q 202.5 274.190625 211.5 274.190625 
z
" style="fill:#ffffff;opacity:0.8;stroke:#cccccc;stroke-linejoin:miter;"/>
    </g>
    <g id="line2d_34">
     <path d="M 220.5 234.815625 
L 310.5 234.815625 
" style="fill:none;stroke:#ff0000;stroke-linecap:square;stroke-opacity:0.5;stroke-width:20;"/>
    </g>
    <g id="line2d_35">
     <g>
      <use style="fill:#ff0000;fill-opacity:0.5;stroke:#ff0000;stroke-linejoin:bevel;stroke-opacity:0.5;" x="265.5" xlink:href="#ma5e450a7d1" y="234.815625"/>
     </g>
    </g>
    <g id="text_19">
     <!-- python公司规模对应平均工资变化 -->
     <g transform="translate(346.5 250.565625)scale(0.45 -0.45)">
      <defs>
       <path d="M 44.140625 23.828125 
Q 44.140625 12.5 38.671875 6.640625 
Q 33.203125 0.78125 25.390625 0.78125 
Q 21.09375 0.78125 17.96875 2.53125 
Q 14.84375 4.296875 12.5 7.8125 
L 12.5 -12.5 
L 4.6875 -12.5 
L 4.6875 45.703125 
L 12.5 45.703125 
L 12.5 39.84375 
Q 14.84375 43.359375 17.96875 44.921875 
Q 21.09375 46.484375 25.390625 46.484375 
Q 33.203125 46.484375 38.671875 40.8125 
Q 44.140625 35.15625 44.140625 23.828125 
z
M 35.546875 23.828125 
Q 35.546875 31.25 32.609375 35.34375 
Q 29.6875 39.453125 23.828125 39.453125 
Q 19.140625 39.453125 15.8125 35.34375 
Q 12.5 31.25 12.5 23.828125 
Q 12.5 16.40625 15.8125 12.109375 
Q 19.140625 7.8125 23.828125 7.8125 
Q 29.6875 7.8125 32.609375 12.109375 
Q 35.546875 16.40625 35.546875 23.828125 
z
" id="SimHei-112"/>
       <path d="M 45.3125 45.703125 
L 27.34375 -1.5625 
Q 25.78125 -7.03125 22.65625 -9.765625 
Q 19.53125 -12.5 14.84375 -12.5 
Q 12.890625 -12.5 11.125 -12.296875 
Q 9.375 -12.109375 7.8125 -11.328125 
L 7.8125 -3.515625 
Q 9.375 -4.296875 10.9375 -4.6875 
Q 12.5 -5.078125 13.671875 -5.078125 
Q 16.796875 -5.078125 17.96875 -4.09375 
Q 19.140625 -3.125 20.3125 0.390625 
L 3.125 45.703125 
L 11.71875 45.703125 
L 24.21875 11.328125 
L 24.609375 11.328125 
L 36.71875 45.703125 
z
" id="SimHei-121"/>
       <path d="M 42.96875 3.125 
Q 41.015625 2.34375 38.46875 1.75 
Q 35.9375 1.171875 31.640625 1.171875 
Q 24.609375 1.171875 20.3125 5.078125 
Q 16.015625 8.984375 16.015625 16.015625 
L 16.015625 39.453125 
L 2.734375 39.453125 
L 2.734375 45.703125 
L 16.015625 45.703125 
L 16.015625 60.9375 
L 23.828125 60.9375 
L 23.828125 45.703125 
L 39.84375 45.703125 
L 39.84375 39.453125 
L 23.828125 39.453125 
L 23.828125 15.625 
Q 23.828125 12.5 25.390625 10.34375 
Q 26.953125 8.203125 31.25 8.203125 
Q 35.546875 8.203125 38.28125 8.984375 
Q 41.015625 9.765625 42.96875 10.9375 
z
" id="SimHei-116"/>
       <path d="M 43.75 1.953125 
L 35.9375 1.953125 
L 35.9375 30.078125 
Q 35.9375 34.765625 33.59375 37.5 
Q 31.25 40.234375 27.34375 40.234375 
Q 22.265625 40.234375 17.765625 34.953125 
Q 13.28125 29.6875 13.28125 21.875 
L 13.28125 1.953125 
L 5.46875 1.953125 
L 5.46875 68.75 
L 13.28125 68.75 
L 13.28125 37.5 
Q 16.40625 41.796875 20.109375 44.140625 
Q 23.828125 46.484375 29.6875 46.484375 
Q 36.71875 46.484375 40.234375 42.578125 
Q 43.75 38.671875 43.75 32.8125 
z
" id="SimHei-104"/>
       <path d="M 45.703125 23.828125 
Q 45.703125 13.671875 39.453125 7.421875 
Q 33.203125 1.171875 24.609375 1.171875 
Q 16.015625 1.171875 9.765625 7.421875 
Q 3.515625 13.671875 3.515625 23.828125 
Q 3.515625 33.984375 9.765625 40.234375 
Q 16.015625 46.484375 24.609375 46.484375 
Q 33.203125 46.484375 39.453125 40.234375 
Q 45.703125 33.984375 45.703125 23.828125 
z
M 37.109375 23.828125 
Q 37.109375 31.640625 33.203125 35.546875 
Q 29.296875 39.453125 24.609375 39.453125 
Q 19.921875 39.453125 16.015625 35.546875 
Q 12.109375 31.640625 12.109375 23.828125 
Q 12.109375 16.015625 16.015625 12.109375 
Q 19.921875 8.203125 24.609375 8.203125 
Q 29.296875 8.203125 33.203125 12.109375 
Q 37.109375 16.015625 37.109375 23.828125 
z
" id="SimHei-111"/>
       <path d="M 43.75 1.953125 
L 35.9375 1.953125 
L 35.9375 30.078125 
Q 35.9375 34.765625 33.59375 37.5 
Q 31.25 40.234375 27.34375 40.234375 
Q 22.265625 40.234375 17.765625 34.953125 
Q 13.28125 29.6875 13.28125 21.875 
L 13.28125 1.953125 
L 5.46875 1.953125 
L 5.46875 45.703125 
L 13.28125 45.703125 
L 13.28125 37.5 
Q 16.40625 41.796875 20.109375 44.140625 
Q 23.828125 46.484375 29.6875 46.484375 
Q 36.71875 46.484375 40.234375 42.578125 
Q 43.75 38.671875 43.75 32.8125 
z
" id="SimHei-110"/>
       <path d="M 8.203125 66.40625 
Q 14.0625 66.015625 21.875 66.015625 
L 44.140625 66.015625 
Q 40.234375 41.015625 34.375 27.34375 
Q 44.140625 13.671875 48.828125 6.25 
Q 46.09375 4.296875 42.578125 1.171875 
Q 34.375 15.234375 30.46875 20.3125 
Q 25.78125 12.109375 21.09375 6.640625 
Q 16.40625 1.171875 9.375 -5.46875 
Q 6.640625 -1.953125 3.125 -0.390625 
Q 9.765625 4.296875 15.234375 10.546875 
Q 20.703125 16.796875 25.78125 26.5625 
Q 16.40625 37.890625 8.59375 45.3125 
Q 10.9375 47.265625 14.0625 50.390625 
Q 25.390625 37.890625 29.296875 33.59375 
Q 34.375 47.65625 35.9375 59.765625 
L 21.875 59.765625 
Q 14.0625 59.765625 8.203125 59.375 
z
M 45.703125 57.8125 
Q 55.078125 57.421875 58.59375 57.421875 
L 75.390625 57.421875 
L 75.390625 69.140625 
Q 75.390625 74.21875 74.609375 80.078125 
L 83.59375 80.078125 
Q 83.203125 75.390625 83.203125 68.359375 
L 83.203125 57.421875 
Q 87.109375 57.421875 96.09375 57.8125 
L 96.09375 50.78125 
Q 87.109375 51.171875 83.203125 51.171875 
L 83.203125 1.953125 
Q 83.59375 -5.46875 78.3125 -7.421875 
Q 73.046875 -9.375 66.40625 -10.15625 
Q 65.234375 -5.46875 62.890625 -1.5625 
Q 71.484375 -1.5625 73.625 -0.578125 
Q 75.78125 0.390625 75.390625 5.078125 
L 75.390625 51.171875 
L 58.984375 51.171875 
Q 55.46875 51.171875 45.703125 50.390625 
z
M 53.90625 42.578125 
Q 60.546875 30.859375 65.234375 20.703125 
Q 60.15625 18.75 57.8125 16.796875 
Q 54.296875 27.34375 47.65625 38.671875 
Q 50.390625 39.84375 53.90625 42.578125 
z
" id="SimHei-23545"/>
       <path d="M 55.078125 82.421875 
Q 57.8125 75.390625 60.15625 68.75 
L 74.21875 68.75 
Q 82.421875 68.75 91.40625 69.140625 
L 91.40625 62.109375 
Q 82.421875 62.5 74.21875 62.5 
L 23.046875 62.5 
Q 23.046875 39.453125 22.265625 29.6875 
Q 21.484375 19.921875 19.328125 9.765625 
Q 17.1875 -0.390625 11.71875 -9.765625 
Q 8.984375 -6.25 4.6875 -3.90625 
Q 9.765625 2.734375 12.5 14.640625 
Q 15.234375 26.5625 15.625 40.234375 
Q 16.015625 53.90625 15.625 68.75 
L 50.78125 68.75 
Q 49.609375 74.21875 46.875 79.6875 
Q 50.78125 80.46875 55.078125 82.421875 
z
M 87.890625 48.828125 
Q 83.984375 40.234375 81.046875 32.03125 
Q 78.125 23.828125 69.53125 3.515625 
L 80.46875 3.515625 
Q 85.9375 3.515625 92.578125 3.90625 
L 92.578125 -4.296875 
Q 85.9375 -3.90625 80.46875 -3.90625 
L 38.671875 -3.90625 
Q 32.03125 -3.90625 22.65625 -4.296875 
L 22.65625 3.90625 
Q 31.640625 3.515625 38.671875 3.515625 
L 61.71875 3.515625 
Q 67.578125 15.625 72.0625 28.90625 
Q 76.5625 42.1875 78.515625 52.34375 
Q 83.59375 49.609375 87.890625 48.828125 
z
M 32.8125 44.53125 
Q 42.96875 28.515625 48.046875 16.40625 
Q 45.3125 14.84375 41.40625 12.5 
Q 33.59375 30.078125 26.5625 40.234375 
Q 30.078125 42.96875 32.8125 44.53125 
z
M 51.5625 53.515625 
Q 59.375 39.84375 65.234375 26.5625 
Q 61.71875 24.609375 57.8125 22.65625 
Q 53.125 35.9375 45.3125 50 
Q 48.4375 51.171875 51.5625 53.515625 
z
" id="SimHei-24212"/>
       <path d="M 70.703125 75.390625 
Q 76.5625 75.390625 85.15625 75.78125 
L 85.15625 68.359375 
Q 76.953125 68.75 70.703125 68.75 
L 54.296875 68.75 
L 54.296875 31.640625 
L 78.125 31.640625 
Q 86.71875 31.640625 94.140625 32.03125 
L 94.140625 24.609375 
Q 86.71875 25 78.125 25 
L 54.296875 25 
L 54.296875 7.03125 
Q 54.296875 -1.5625 54.6875 -9.375 
L 45.703125 -9.375 
Q 46.09375 -1.5625 46.09375 7.03125 
L 46.09375 25 
L 17.578125 25 
Q 12.109375 25 5.859375 24.609375 
L 5.859375 32.03125 
Q 12.109375 31.640625 18.359375 31.640625 
L 46.09375 31.640625 
L 46.09375 68.75 
L 27.734375 68.75 
Q 21.875 68.75 13.671875 68.359375 
L 13.671875 75.78125 
Q 21.875 75.390625 27.34375 75.390625 
z
M 61.328125 40.625 
Q 70.3125 51.5625 76.5625 64.453125 
Q 80.46875 61.71875 84.375 59.765625 
Q 74.609375 44.53125 67.96875 35.9375 
Q 64.84375 38.671875 61.328125 40.625 
z
M 30.859375 36.71875 
Q 25 48.4375 16.40625 58.203125 
Q 19.53125 60.546875 22.65625 63.28125 
Q 32.421875 51.5625 38.28125 42.578125 
Q 33.59375 39.0625 30.859375 36.71875 
z
" id="SimHei-24179"/>
       <path d="M 90.234375 4.296875 
Q 90.234375 -5.078125 83.78125 -7.03125 
Q 77.34375 -8.984375 69.140625 -9.375 
Q 68.359375 -4.296875 66.40625 0.390625 
Q 77.34375 -0.390625 80.078125 0.96875 
Q 82.8125 2.34375 82.8125 7.8125 
L 83.984375 57.8125 
L 55.46875 57.8125 
Q 53.515625 52.734375 50.96875 47.453125 
Q 48.4375 42.1875 45.703125 37.5 
Q 41.796875 39.84375 38.671875 41.015625 
Q 49.21875 56.640625 54.6875 81.25 
Q 59.375 79.6875 63.671875 78.515625 
Q 62.109375 76.171875 60.546875 72.65625 
Q 58.984375 69.140625 57.421875 64.453125 
L 92.1875 64.453125 
L 90.234375 4.296875 
z
M 19.53125 56.640625 
L 19.53125 68.359375 
Q 19.53125 74.609375 19.140625 79.6875 
L 27.734375 79.6875 
Q 27.34375 73.828125 27.34375 68.359375 
L 27.34375 56.640625 
L 29.6875 56.640625 
Q 34.375 56.640625 39.453125 57.03125 
L 39.453125 49.21875 
Q 34.375 49.609375 29.6875 49.609375 
L 27.34375 49.609375 
L 27.34375 17.1875 
L 39.0625 21.484375 
Q 38.671875 17.578125 39.453125 14.0625 
Q 19.140625 7.421875 15.03125 5.65625 
Q 10.9375 3.90625 7.421875 2.34375 
Q 5.859375 7.421875 3.90625 11.71875 
Q 8.984375 12.5 12.5 13.28125 
Q 16.015625 14.0625 19.53125 15.234375 
L 19.53125 49.609375 
L 17.578125 49.609375 
Q 13.28125 49.609375 6.25 49.21875 
L 6.25 57.03125 
Q 13.28125 56.640625 17.1875 56.640625 
z
M 77.34375 25.390625 
Q 73.046875 22.265625 64.640625 16.40625 
Q 56.25 10.546875 49.609375 4.6875 
Q 46.875 8.984375 44.53125 12.109375 
Q 52.34375 16.40625 58.78125 20.703125 
Q 65.234375 25 74.609375 32.421875 
Q 75.390625 28.90625 77.34375 25.390625 
z
M 58.984375 49.21875 
Q 64.453125 43.75 69.921875 35.9375 
Q 66.40625 33.203125 64.0625 30.859375 
Q 60.9375 36.328125 53.90625 44.140625 
Q 56.25 46.875 58.984375 49.21875 
z
" id="SimHei-22343"/>
       <path d="M 81.25 30.859375 
Q 77.34375 25 70.890625 17.765625 
Q 64.453125 10.546875 57.421875 5.859375 
Q 61.328125 3.515625 71.875 1.359375 
Q 82.421875 -0.78125 93.75 -1.171875 
Q 89.0625 -6.25 88.28125 -9.765625 
Q 75.78125 -8.203125 65.8125 -4.875 
Q 55.859375 -1.5625 50.390625 1.953125 
Q 43.75 -1.953125 33.59375 -5.078125 
Q 23.4375 -8.203125 10.9375 -10.546875 
Q 9.375 -6.640625 6.25 -2.734375 
Q 14.84375 -2.34375 26.359375 0.1875 
Q 37.890625 2.734375 44.140625 5.859375 
Q 35.546875 12.109375 26.171875 24.609375 
Q 21.09375 24.609375 15.625 24.21875 
L 15.625 31.25 
Q 22.65625 30.859375 32.421875 30.859375 
z
M 50.390625 82.421875 
Q 53.125 76.5625 55.46875 69.921875 
L 73.046875 69.921875 
Q 84.375 69.921875 93.359375 70.3125 
L 93.359375 62.890625 
Q 83.984375 63.28125 73.828125 63.28125 
L 64.453125 63.28125 
L 64.453125 46.09375 
Q 64.453125 39.84375 64.84375 33.59375 
L 56.25 33.59375 
Q 56.640625 39.84375 56.640625 46.09375 
L 56.640625 63.28125 
L 42.96875 63.28125 
L 42.96875 46.09375 
Q 42.96875 41.796875 43.359375 33.59375 
L 34.765625 33.59375 
Q 35.15625 41.796875 35.15625 46.09375 
L 35.15625 63.28125 
L 26.5625 63.28125 
Q 15.234375 63.28125 6.640625 62.890625 
L 6.640625 70.3125 
Q 14.84375 69.921875 26.5625 69.921875 
L 46.484375 69.921875 
Q 45.703125 73.046875 42.1875 80.078125 
Q 46.09375 80.46875 50.390625 82.421875 
z
M 34.375 24.609375 
Q 41.40625 15.234375 50.78125 9.375 
Q 60.15625 15.625 66.796875 24.609375 
L 34.375 24.609375 
z
M 75.78125 58.59375 
Q 83.984375 51.171875 92.96875 41.796875 
Q 89.84375 39.453125 85.9375 35.9375 
Q 79.296875 43.75 69.53125 53.125 
Q 73.046875 55.859375 75.78125 58.59375 
z
M 28.515625 54.6875 
Q 26.5625 52.734375 22.265625 47.265625 
Q 17.96875 41.796875 12.890625 35.9375 
Q 8.984375 38.671875 5.859375 40.625 
Q 15.234375 49.21875 20.3125 59.765625 
Q 23.828125 57.03125 28.515625 54.6875 
z
" id="SimHei-21464"/>
       <path d="M 61.328125 78.515625 
Q 60.9375 76.5625 60.9375 68.75 
L 60.9375 41.015625 
Q 68.359375 47.265625 74.609375 53.90625 
Q 80.859375 60.546875 84.375 67.1875 
Q 87.5 64.0625 92.1875 61.328125 
Q 89.0625 57.8125 81.640625 50.1875 
Q 74.21875 42.578125 70.109375 39.25 
Q 66.015625 35.9375 60.9375 31.640625 
L 60.9375 7.03125 
Q 60.9375 0.78125 66.015625 0.78125 
L 81.25 0.78125 
Q 84.375 1.171875 85.34375 4.09375 
Q 86.328125 7.03125 87.109375 13.28125 
Q 90.625 10.15625 96.09375 9.375 
Q 93.75 -1.5625 91.015625 -3.90625 
Q 88.28125 -6.25 83.59375 -6.25 
L 61.71875 -6.25 
Q 53.515625 -6.25 53.125 3.125 
L 53.125 26.171875 
Q 50.390625 23.828125 46.28125 21.09375 
Q 42.1875 18.359375 37.109375 15.234375 
Q 34.765625 19.140625 31.640625 21.875 
Q 36.71875 24.21875 42.765625 27.921875 
Q 48.828125 31.640625 53.125 35.15625 
L 53.125 70.3125 
Q 53.125 75 52.734375 78.515625 
L 61.328125 78.515625 
z
M 37.5 75.78125 
Q 33.984375 71.09375 32.421875 67.765625 
Q 30.859375 64.453125 28.515625 58.984375 
L 28.515625 10.546875 
Q 28.515625 -1.171875 28.90625 -8.59375 
L 20.703125 -8.59375 
Q 21.09375 -1.953125 21.09375 10.15625 
L 21.09375 47.65625 
Q 17.578125 42.578125 15.03125 39.453125 
Q 12.5 36.328125 10.546875 33.984375 
Q 7.8125 37.109375 4.296875 39.453125 
Q 9.765625 44.53125 13.671875 50.1875 
Q 17.578125 55.859375 20.5 61.125 
Q 23.4375 66.40625 25.390625 71.484375 
Q 27.34375 76.5625 28.515625 79.6875 
Q 30.859375 77.734375 37.5 75.78125 
z
" id="SimHei-21270"/>
      </defs>
      <use xlink:href="#SimHei-112"/>
      <use x="50" xlink:href="#SimHei-121"/>
      <use x="100" xlink:href="#SimHei-116"/>
      <use x="150" xlink:href="#SimHei-104"/>
      <use x="200" xlink:href="#SimHei-111"/>
      <use x="250" xlink:href="#SimHei-110"/>
      <use x="300" xlink:href="#SimHei-20844"/>
      <use x="400" xlink:href="#SimHei-21496"/>
      <use x="500" xlink:href="#SimHei-35268"/>
      <use x="600" xlink:href="#SimHei-27169"/>
      <use x="700" xlink:href="#SimHei-23545"/>
      <use x="800" xlink:href="#SimHei-24212"/>
      <use x="900" xlink:href="#SimHei-24179"/>
      <use x="1000" xlink:href="#SimHei-22343"/>
      <use x="1100" xlink:href="#SimHei-24037"/>
      <use x="1200" xlink:href="#SimHei-36164"/>
      <use x="1300" xlink:href="#SimHei-21464"/>
      <use x="1400" xlink:href="#SimHei-21270"/>
     </g>
    </g>
   </g>
  </g>
  <g id="axes_2">
   <g id="patch_8">
    <path d="M 180 1281.6 
L 1296 1281.6 
L 1296 777.6 
L 180 777.6 
z
" style="fill:#ffffff;"/>
   </g>
   <g id="matplotlib.axis_3">
    <g id="xtick_7">
     <g id="line2d_36">
      <path clip-path="url(#p265f08d4c7)" d="M 230.727273 1281.6 
L 230.727273 777.6 
" style="fill:none;stroke:#b0b0b0;stroke-linecap:square;stroke-opacity:0.5;stroke-width:0.8;"/>
     </g>
     <g id="line2d_37">
      <g>
       <use style="stroke:#000000;stroke-width:0.8;" x="230.727273" xlink:href="#mb5b8c133a4" y="1281.6"/>
      </g>
     </g>
     <g id="text_20">
      <!-- 50-150人 -->
      <g transform="translate(190.727273 1304.06875)scale(0.2 -0.2)">
       <use xlink:href="#SimHei-53"/>
       <use x="50" xlink:href="#SimHei-48"/>
       <use x="100" xlink:href="#SimHei-45"/>
       <use x="150" xlink:href="#SimHei-49"/>
       <use x="200" xlink:href="#SimHei-53"/>
       <use x="250" xlink:href="#SimHei-48"/>
       <use x="300" xlink:href="#SimHei-20154"/>
      </g>
     </g>
    </g>
    <g id="xtick_8">
     <g id="line2d_38">
      <path clip-path="url(#p265f08d4c7)" d="M 433.636364 1281.6 
L 433.636364 777.6 
" style="fill:none;stroke:#b0b0b0;stroke-linecap:square;stroke-opacity:0.5;stroke-width:0.8;"/>
     </g>
     <g id="line2d_39">
      <g>
       <use style="stroke:#000000;stroke-width:0.8;" x="433.636364" xlink:href="#mb5b8c133a4" y="1281.6"/>
      </g>
     </g>
     <g id="text_21">
      <!-- 少于15人 -->
      <g transform="translate(393.636364 1304.06875)scale(0.2 -0.2)">
       <use xlink:href="#SimHei-23569"/>
       <use x="100" xlink:href="#SimHei-20110"/>
       <use x="200" xlink:href="#SimHei-49"/>
       <use x="250" xlink:href="#SimHei-53"/>
       <use x="300" xlink:href="#SimHei-20154"/>
      </g>
     </g>
    </g>
    <g id="xtick_9">
     <g id="line2d_40">
      <path clip-path="url(#p265f08d4c7)" d="M 636.545455 1281.6 
L 636.545455 777.6 
" style="fill:none;stroke:#b0b0b0;stroke-linecap:square;stroke-opacity:0.5;stroke-width:0.8;"/>
     </g>
     <g id="line2d_41">
      <g>
       <use style="stroke:#000000;stroke-width:0.8;" x="636.545455" xlink:href="#mb5b8c133a4" y="1281.6"/>
      </g>
     </g>
     <g id="text_22">
      <!-- 150-500人 -->
      <g transform="translate(591.545455 1304.06875)scale(0.2 -0.2)">
       <use xlink:href="#SimHei-49"/>
       <use x="50" xlink:href="#SimHei-53"/>
       <use x="100" xlink:href="#SimHei-48"/>
       <use x="150" xlink:href="#SimHei-45"/>
       <use x="200" xlink:href="#SimHei-53"/>
       <use x="250" xlink:href="#SimHei-48"/>
       <use x="300" xlink:href="#SimHei-48"/>
       <use x="350" xlink:href="#SimHei-20154"/>
      </g>
     </g>
    </g>
    <g id="xtick_10">
     <g id="line2d_42">
      <path clip-path="url(#p265f08d4c7)" d="M 839.454545 1281.6 
L 839.454545 777.6 
" style="fill:none;stroke:#b0b0b0;stroke-linecap:square;stroke-opacity:0.5;stroke-width:0.8;"/>
     </g>
     <g id="line2d_43">
      <g>
       <use style="stroke:#000000;stroke-width:0.8;" x="839.454545" xlink:href="#mb5b8c133a4" y="1281.6"/>
      </g>
     </g>
     <g id="text_23">
      <!-- 500-2000人 -->
      <g transform="translate(789.454545 1304.06875)scale(0.2 -0.2)">
       <use xlink:href="#SimHei-53"/>
       <use x="50" xlink:href="#SimHei-48"/>
       <use x="100" xlink:href="#SimHei-48"/>
       <use x="150" xlink:href="#SimHei-45"/>
       <use x="200" xlink:href="#SimHei-50"/>
       <use x="250" xlink:href="#SimHei-48"/>
       <use x="300" xlink:href="#SimHei-48"/>
       <use x="350" xlink:href="#SimHei-48"/>
       <use x="400" xlink:href="#SimHei-20154"/>
      </g>
     </g>
    </g>
    <g id="xtick_11">
     <g id="line2d_44">
      <path clip-path="url(#p265f08d4c7)" d="M 1042.363636 1281.6 
L 1042.363636 777.6 
" style="fill:none;stroke:#b0b0b0;stroke-linecap:square;stroke-opacity:0.5;stroke-width:0.8;"/>
     </g>
     <g id="line2d_45">
      <g>
       <use style="stroke:#000000;stroke-width:0.8;" x="1042.363636" xlink:href="#mb5b8c133a4" y="1281.6"/>
      </g>
     </g>
     <g id="text_24">
      <!-- 15-50人 -->
      <g transform="translate(1007.363636 1304.06875)scale(0.2 -0.2)">
       <use xlink:href="#SimHei-49"/>
       <use x="50" xlink:href="#SimHei-53"/>
       <use x="100" xlink:href="#SimHei-45"/>
       <use x="150" xlink:href="#SimHei-53"/>
       <use x="200" xlink:href="#SimHei-48"/>
       <use x="250" xlink:href="#SimHei-20154"/>
      </g>
     </g>
    </g>
    <g id="xtick_12">
     <g id="line2d_46">
      <path clip-path="url(#p265f08d4c7)" d="M 1245.272727 1281.6 
L 1245.272727 777.6 
" style="fill:none;stroke:#b0b0b0;stroke-linecap:square;stroke-opacity:0.5;stroke-width:0.8;"/>
     </g>
     <g id="line2d_47">
      <g>
       <use style="stroke:#000000;stroke-width:0.8;" x="1245.272727" xlink:href="#mb5b8c133a4" y="1281.6"/>
      </g>
     </g>
     <g id="text_25">
      <!-- 2000人以上 -->
      <g transform="translate(1195.272727 1304.459375)scale(0.2 -0.2)">
       <use xlink:href="#SimHei-50"/>
       <use x="50" xlink:href="#SimHei-48"/>
       <use x="100" xlink:href="#SimHei-48"/>
       <use x="150" xlink:href="#SimHei-48"/>
       <use x="200" xlink:href="#SimHei-20154"/>
       <use x="300" xlink:href="#SimHei-20197"/>
       <use x="400" xlink:href="#SimHei-19978"/>
      </g>
     </g>
    </g>
    <g id="text_26">
     <!-- 公司规模 -->
     <g transform="translate(698 1326.975)scale(0.2 -0.2)">
      <use xlink:href="#SimHei-20844"/>
      <use x="100" xlink:href="#SimHei-21496"/>
      <use x="200" xlink:href="#SimHei-35268"/>
      <use x="300" xlink:href="#SimHei-27169"/>
     </g>
    </g>
   </g>
   <g id="matplotlib.axis_4">
    <g id="ytick_11">
     <g id="line2d_48">
      <path clip-path="url(#p265f08d4c7)" d="M 180 1211.178818 
L 1296 1211.178818 
" style="fill:none;stroke:#b0b0b0;stroke-linecap:square;stroke-opacity:0.5;stroke-width:0.8;"/>
     </g>
     <g id="line2d_49">
      <g>
       <use style="stroke:#000000;stroke-width:0.8;" x="180" xlink:href="#m3770bcf78d" y="1211.178818"/>
      </g>
     </g>
     <g id="text_27">
      <!-- 17 -->
      <g transform="translate(153 1218.053818)scale(0.2 -0.2)">
       <use xlink:href="#SimHei-49"/>
       <use x="50" xlink:href="#SimHei-55"/>
      </g>
     </g>
    </g>
    <g id="ytick_12">
     <g id="line2d_50">
      <path clip-path="url(#p265f08d4c7)" d="M 180 1139.290958 
L 1296 1139.290958 
" style="fill:none;stroke:#b0b0b0;stroke-linecap:square;stroke-opacity:0.5;stroke-width:0.8;"/>
     </g>
     <g id="line2d_51">
      <g>
       <use style="stroke:#000000;stroke-width:0.8;" x="180" xlink:href="#m3770bcf78d" y="1139.290958"/>
      </g>
     </g>
     <g id="text_28">
      <!-- 18 -->
      <g transform="translate(153 1146.165958)scale(0.2 -0.2)">
       <use xlink:href="#SimHei-49"/>
       <use x="50" xlink:href="#SimHei-56"/>
      </g>
     </g>
    </g>
    <g id="ytick_13">
     <g id="line2d_52">
      <path clip-path="url(#p265f08d4c7)" d="M 180 1067.403099 
L 1296 1067.403099 
" style="fill:none;stroke:#b0b0b0;stroke-linecap:square;stroke-opacity:0.5;stroke-width:0.8;"/>
     </g>
     <g id="line2d_53">
      <g>
       <use style="stroke:#000000;stroke-width:0.8;" x="180" xlink:href="#m3770bcf78d" y="1067.403099"/>
      </g>
     </g>
     <g id="text_29">
      <!-- 19 -->
      <g transform="translate(153 1074.278099)scale(0.2 -0.2)">
       <use xlink:href="#SimHei-49"/>
       <use x="50" xlink:href="#SimHei-57"/>
      </g>
     </g>
    </g>
    <g id="ytick_14">
     <g id="line2d_54">
      <path clip-path="url(#p265f08d4c7)" d="M 180 995.515239 
L 1296 995.515239 
" style="fill:none;stroke:#b0b0b0;stroke-linecap:square;stroke-opacity:0.5;stroke-width:0.8;"/>
     </g>
     <g id="line2d_55">
      <g>
       <use style="stroke:#000000;stroke-width:0.8;" x="180" xlink:href="#m3770bcf78d" y="995.515239"/>
      </g>
     </g>
     <g id="text_30">
      <!-- 20 -->
      <g transform="translate(153 1002.390239)scale(0.2 -0.2)">
       <use xlink:href="#SimHei-50"/>
       <use x="50" xlink:href="#SimHei-48"/>
      </g>
     </g>
    </g>
    <g id="ytick_15">
     <g id="line2d_56">
      <path clip-path="url(#p265f08d4c7)" d="M 180 923.627379 
L 1296 923.627379 
" style="fill:none;stroke:#b0b0b0;stroke-linecap:square;stroke-opacity:0.5;stroke-width:0.8;"/>
     </g>
     <g id="line2d_57">
      <g>
       <use style="stroke:#000000;stroke-width:0.8;" x="180" xlink:href="#m3770bcf78d" y="923.627379"/>
      </g>
     </g>
     <g id="text_31">
      <!-- 21 -->
      <g transform="translate(153 930.502379)scale(0.2 -0.2)">
       <use xlink:href="#SimHei-50"/>
       <use x="50" xlink:href="#SimHei-49"/>
      </g>
     </g>
    </g>
    <g id="ytick_16">
     <g id="line2d_58">
      <path clip-path="url(#p265f08d4c7)" d="M 180 851.73952 
L 1296 851.73952 
" style="fill:none;stroke:#b0b0b0;stroke-linecap:square;stroke-opacity:0.5;stroke-width:0.8;"/>
     </g>
     <g id="line2d_59">
      <g>
       <use style="stroke:#000000;stroke-width:0.8;" x="180" xlink:href="#m3770bcf78d" y="851.73952"/>
      </g>
     </g>
     <g id="text_32">
      <!-- 22 -->
      <g transform="translate(153 858.61452)scale(0.2 -0.2)">
       <use xlink:href="#SimHei-50"/>
       <use x="50" xlink:href="#SimHei-50"/>
      </g>
     </g>
    </g>
    <g id="ytick_17">
     <g id="line2d_60">
      <path clip-path="url(#p265f08d4c7)" d="M 180 779.85166 
L 1296 779.85166 
" style="fill:none;stroke:#b0b0b0;stroke-linecap:square;stroke-opacity:0.5;stroke-width:0.8;"/>
     </g>
     <g id="line2d_61">
      <g>
       <use style="stroke:#000000;stroke-width:0.8;" x="180" xlink:href="#m3770bcf78d" y="779.85166"/>
      </g>
     </g>
     <g id="text_33">
      <!-- 23 -->
      <g transform="translate(153 786.72666)scale(0.2 -0.2)">
       <use xlink:href="#SimHei-50"/>
       <use x="50" xlink:href="#SimHei-51"/>
      </g>
     </g>
    </g>
    <g id="text_34">
     <!-- 工资（K） -->
     <g transform="translate(146.5 1074.6)rotate(-90)scale(0.2 -0.2)">
      <use xlink:href="#SimHei-24037"/>
      <use x="100" xlink:href="#SimHei-36164"/>
      <use x="200" xlink:href="#SimHei-65288"/>
      <use x="300" xlink:href="#SimHei-75"/>
      <use x="350" xlink:href="#SimHei-65289"/>
     </g>
    </g>
   </g>
   <g id="line2d_62">
    <path clip-path="url(#p265f08d4c7)" d="M 230.727273 1258.690909 
L 433.636364 1220.1648 
L 636.545455 1140.063946 
L 839.454545 994.530474 
L 1042.363636 968.24743 
L 1245.272727 800.509091 
" style="fill:none;stroke:#ff0000;stroke-linecap:square;stroke-opacity:0.5;stroke-width:20;"/>
    <g clip-path="url(#p265f08d4c7)">
     <use style="fill:#ff0000;fill-opacity:0.5;stroke:#ff0000;stroke-linejoin:bevel;stroke-opacity:0.5;" x="230.727273" xlink:href="#ma5e450a7d1" y="1258.690909"/>
     <use style="fill:#ff0000;fill-opacity:0.5;stroke:#ff0000;stroke-linejoin:bevel;stroke-opacity:0.5;" x="433.636364" xlink:href="#ma5e450a7d1" y="1220.1648"/>
     <use style="fill:#ff0000;fill-opacity:0.5;stroke:#ff0000;stroke-linejoin:bevel;stroke-opacity:0.5;" x="636.545455" xlink:href="#ma5e450a7d1" y="1140.063946"/>
     <use style="fill:#ff0000;fill-opacity:0.5;stroke:#ff0000;stroke-linejoin:bevel;stroke-opacity:0.5;" x="839.454545" xlink:href="#ma5e450a7d1" y="994.530474"/>
     <use style="fill:#ff0000;fill-opacity:0.5;stroke:#ff0000;stroke-linejoin:bevel;stroke-opacity:0.5;" x="1042.363636" xlink:href="#ma5e450a7d1" y="968.24743"/>
     <use style="fill:#ff0000;fill-opacity:0.5;stroke:#ff0000;stroke-linejoin:bevel;stroke-opacity:0.5;" x="1245.272727" xlink:href="#ma5e450a7d1" y="800.509091"/>
    </g>
   </g>
   <g id="patch_9">
    <path d="M 180 1281.6 
L 180 777.6 
" style="fill:none;stroke:#000000;stroke-linecap:square;stroke-linejoin:miter;stroke-width:0.8;"/>
   </g>
   <g id="patch_10">
    <path d="M 1296 1281.6 
L 1296 777.6 
" style="fill:none;stroke:#000000;stroke-linecap:square;stroke-linejoin:miter;stroke-width:0.8;"/>
   </g>
   <g id="patch_11">
    <path d="M 180 1281.6 
L 1296 1281.6 
" style="fill:none;stroke:#000000;stroke-linecap:square;stroke-linejoin:miter;stroke-width:0.8;"/>
   </g>
   <g id="patch_12">
    <path d="M 180 777.6 
L 1296 777.6 
" style="fill:none;stroke:#000000;stroke-linecap:square;stroke-linejoin:miter;stroke-width:0.8;"/>
   </g>
   <g id="text_35">
    <!-- 少于15人的公司共有4家其中3家给的工资偏高 -->
    <g style="fill:#008000;" transform="translate(372.763636 1175.234888)scale(0.2 -0.2)">
     <defs>
      <path d="M 32.8125 77.734375 
Q 30.859375 74.21875 27.34375 61.71875 
L 44.921875 61.71875 
Q 44.53125 55.078125 44.53125 44.921875 
L 44.53125 10.546875 
Q 44.53125 4.6875 44.921875 -6.25 
L 37.109375 -6.25 
L 37.109375 1.5625 
L 17.1875 1.5625 
L 17.1875 -7.03125 
L 9.375 -7.03125 
Q 9.765625 5.46875 9.765625 8.59375 
L 9.765625 44.53125 
Q 9.765625 55.078125 9.375 61.71875 
L 20.703125 61.71875 
Q 22.65625 70.703125 23.828125 80.46875 
Q 29.296875 78.515625 32.8125 77.734375 
z
M 91.015625 48.046875 
Q 90.625 24.21875 89.0625 2.734375 
Q 88.28125 -4.296875 81.640625 -6.640625 
Q 75 -8.984375 66.796875 -9.765625 
Q 66.40625 -5.46875 63.28125 -0.78125 
Q 71.09375 -1.171875 75.578125 -0.390625 
Q 80.078125 0.390625 81.25 3.125 
Q 82.421875 5.859375 83 19.140625 
Q 83.59375 32.421875 83.984375 56.25 
L 61.328125 56.25 
Q 58.203125 48.828125 52.34375 38.671875 
Q 49.609375 41.40625 45.703125 42.96875 
Q 49.21875 47.65625 52.34375 54.296875 
Q 55.46875 60.9375 57.8125 68.75 
Q 60.15625 76.5625 60.546875 80.859375 
Q 66.015625 78.515625 69.921875 77.34375 
Q 67.96875 74.21875 66.59375 70.5 
Q 65.234375 66.796875 63.671875 63.28125 
L 91.40625 63.28125 
Q 91.015625 55.078125 91.015625 48.046875 
z
M 37.109375 8.203125 
L 37.109375 28.90625 
L 17.1875 28.90625 
L 17.1875 8.203125 
z
M 37.109375 35.546875 
L 37.109375 55.078125 
L 17.1875 55.078125 
L 17.1875 35.546875 
z
M 67.96875 32.03125 
Q 70.3125 27.34375 73.4375 19.921875 
Q 70.703125 18.75 66.015625 16.015625 
Q 63.28125 23.4375 60.9375 28.703125 
Q 58.59375 33.984375 56.25 37.5 
Q 58.984375 39.0625 63.28125 41.40625 
z
" id="SimHei-30340"/>
      <path d="M 31.640625 57.8125 
Q 31.640625 73.4375 31.25 78.125 
L 40.625 78.125 
Q 39.84375 73.4375 39.84375 57.8125 
L 61.328125 57.8125 
Q 61.328125 73.828125 60.9375 78.515625 
L 70.3125 78.515625 
Q 69.53125 73.828125 69.53125 57.8125 
L 77.34375 57.8125 
Q 84.375 57.8125 89.453125 58.203125 
L 89.453125 51.171875 
Q 84.375 51.5625 77.34375 51.5625 
L 69.53125 51.5625 
L 69.53125 28.90625 
L 82.8125 28.90625 
Q 89.84375 28.90625 94.53125 29.296875 
L 94.53125 22.265625 
Q 90.234375 22.65625 83.203125 22.65625 
L 16.796875 22.65625 
Q 9.375 22.65625 5.078125 22.265625 
L 5.078125 29.296875 
Q 9.375 28.90625 16.796875 28.90625 
L 31.640625 28.90625 
L 31.640625 51.5625 
L 25 51.5625 
Q 15.625 51.5625 10.9375 51.171875 
L 10.9375 58.203125 
Q 16.015625 57.8125 25.390625 57.8125 
z
M 61.328125 28.90625 
L 61.328125 51.5625 
L 39.84375 51.5625 
L 39.84375 28.90625 
z
M 44.921875 11.328125 
Q 39.453125 8.59375 30.65625 2.140625 
Q 21.875 -4.296875 13.28125 -8.203125 
Q 10.546875 -4.296875 7.03125 -1.5625 
Q 15.234375 1.953125 22.453125 6.4375 
Q 29.6875 10.9375 36.328125 17.578125 
Q 40.625 14.0625 44.921875 11.328125 
z
M 63.28125 17.578125 
Q 67.96875 14.84375 76.953125 9.375 
Q 85.9375 3.90625 92.578125 -1.5625 
Q 89.0625 -4.296875 86.328125 -7.8125 
Q 79.6875 -2.734375 71.671875 2.53125 
Q 63.671875 7.8125 57.421875 10.9375 
Q 60.546875 14.0625 63.28125 17.578125 
z
" id="SimHei-20849"/>
      <path d="M 4.296875 25.390625 
Q 13.28125 30.859375 21.875 39.640625 
Q 30.46875 48.4375 37.5 61.328125 
L 23.4375 61.328125 
Q 17.96875 61.328125 9.765625 60.9375 
L 9.765625 68.359375 
Q 19.921875 67.96875 25 67.96875 
L 39.84375 67.96875 
Q 42.96875 77.34375 43.359375 81.640625 
Q 49.21875 80.078125 52.734375 79.296875 
Q 51.5625 78.125 48.828125 67.96875 
L 80.46875 67.96875 
Q 87.109375 67.96875 94.140625 68.359375 
L 94.140625 60.9375 
Q 87.109375 61.328125 81.640625 61.328125 
L 46.484375 61.328125 
Q 43.75 56.25 40.625 51.171875 
L 85.546875 51.171875 
Q 85.15625 41.40625 85.15625 33.59375 
L 85.15625 1.953125 
Q 85.15625 -3.515625 82.03125 -6.046875 
Q 78.90625 -8.59375 68.75 -9.375 
Q 68.359375 -5.078125 66.015625 0 
Q 71.875 -0.78125 74.609375 -0.390625 
Q 77.34375 0 77.34375 3.90625 
L 77.34375 11.71875 
L 36.71875 11.71875 
L 36.71875 -8.984375 
L 28.125 -8.984375 
Q 28.515625 0.78125 28.515625 7.8125 
L 28.515625 35.546875 
Q 20.3125 26.171875 11.328125 19.140625 
Q 9.765625 21.875 4.296875 25.390625 
z
M 77.34375 33.984375 
L 77.34375 44.921875 
L 36.71875 44.921875 
L 36.71875 33.984375 
z
M 77.34375 17.96875 
L 77.34375 27.734375 
L 36.71875 27.734375 
L 36.71875 17.96875 
z
" id="SimHei-26377"/>
      <path d="M 53.515625 17.578125 
Q 40.625 7.421875 29.6875 1.5625 
Q 18.75 -4.296875 10.9375 -8.203125 
Q 7.8125 -4.296875 5.078125 -1.171875 
Q 24.21875 5.078125 35.34375 12.109375 
Q 46.484375 19.140625 51.171875 24.21875 
Q 49.609375 26.953125 48.046875 28.90625 
Q 35.9375 20.3125 26.5625 15.234375 
Q 17.1875 10.15625 11.71875 8.203125 
Q 8.984375 12.109375 5.859375 14.84375 
Q 21.484375 19.53125 30.65625 25 
Q 39.84375 30.46875 43.75 33.984375 
Q 42.1875 35.9375 40.234375 38.28125 
Q 33.984375 34.765625 26.75 31.4375 
Q 19.53125 28.125 11.328125 24.609375 
Q 8.984375 28.515625 5.859375 32.421875 
Q 21.875 36.328125 30.46875 40.625 
Q 39.0625 44.921875 42.96875 49.21875 
L 37.5 49.21875 
Q 32.03125 49.21875 24.609375 48.828125 
L 24.609375 55.859375 
Q 32.03125 55.46875 37.5 55.46875 
L 64.0625 55.46875 
Q 69.140625 55.46875 76.5625 55.859375 
L 76.5625 48.828125 
Q 69.140625 49.21875 64.0625 49.21875 
L 53.515625 49.21875 
Q 50 46.09375 45.703125 42.1875 
Q 48.828125 39.453125 51.5625 36.515625 
Q 54.296875 33.59375 57.421875 28.515625 
Q 62.109375 30.859375 67.96875 34.953125 
Q 73.828125 39.0625 78.515625 45.3125 
Q 84.375 39.84375 86.328125 37.890625 
Q 81.640625 35.9375 78.125 33.984375 
Q 74.609375 32.03125 72.265625 29.6875 
Q 75.78125 17.96875 81.25 12.890625 
Q 86.71875 7.8125 96.484375 3.125 
Q 92.578125 0.390625 89.453125 -4.296875 
Q 78.515625 2.734375 73.4375 10.34375 
Q 68.359375 17.96875 66.40625 26.171875 
Q 63.28125 24.21875 60.15625 22.65625 
Q 62.109375 12.109375 61.90625 5.078125 
Q 61.71875 -1.953125 56.046875 -5.65625 
Q 50.390625 -9.375 42.578125 -10.546875 
Q 41.015625 -5.46875 39.0625 -1.5625 
Q 45.703125 -1.5625 49.609375 -0.390625 
Q 53.515625 0.78125 54.09375 5.46875 
Q 54.6875 10.15625 53.515625 17.578125 
z
M 52.34375 82.421875 
Q 53.125 78.515625 55.859375 70.703125 
L 91.796875 70.703125 
Q 91.40625 64.453125 91.40625 60.546875 
Q 91.40625 57.03125 91.796875 51.5625 
L 83.59375 51.5625 
L 83.59375 64.453125 
L 15.625 64.453125 
L 15.625 49.609375 
L 7.421875 49.609375 
Q 7.8125 55.859375 7.8125 60.546875 
Q 7.8125 65.625 7.421875 70.703125 
L 46.484375 70.703125 
Q 44.921875 75.78125 42.96875 79.6875 
Q 48.046875 80.859375 52.34375 82.421875 
z
" id="SimHei-23478"/>
      <path d="M 73.828125 21.484375 
Q 86.71875 21.484375 94.140625 21.875 
L 94.140625 15.625 
Q 87.109375 16.015625 82.03125 16.015625 
L 19.140625 16.015625 
Q 10.546875 16.015625 5.078125 15.625 
L 5.078125 21.875 
Q 8.203125 21.484375 25.78125 21.484375 
L 25.78125 61.71875 
Q 16.40625 61.71875 10.546875 61.328125 
L 10.546875 67.96875 
Q 13.671875 67.578125 25.78125 67.578125 
Q 25.78125 76.171875 25.390625 80.078125 
L 34.765625 80.078125 
Q 33.984375 75.78125 33.984375 67.578125 
L 65.625 67.578125 
Q 65.625 74.609375 65.234375 79.6875 
L 74.21875 79.6875 
Q 73.828125 74.609375 73.828125 67.578125 
Q 82.421875 67.578125 88.671875 67.96875 
L 88.671875 61.328125 
Q 82.03125 61.71875 73.828125 61.71875 
z
M 65.625 21.484375 
L 65.625 31.25 
L 33.984375 31.25 
L 33.984375 21.484375 
z
M 65.625 37.109375 
L 65.625 46.875 
L 33.984375 46.875 
L 33.984375 37.109375 
z
M 65.625 52.34375 
L 65.625 61.71875 
L 33.984375 61.71875 
L 33.984375 52.34375 
z
M 65.234375 13.671875 
Q 81.25 3.515625 89.84375 -3.515625 
Q 85.9375 -6.25 83.203125 -9.765625 
Q 78.515625 -3.90625 59.765625 7.8125 
Q 63.671875 10.9375 65.234375 13.671875 
z
M 8.203125 -4.296875 
Q 12.5 -1.953125 19.921875 3.3125 
Q 27.34375 8.59375 32.421875 13.671875 
Q 35.546875 10.546875 38.671875 7.8125 
Q 34.375 4.6875 14.0625 -10.15625 
Q 11.71875 -6.640625 8.203125 -4.296875 
z
" id="SimHei-20854"/>
      <path d="M 54.296875 81.25 
Q 53.90625 70.3125 53.90625 60.546875 
L 87.890625 60.546875 
Q 87.5 52.734375 87.5 39.0625 
Q 87.5 25.78125 87.890625 19.140625 
L 79.296875 19.140625 
L 79.296875 25 
L 53.90625 25 
L 53.90625 8.203125 
Q 53.90625 3.515625 54.296875 -9.375 
L 44.921875 -9.375 
Q 45.703125 -2.34375 45.703125 7.03125 
L 45.703125 25 
L 20.3125 25 
L 20.3125 19.140625 
L 11.71875 19.140625 
Q 12.109375 25 12.109375 39.0625 
Q 12.109375 53.515625 11.71875 60.546875 
L 45.703125 60.546875 
Q 45.703125 71.09375 45.3125 81.25 
z
M 79.296875 31.25 
L 79.296875 54.296875 
L 53.90625 54.296875 
L 53.90625 31.25 
z
M 45.703125 31.25 
L 45.703125 54.296875 
L 20.3125 54.296875 
L 20.3125 31.25 
z
" id="SimHei-20013"/>
      <path d="M 78.125 -8.203125 
L 78.125 -1.171875 
L 55.078125 -1.171875 
L 55.078125 -9.765625 
L 46.875 -9.765625 
Q 47.265625 -5.078125 47.265625 8.984375 
Q 47.265625 23.046875 46.875 29.296875 
L 85.9375 29.296875 
Q 85.546875 24.21875 85.546875 11.328125 
Q 85.546875 -1.5625 85.9375 -8.203125 
z
M 71.09375 79.6875 
Q 69.53125 77.734375 68.359375 75 
Q 73.4375 64.0625 80.46875 56.640625 
Q 87.5 49.21875 96.875 44.921875 
Q 93.359375 41.796875 91.015625 37.890625 
Q 84.765625 41.40625 80.859375 45.3125 
L 80.859375 38.671875 
Q 76.5625 39.0625 73.046875 39.0625 
L 60.546875 39.0625 
Q 55.859375 39.0625 51.171875 38.671875 
L 51.171875 44.140625 
Q 48.4375 39.84375 42.96875 34.375 
Q 40.234375 38.28125 35.546875 41.015625 
Q 40.625 44.140625 44.921875 49.40625 
Q 49.21875 54.6875 52.140625 59.765625 
Q 55.078125 64.84375 57.21875 70.5 
Q 59.375 76.171875 60.9375 82.421875 
Q 66.015625 80.859375 71.09375 79.6875 
z
M 29.6875 77.34375 
Q 27.34375 75.390625 23.4375 65.421875 
Q 19.53125 55.46875 15.625 48.828125 
L 26.953125 49.21875 
Q 30.078125 54.296875 32.421875 62.5 
Q 36.71875 60.546875 41.40625 59.375 
Q 39.0625 57.03125 36.71875 52.921875 
Q 34.375 48.828125 29.484375 39.0625 
Q 24.609375 29.296875 21.875 25.390625 
Q 31.25 26.5625 38.671875 27.734375 
Q 37.109375 23.046875 36.71875 19.53125 
Q 32.03125 19.53125 25.578125 18.546875 
Q 19.140625 17.578125 12.5 16.015625 
Q 10.9375 20.703125 9.375 25 
Q 13.28125 25 16.796875 29.875 
Q 20.3125 34.765625 24.21875 42.578125 
Q 20.3125 42.578125 16.015625 41.984375 
Q 11.71875 41.40625 8.203125 40.234375 
Q 7.03125 43.75 5.078125 48.046875 
Q 8.203125 49.609375 12.296875 56.4375 
Q 16.40625 63.28125 20.703125 80.859375 
Q 25.390625 78.90625 29.6875 77.34375 
z
M 78.125 5.078125 
L 78.125 22.265625 
L 55.078125 22.265625 
L 55.078125 5.078125 
z
M 80.46875 45.703125 
Q 73.828125 51.5625 70.5 57.03125 
Q 67.1875 62.5 64.84375 67.96875 
Q 61.71875 62.109375 58.984375 56.640625 
Q 56.25 51.171875 52.34375 45.703125 
Q 55.859375 45.3125 60.546875 45.3125 
L 72.265625 45.3125 
Q 76.171875 45.703125 80.46875 45.703125 
z
M 7.421875 4.296875 
Q 14.0625 4.6875 22.265625 6.4375 
Q 30.46875 8.203125 39.0625 10.546875 
Q 38.28125 6.640625 38.671875 3.125 
Q 33.59375 1.953125 24.609375 -0.578125 
Q 15.625 -3.125 10.15625 -5.46875 
Q 8.984375 0 7.421875 4.296875 
z
" id="SimHei-32473"/>
      <path d="M 25.78125 8.203125 
Q 35.546875 24.21875 37.5 40.625 
Q 39.453125 57.03125 38.28125 72.265625 
L 61.328125 72.265625 
Q 60.546875 76.5625 58.203125 81.25 
Q 62.109375 82.03125 65.234375 82.8125 
Q 66.796875 79.296875 69.140625 72.265625 
L 88.671875 72.265625 
Q 88.28125 67.1875 88.28125 60.9375 
Q 88.28125 54.6875 88.671875 50 
L 45.3125 50 
Q 44.921875 45.703125 44.53125 41.015625 
L 93.359375 41.015625 
Q 92.96875 34.375 92.96875 27.34375 
L 92.96875 -1.5625 
Q 92.96875 -6.25 90.03125 -7.609375 
Q 87.109375 -8.984375 81.25 -10.15625 
Q 80.46875 -6.25 77.734375 -1.953125 
Q 86.328125 -2.34375 86.328125 1.5625 
L 86.328125 16.796875 
L 76.953125 16.796875 
Q 76.953125 6.640625 77.34375 0 
L 69.921875 0 
Q 70.703125 6.25 70.703125 16.796875 
L 62.5 16.796875 
Q 62.5 5.46875 62.890625 -0.390625 
L 55.46875 -0.390625 
Q 55.859375 5.46875 55.859375 16.796875 
L 47.265625 16.796875 
L 47.265625 -9.375 
L 40.234375 -9.375 
L 40.234375 24.609375 
Q 37.890625 16.40625 31.25 4.296875 
Q 27.734375 7.421875 25.78125 8.203125 
z
M 3.515625 38.28125 
Q 12.890625 49.21875 18.75 60.9375 
Q 24.609375 72.65625 25.78125 79.296875 
Q 29.296875 76.953125 35.15625 75.390625 
Q 32.421875 73.828125 24.609375 54.296875 
L 24.609375 8.59375 
Q 24.609375 -0.78125 25 -8.984375 
L 17.1875 -8.984375 
Q 17.578125 -1.171875 17.578125 8.59375 
L 17.578125 45.3125 
Q 14.453125 40.234375 9.765625 33.59375 
Q 7.421875 36.71875 3.515625 38.28125 
z
M 81.640625 55.859375 
L 81.640625 66.40625 
L 45.3125 66.40625 
L 45.3125 55.859375 
z
M 86.328125 22.265625 
L 86.328125 35.15625 
L 76.953125 35.15625 
L 76.953125 22.265625 
z
M 55.859375 22.265625 
L 55.859375 35.15625 
L 47.265625 35.15625 
L 47.265625 22.265625 
z
M 70.703125 22.265625 
L 70.703125 35.15625 
L 62.5 35.15625 
L 62.5 22.265625 
z
" id="SimHei-20559"/>
      <path d="M 91.015625 -0.390625 
Q 91.40625 -6.25 86.71875 -7.8125 
Q 82.03125 -9.375 77.734375 -9.765625 
Q 76.171875 -5.078125 73.828125 -1.5625 
Q 77.734375 -1.5625 80.859375 -1.359375 
Q 83.984375 -1.171875 83.59375 3.90625 
L 83.59375 28.515625 
L 17.1875 28.515625 
L 17.1875 -8.984375 
L 9.375 -8.984375 
Q 9.765625 -3.515625 9.765625 13.28125 
Q 9.765625 30.46875 9.375 34.375 
L 91.40625 34.375 
Q 91.015625 28.90625 91.015625 22.265625 
z
M 76.953125 59.375 
Q 76.5625 54.296875 76.5625 49.609375 
Q 76.5625 45.3125 76.953125 40.625 
L 21.875 40.625 
Q 22.265625 44.140625 22.265625 49.609375 
Q 22.265625 55.078125 21.875 59.375 
L 76.953125 59.375 
z
M 70.3125 21.875 
Q 69.921875 17.578125 69.921875 12.5 
Q 69.921875 7.8125 70.3125 3.125 
L 30.46875 3.125 
Q 31.25 7.8125 31.25 12.5 
Q 31.25 17.578125 30.46875 21.875 
L 70.3125 21.875 
z
M 6.640625 71.875 
Q 11.71875 71.484375 17.578125 71.484375 
L 45.703125 71.484375 
Q 44.53125 76.171875 42.96875 79.6875 
Q 47.65625 80.078125 52.34375 81.25 
Q 53.125 77.34375 55.078125 71.484375 
L 82.03125 71.484375 
Q 87.5 71.484375 93.359375 71.875 
L 93.359375 64.84375 
Q 87.5 65.234375 78.90625 65.234375 
L 17.96875 65.234375 
Q 11.71875 65.234375 6.640625 64.84375 
z
M 69.53125 46.484375 
L 69.53125 53.515625 
L 29.6875 53.515625 
L 29.6875 46.484375 
z
M 62.890625 8.59375 
L 62.890625 16.40625 
L 37.5 16.40625 
L 37.5 8.59375 
z
" id="SimHei-39640"/>
     </defs>
     <use xlink:href="#SimHei-23569"/>
     <use x="100" xlink:href="#SimHei-20110"/>
     <use x="200" xlink:href="#SimHei-49"/>
     <use x="250" xlink:href="#SimHei-53"/>
     <use x="300" xlink:href="#SimHei-20154"/>
     <use x="400" xlink:href="#SimHei-30340"/>
     <use x="500" xlink:href="#SimHei-20844"/>
     <use x="600" xlink:href="#SimHei-21496"/>
     <use x="700" xlink:href="#SimHei-20849"/>
     <use x="800" xlink:href="#SimHei-26377"/>
     <use x="900" xlink:href="#SimHei-52"/>
     <use x="950" xlink:href="#SimHei-23478"/>
     <use x="1050" xlink:href="#SimHei-20854"/>
     <use x="1150" xlink:href="#SimHei-20013"/>
     <use x="1250" xlink:href="#SimHei-51"/>
     <use x="1300" xlink:href="#SimHei-23478"/>
     <use x="1400" xlink:href="#SimHei-32473"/>
     <use x="1500" xlink:href="#SimHei-30340"/>
     <use x="1600" xlink:href="#SimHei-24037"/>
     <use x="1700" xlink:href="#SimHei-36164"/>
     <use x="1800" xlink:href="#SimHei-20559"/>
     <use x="1900" xlink:href="#SimHei-39640"/>
    </g>
   </g>
   <g id="legend_2">
    <g id="patch_13">
     <path d="M 211.5 878.990625 
L 985.5 878.990625 
Q 994.5 878.990625 994.5 869.990625 
L 994.5 809.1 
Q 994.5 800.1 985.5 800.1 
L 211.5 800.1 
Q 202.5 800.1 202.5 809.1 
L 202.5 869.990625 
Q 202.5 878.990625 211.5 878.990625 
z
" style="fill:#ffffff;opacity:0.8;stroke:#cccccc;stroke-linejoin:miter;"/>
    </g>
    <g id="line2d_63">
     <path d="M 220.5 839.615625 
L 310.5 839.615625 
" style="fill:none;stroke:#ff0000;stroke-linecap:square;stroke-opacity:0.5;stroke-width:20;"/>
    </g>
    <g id="line2d_64">
     <g>
      <use style="fill:#ff0000;fill-opacity:0.5;stroke:#ff0000;stroke-linejoin:bevel;stroke-opacity:0.5;" x="265.5" xlink:href="#ma5e450a7d1" y="839.615625"/>
     </g>
    </g>
    <g id="text_36">
     <!-- java公司规模对应平均工资变化 -->
     <g transform="translate(346.5 855.365625)scale(0.45 -0.45)">
      <defs>
       <path d="M 35.9375 58.203125 
L 28.125 58.203125 
L 28.125 68.359375 
L 35.9375 68.359375 
z
M 35.9375 2.34375 
Q 35.9375 -4.6875 31.640625 -8.59375 
Q 27.34375 -12.5 20.3125 -12.5 
Q 16.015625 -12.5 13.46875 -11.90625 
Q 10.9375 -11.328125 8.984375 -10.546875 
L 8.984375 -2.734375 
Q 10.9375 -3.90625 13.671875 -4.6875 
Q 16.40625 -5.46875 20.703125 -5.46875 
Q 25 -5.46875 26.5625 -3.3125 
Q 28.125 -1.171875 28.125 1.953125 
L 28.125 45.703125 
L 35.9375 45.703125 
z
" id="SimHei-106"/>
       <path d="M 44.921875 1.953125 
L 35.546875 1.953125 
Q 34.765625 2.734375 34.375 4.09375 
Q 33.984375 5.46875 33.984375 7.421875 
Q 31.25 4.296875 27.34375 2.734375 
Q 23.4375 1.171875 19.140625 1.171875 
Q 12.890625 1.171875 8.59375 4.296875 
Q 4.296875 7.421875 4.296875 13.28125 
Q 4.296875 19.140625 8.203125 22.65625 
Q 12.109375 26.171875 20.3125 27.34375 
Q 25.78125 28.125 29.875 29.296875 
Q 33.984375 30.46875 33.984375 32.421875 
Q 33.984375 34.765625 32.21875 37.109375 
Q 30.46875 39.453125 24.609375 39.453125 
Q 19.921875 39.453125 17.765625 37.6875 
Q 15.625 35.9375 14.84375 32.8125 
L 6.25 32.8125 
Q 7.03125 39.0625 11.90625 42.765625 
Q 16.796875 46.484375 24.609375 46.484375 
Q 33.203125 46.484375 37.5 42.578125 
Q 41.796875 38.671875 41.796875 31.640625 
L 41.796875 10.15625 
Q 41.796875 7.8125 42.578125 5.859375 
Q 43.359375 3.90625 44.921875 1.953125 
z
M 33.984375 16.40625 
L 33.984375 24.21875 
Q 31.640625 23.4375 29.484375 22.84375 
Q 27.34375 22.265625 22.265625 21.484375 
Q 16.40625 20.703125 14.640625 18.75 
Q 12.890625 16.796875 12.890625 14.0625 
Q 12.890625 11.71875 14.640625 9.953125 
Q 16.40625 8.203125 19.921875 8.203125 
Q 23.4375 8.203125 27.53125 10.15625 
Q 31.640625 12.109375 33.984375 16.40625 
z
" id="SimHei-97"/>
       <path d="M 44.921875 45.703125 
L 28.515625 1.171875 
L 19.921875 1.171875 
L 3.515625 45.703125 
L 11.71875 45.703125 
L 23.828125 11.71875 
L 24.609375 11.71875 
L 36.71875 45.703125 
z
" id="SimHei-118"/>
      </defs>
      <use xlink:href="#SimHei-106"/>
      <use x="50" xlink:href="#SimHei-97"/>
      <use x="100" xlink:href="#SimHei-118"/>
      <use x="150" xlink:href="#SimHei-97"/>
      <use x="200" xlink:href="#SimHei-20844"/>
      <use x="300" xlink:href="#SimHei-21496"/>
      <use x="400" xlink:href="#SimHei-35268"/>
      <use x="500" xlink:href="#SimHei-27169"/>
      <use x="600" xlink:href="#SimHei-23545"/>
      <use x="700" xlink:href="#SimHei-24212"/>
      <use x="800" xlink:href="#SimHei-24179"/>
      <use x="900" xlink:href="#SimHei-22343"/>
      <use x="1000" xlink:href="#SimHei-24037"/>
      <use x="1100" xlink:href="#SimHei-36164"/>
      <use x="1200" xlink:href="#SimHei-21464"/>
      <use x="1300" xlink:href="#SimHei-21270"/>
     </g>
    </g>
   </g>
  </g>
 </g>
 <defs>
  <clipPath id="p3b5e9bfb2a">
   <rect height="504" width="1116" x="180" y="172.8"/>
  </clipPath>
  <clipPath id="p265f08d4c7">
   <rect height="504" width="1116" x="180" y="777.6"/>
  </clipPath>
 </defs>
</svg>
